<svg xmlns="http://www.w3.org/2000/svg" xmlns:xlink="http://www.w3.org/1999/xlink" width="1200" viewBox="0 0 1200 187.5" height="187.5" version="1.0"><defs><g id="o"><path d="M 13.3125 -48.609375 C 13.3125 -46.035156 13.921875 -43.816406 15.140625 -41.953125 C 16.359375 -40.085938 17.851562 -38.523438 19.625 -37.265625 C 21.394531 -36.015625 23.851562 -34.457031 27 -32.59375 C 30.34375 -30.601562 32.929688 -28.945312 34.765625 -27.625 C 36.597656 -26.3125 38.171875 -24.625 39.484375 -22.5625 C 40.804688 -20.507812 41.46875 -18.035156 41.46875 -15.140625 C 41.46875 -12.117188 40.726562 -9.367188 39.25 -6.890625 C 37.769531 -4.421875 35.566406 -2.460938 32.640625 -1.015625 C 29.710938 0.429688 26.128906 1.15625 21.890625 1.15625 C 19.640625 1.15625 17.5 0.910156 15.46875 0.421875 C 13.445312 -0.0546875 11.21875 -0.90625 8.78125 -2.125 C 8.457031 -2.3125 8.242188 -2.535156 8.140625 -2.796875 C 8.046875 -3.054688 7.96875 -3.441406 7.90625 -3.953125 L 6.46875 -16.484375 L 6.46875 -16.59375 C 6.46875 -16.84375 6.625 -16.984375 6.9375 -17.015625 C 7.257812 -17.046875 7.453125 -16.9375 7.515625 -16.6875 C 8.160156 -12.25 9.863281 -8.390625 12.625 -5.109375 C 15.394531 -1.828125 19.191406 -0.1875 24.015625 -0.1875 C 27.421875 -0.1875 30.296875 -1.117188 32.640625 -2.984375 C 34.984375 -4.847656 36.15625 -7.773438 36.15625 -11.765625 C 36.15625 -14.660156 35.515625 -17.148438 34.234375 -19.234375 C 32.953125 -21.328125 31.394531 -23.0625 29.5625 -24.4375 C 27.726562 -25.820312 25.234375 -27.445312 22.078125 -29.3125 C 18.992188 -31.113281 16.566406 -32.6875 14.796875 -34.03125 C 13.035156 -35.382812 11.523438 -37.070312 10.265625 -39.09375 C 9.015625 -41.125 8.390625 -43.554688 8.390625 -46.390625 C 8.390625 -49.597656 9.207031 -52.328125 10.84375 -54.578125 C 12.488281 -56.828125 14.628906 -58.515625 17.265625 -59.640625 C 19.898438 -60.765625 22.726562 -61.328125 25.75 -61.328125 C 29.28125 -61.328125 32.945312 -60.554688 36.75 -59.015625 C 37.707031 -58.628906 38.1875 -58.082031 38.1875 -57.375 L 39.0625 -47.15625 C 39.0625 -46.894531 38.882812 -46.765625 38.53125 -46.765625 C 38.175781 -46.765625 37.96875 -46.894531 37.90625 -47.15625 C 37.644531 -50.5 36.390625 -53.488281 34.140625 -56.125 C 31.890625 -58.757812 28.675781 -60.078125 24.5 -60.078125 C 20.632812 -60.078125 17.800781 -58.953125 16 -56.703125 C 14.207031 -54.453125 13.3125 -51.753906 13.3125 -48.609375 Z M 13.3125 -48.609375"/></g><g id="p"><path d="M 66.921875 -1.15625 C 67.179688 -1.15625 67.3125 -0.960938 67.3125 -0.578125 C 67.3125 -0.191406 67.179688 0 66.921875 0 C 65.765625 0 63.898438 -0.0625 61.328125 -0.1875 C 58.890625 -0.320312 57.09375 -0.390625 55.9375 -0.390625 C 54.582031 -0.390625 52.8125 -0.320312 50.625 -0.1875 C 48.570312 -0.0625 47.03125 0 46 0 C 45.738281 0 45.609375 -0.191406 45.609375 -0.578125 C 45.609375 -0.960938 45.738281 -1.15625 46 -1.15625 C 48.632812 -1.15625 50.53125 -1.394531 51.6875 -1.875 C 52.84375 -2.363281 53.421875 -3.1875 53.421875 -4.34375 C 53.421875 -5.238281 53.066406 -6.488281 52.359375 -8.09375 L 40.890625 -32.6875 L 22.46875 -32.6875 L 13.796875 -11.859375 C 12.890625 -9.671875 12.4375 -7.875 12.4375 -6.46875 C 12.4375 -4.601562 13.207031 -3.25 14.75 -2.40625 C 16.289062 -1.570312 18.703125 -1.15625 21.984375 -1.15625 C 22.304688 -1.15625 22.46875 -0.960938 22.46875 -0.578125 C 22.46875 -0.191406 22.304688 0 21.984375 0 C 20.828125 0 19.15625 -0.0625 16.96875 -0.1875 C 14.53125 -0.320312 12.410156 -0.390625 10.609375 -0.390625 C 9.003906 -0.390625 7.109375 -0.320312 4.921875 -0.1875 C 2.992188 -0.0625 1.414062 0 0.1875 0 C -0.132812 0 -0.296875 -0.191406 -0.296875 -0.578125 C -0.296875 -0.960938 -0.132812 -1.15625 0.1875 -1.15625 C 1.988281 -1.15625 3.515625 -1.476562 4.765625 -2.125 C 6.023438 -2.769531 7.21875 -3.925781 8.34375 -5.59375 C 9.46875 -7.257812 10.671875 -9.640625 11.953125 -12.734375 L 32.109375 -61.234375 C 32.242188 -61.429688 32.453125 -61.53125 32.734375 -61.53125 C 33.023438 -61.53125 33.203125 -61.429688 33.265625 -61.234375 L 55.640625 -13.21875 C 57.117188 -9.9375 58.4375 -7.441406 59.59375 -5.734375 C 60.75 -4.035156 61.890625 -2.847656 63.015625 -2.171875 C 64.140625 -1.492188 65.441406 -1.15625 66.921875 -1.15625 Z M 23.234375 -34.53125 L 40.125 -34.53125 L 31.15625 -53.625 Z M 23.234375 -34.53125"/></g><g id="q"><path d="M 65.1875 -1.15625 C 65.382812 -1.15625 65.484375 -0.960938 65.484375 -0.578125 C 65.484375 -0.191406 65.382812 0 65.1875 0 L 54 0 C 52.332031 0 49.210938 -2.78125 44.640625 -8.34375 C 40.078125 -13.90625 34.550781 -21.601562 28.0625 -31.4375 C 26.132812 -30.925781 24.175781 -30.671875 22.1875 -30.671875 C 21.09375 -30.671875 19.707031 -30.734375 18.03125 -30.859375 L 18.03125 -7.8125 C 18.03125 -5.820312 18.238281 -4.375 18.65625 -3.46875 C 19.070312 -2.570312 19.859375 -1.960938 21.015625 -1.640625 C 22.179688 -1.316406 24.046875 -1.15625 26.609375 -1.15625 C 26.804688 -1.15625 26.90625 -0.960938 26.90625 -0.578125 C 26.90625 -0.191406 26.804688 0 26.609375 0 C 24.679688 0 23.140625 -0.03125 21.984375 -0.09375 L 15.4375 -0.1875 L 9.0625 -0.09375 C 7.90625 -0.03125 6.300781 0 4.25 0 C 4.113281 0 4.046875 -0.191406 4.046875 -0.578125 C 4.046875 -0.960938 4.113281 -1.15625 4.25 -1.15625 C 6.8125 -1.15625 8.6875 -1.316406 9.875 -1.640625 C 11.070312 -1.960938 11.894531 -2.585938 12.34375 -3.515625 C 12.789062 -4.453125 13.015625 -5.882812 13.015625 -7.8125 L 13.015625 -52.46875 C 13.015625 -54.394531 12.804688 -55.804688 12.390625 -56.703125 C 11.972656 -57.609375 11.171875 -58.234375 9.984375 -58.578125 C 8.796875 -58.929688 6.945312 -59.109375 4.4375 -59.109375 C 4.238281 -59.109375 4.140625 -59.300781 4.140625 -59.6875 C 4.140625 -60.070312 4.238281 -60.265625 4.4375 -60.265625 L 9.0625 -60.171875 C 11.632812 -60.046875 13.757812 -59.984375 15.4375 -59.984375 C 16.59375 -59.984375 17.679688 -60.015625 18.703125 -60.078125 C 19.734375 -60.140625 20.632812 -60.203125 21.40625 -60.265625 C 23.40625 -60.460938 25.175781 -60.5625 26.71875 -60.5625 C 31.789062 -60.5625 35.675781 -59.5 38.375 -57.375 C 41.082031 -55.257812 42.4375 -52.304688 42.4375 -48.515625 C 42.4375 -45.421875 41.535156 -42.507812 39.734375 -39.78125 C 37.929688 -37.050781 35.550781 -34.878906 32.59375 -33.265625 C 38.1875 -25.035156 42.847656 -18.640625 46.578125 -14.078125 C 50.304688 -9.515625 53.632812 -6.21875 56.5625 -4.1875 C 59.488281 -2.164062 62.363281 -1.15625 65.1875 -1.15625 Z M 18.03125 -33.171875 C 20.476562 -32.910156 22.40625 -32.78125 23.8125 -32.78125 C 28.507812 -32.78125 31.882812 -33.757812 33.9375 -35.71875 C 36 -37.6875 37.03125 -40.859375 37.03125 -45.234375 C 37.03125 -50.117188 35.890625 -53.6875 33.609375 -55.9375 C 31.328125 -58.1875 28.289062 -59.3125 24.5 -59.3125 C 22.695312 -59.3125 21.375 -59.179688 20.53125 -58.921875 C 19.695312 -58.660156 19.070312 -58.046875 18.65625 -57.078125 C 18.238281 -56.117188 18.03125 -54.515625 18.03125 -52.265625 Z M 18.03125 -33.171875"/></g><g id="r"><path d="M 69.4375 -1.15625 C 69.625 -1.15625 69.71875 -0.960938 69.71875 -0.578125 C 69.71875 -0.191406 69.625 0 69.4375 0 C 67.445312 0 65.90625 -0.03125 64.8125 -0.09375 L 58.34375 -0.1875 L 51.6875 -0.09375 C 50.59375 -0.03125 49.082031 0 47.15625 0 C 46.96875 0 46.875 -0.191406 46.875 -0.578125 C 46.875 -0.960938 46.96875 -1.15625 47.15625 -1.15625 C 49.726562 -1.15625 51.59375 -1.316406 52.75 -1.640625 C 53.90625 -1.960938 54.691406 -2.570312 55.109375 -3.46875 C 55.523438 -4.375 55.734375 -5.820312 55.734375 -7.8125 L 55.734375 -30.46875 L 17.265625 -30.46875 L 17.265625 -7.8125 C 17.265625 -5.820312 17.472656 -4.375 17.890625 -3.46875 C 18.304688 -2.570312 19.09375 -1.960938 20.25 -1.640625 C 21.40625 -1.316406 23.269531 -1.15625 25.84375 -1.15625 C 25.96875 -1.15625 26.03125 -0.960938 26.03125 -0.578125 C 26.03125 -0.191406 25.96875 0 25.84375 0 C 23.914062 0 22.375 -0.03125 21.21875 -0.09375 L 14.65625 -0.1875 L 8.296875 -0.09375 C 7.140625 -0.03125 5.53125 0 3.46875 0 C 3.34375 0 3.28125 -0.191406 3.28125 -0.578125 C 3.28125 -0.960938 3.34375 -1.15625 3.46875 -1.15625 C 5.976562 -1.15625 7.828125 -1.316406 9.015625 -1.640625 C 10.203125 -1.960938 11.019531 -2.585938 11.46875 -3.515625 C 11.925781 -4.453125 12.15625 -5.882812 12.15625 -7.8125 L 12.15625 -52.46875 C 12.15625 -54.394531 11.941406 -55.804688 11.515625 -56.703125 C 11.097656 -57.609375 10.296875 -58.234375 9.109375 -58.578125 C 7.921875 -58.929688 6.070312 -59.109375 3.5625 -59.109375 C 3.4375 -59.109375 3.375 -59.300781 3.375 -59.6875 C 3.375 -60.070312 3.4375 -60.265625 3.5625 -60.265625 L 8.296875 -60.171875 C 10.992188 -60.046875 13.113281 -59.984375 14.65625 -59.984375 C 16.394531 -59.984375 18.613281 -60.046875 21.3125 -60.171875 L 25.84375 -60.265625 C 25.96875 -60.265625 26.03125 -60.070312 26.03125 -59.6875 C 26.03125 -59.300781 25.96875 -59.109375 25.84375 -59.109375 C 23.332031 -59.109375 21.484375 -58.914062 20.296875 -58.53125 C 19.109375 -58.144531 18.304688 -57.484375 17.890625 -56.546875 C 17.472656 -55.617188 17.265625 -54.191406 17.265625 -52.265625 L 17.265625 -32.3125 L 55.734375 -32.3125 L 55.734375 -52.265625 C 55.734375 -54.191406 55.523438 -55.617188 55.109375 -56.546875 C 54.691406 -57.484375 53.890625 -58.144531 52.703125 -58.53125 C 51.515625 -58.914062 49.664062 -59.109375 47.15625 -59.109375 C 46.96875 -59.109375 46.875 -59.300781 46.875 -59.6875 C 46.875 -60.070312 46.96875 -60.265625 47.15625 -60.265625 L 51.6875 -60.171875 C 54.382812 -60.046875 56.601562 -59.984375 58.34375 -59.984375 C 59.945312 -59.984375 62.101562 -60.046875 64.8125 -60.171875 L 69.4375 -60.265625 C 69.625 -60.265625 69.71875 -60.070312 69.71875 -59.6875 C 69.71875 -59.300781 69.625 -59.109375 69.4375 -59.109375 C 66.925781 -59.109375 65.078125 -58.929688 63.890625 -58.578125 C 62.703125 -58.234375 61.878906 -57.609375 61.421875 -56.703125 C 60.972656 -55.804688 60.75 -54.394531 60.75 -52.46875 L 60.75 -7.8125 C 60.75 -5.882812 60.972656 -4.453125 61.421875 -3.515625 C 61.878906 -2.585938 62.703125 -1.960938 63.890625 -1.640625 C 65.078125 -1.316406 66.925781 -1.15625 69.4375 -1.15625 Z M 69.4375 -1.15625"/></g><g id="t"><path d="M 39.828125 -61.328125 C 42.972656 -61.328125 46.132812 -61.003906 49.3125 -60.359375 C 52.5 -59.722656 55.0625 -58.859375 57 -57.765625 C 57.507812 -57.441406 57.84375 -57.132812 58 -56.84375 C 58.164062 -56.5625 58.28125 -56.097656 58.34375 -55.453125 L 59.40625 -45.328125 C 59.40625 -45.128906 59.242188 -45.015625 58.921875 -44.984375 C 58.597656 -44.953125 58.40625 -45.035156 58.34375 -45.234375 C 56.03125 -54.617188 48.601562 -59.3125 36.0625 -59.3125 C 31.050781 -59.3125 26.628906 -58.234375 22.796875 -56.078125 C 18.972656 -53.921875 16 -50.878906 13.875 -46.953125 C 11.757812 -43.035156 10.703125 -38.507812 10.703125 -33.375 C 10.703125 -27.320312 12.019531 -21.738281 14.65625 -16.625 C 17.289062 -11.519531 20.796875 -7.472656 25.171875 -4.484375 C 29.546875 -1.492188 34.269531 0 39.34375 0 C 44.101562 0 48.203125 -1.25 51.640625 -3.75 C 55.078125 -6.257812 57.601562 -10.085938 59.21875 -15.234375 C 59.21875 -15.429688 59.34375 -15.53125 59.59375 -15.53125 C 59.789062 -15.53125 59.96875 -15.492188 60.125 -15.421875 C 60.289062 -15.359375 60.375 -15.265625 60.375 -15.140625 L 59.015625 -4.828125 C 58.890625 -4.054688 58.742188 -3.554688 58.578125 -3.328125 C 58.421875 -3.097656 58.054688 -2.859375 57.484375 -2.609375 C 51.753906 -0.0976562 45.613281 1.15625 39.0625 1.15625 C 31.34375 1.15625 24.910156 -0.398438 19.765625 -3.515625 C 14.617188 -6.640625 10.820312 -10.628906 8.375 -15.484375 C 5.9375 -20.335938 4.71875 -25.429688 4.71875 -30.765625 C 4.71875 -36.617188 6.359375 -41.875 9.640625 -46.53125 C 12.921875 -51.1875 17.257812 -54.816406 22.65625 -57.421875 C 28.0625 -60.023438 33.785156 -61.328125 39.828125 -61.328125 Z M 39.828125 -61.328125"/></g><g id="u"><path d="M 35.296875 1.15625 C 29.316406 1.15625 23.992188 -0.238281 19.328125 -3.03125 C 14.671875 -5.832031 11.070312 -9.628906 8.53125 -14.421875 C 5.988281 -19.210938 4.71875 -24.4375 4.71875 -30.09375 C 4.71875 -36.707031 6.390625 -42.378906 9.734375 -47.109375 C 13.078125 -51.835938 17.367188 -55.390625 22.609375 -57.765625 C 27.847656 -60.140625 33.203125 -61.328125 38.671875 -61.328125 C 44.773438 -61.328125 50.140625 -59.894531 54.765625 -57.03125 C 59.398438 -54.175781 62.953125 -50.398438 65.421875 -45.703125 C 67.898438 -41.015625 69.140625 -36.035156 69.140625 -30.765625 C 69.140625 -24.910156 67.597656 -19.539062 64.515625 -14.65625 C 61.429688 -9.769531 57.300781 -5.910156 52.125 -3.078125 C 46.945312 -0.253906 41.335938 1.15625 35.296875 1.15625 Z M 38.765625 -0.765625 C 43.328125 -0.765625 47.441406 -1.828125 51.109375 -3.953125 C 54.773438 -6.078125 57.664062 -9.195312 59.78125 -13.3125 C 61.90625 -17.425781 62.96875 -22.34375 62.96875 -28.0625 C 62.96875 -34.101562 61.796875 -39.488281 59.453125 -44.21875 C 57.109375 -48.945312 53.796875 -52.628906 49.515625 -55.265625 C 45.242188 -57.898438 40.28125 -59.21875 34.625 -59.21875 C 27.164062 -59.21875 21.34375 -56.898438 17.15625 -52.265625 C 12.976562 -47.640625 10.890625 -41.34375 10.890625 -33.375 C 10.890625 -27.394531 12.0625 -21.910156 14.40625 -16.921875 C 16.757812 -11.941406 20.054688 -8.003906 24.296875 -5.109375 C 28.546875 -2.210938 33.367188 -0.765625 38.765625 -0.765625 Z M 38.765625 -0.765625"/></g><g id="v"><path d="M 17.171875 -8.203125 C 17.171875 -6.335938 17.378906 -4.96875 17.796875 -4.09375 C 18.210938 -3.226562 18.984375 -2.632812 20.109375 -2.3125 C 21.234375 -1.988281 23.015625 -1.828125 25.453125 -1.828125 L 37.796875 -1.828125 C 44.160156 -1.828125 47.925781 -5.910156 49.09375 -14.078125 C 49.09375 -14.273438 49.265625 -14.351562 49.609375 -14.3125 C 49.960938 -14.28125 50.140625 -14.171875 50.140625 -13.984375 C 49.566406 -8.898438 49.28125 -4.722656 49.28125 -1.453125 C 49.28125 -0.929688 49.179688 -0.554688 48.984375 -0.328125 C 48.796875 -0.109375 48.410156 0 47.828125 0 L 3.46875 0 C 3.34375 0 3.28125 -0.191406 3.28125 -0.578125 C 3.28125 -0.960938 3.34375 -1.15625 3.46875 -1.15625 C 5.976562 -1.15625 7.828125 -1.316406 9.015625 -1.640625 C 10.203125 -1.960938 11.003906 -2.585938 11.421875 -3.515625 C 11.835938 -4.453125 12.046875 -5.882812 12.046875 -7.8125 L 12.046875 -52.46875 C 12.046875 -54.394531 11.835938 -55.804688 11.421875 -56.703125 C 11.003906 -57.609375 10.203125 -58.234375 9.015625 -58.578125 C 7.828125 -58.929688 5.976562 -59.109375 3.46875 -59.109375 C 3.34375 -59.109375 3.28125 -59.300781 3.28125 -59.6875 C 3.28125 -60.070312 3.34375 -60.265625 3.46875 -60.265625 L 8.203125 -60.171875 C 10.898438 -60.046875 13.019531 -59.984375 14.5625 -59.984375 C 16.300781 -59.984375 18.519531 -60.046875 21.21875 -60.171875 L 25.75 -60.265625 C 25.875 -60.265625 25.9375 -60.070312 25.9375 -59.6875 C 25.9375 -59.300781 25.875 -59.109375 25.75 -59.109375 C 23.238281 -59.109375 21.390625 -58.929688 20.203125 -58.578125 C 19.015625 -58.234375 18.210938 -57.59375 17.796875 -56.65625 C 17.378906 -55.726562 17.171875 -54.296875 17.171875 -52.359375 Z M 17.171875 -8.203125"/></g><g id="b"><path d="M 41.359375 -18.433594 C 41.21875 -18.894531 40.710938 -19.175781 40.246094 -18.988281 C 37.652344 -18.15625 33.996094 -17.042969 29.6875 -15.746094 C 32.050781 -27.972656 34.503906 -40.570312 35.753906 -45.480469 C 35.847656 -45.945312 35.570312 -46.453125 35.105469 -46.546875 C 34.644531 -46.683594 34.132812 -46.40625 34.039062 -45.945312 C 32.746094 -40.847656 30.152344 -27.742188 27.742188 -15.191406 C 27.417969 -15.097656 27.09375 -14.960938 26.722656 -14.867188 C 21.121094 -13.199219 14.636719 -11.207031 8.429688 -9.261719 C 9.863281 -16.257812 11.578125 -24.59375 13.664062 -34.457031 L 13.894531 -35.429688 C 14.636719 -39.042969 14.402344 -41.035156 13.152344 -41.820312 C 12.089844 -42.425781 10.605469 -41.960938 8.800781 -40.386719 C 4.492188 -36.632812 -2.363281 -26.027344 -0.417969 -21.351562 C 0.046875 -20.238281 1.15625 -18.941406 3.984375 -19.128906 C 4.492188 -19.175781 4.863281 -19.589844 4.816406 -20.101562 C 4.769531 -20.5625 4.355469 -20.933594 3.890625 -20.933594 C 1.761719 -20.796875 1.34375 -21.722656 1.203125 -22.046875 C 0.601562 -23.574219 1.390625 -26.675781 3.382812 -30.335938 C 5.234375 -33.761719 7.828125 -37.144531 9.957031 -38.996094 C 11.441406 -40.292969 12.132812 -40.339844 12.226562 -40.246094 C 12.273438 -40.246094 12.96875 -39.691406 12.132812 -35.800781 L 11.949219 -34.828125 C 11.070312 -30.753906 8.800781 -20.054688 6.484375 -8.660156 C 3.289062 -7.640625 0.140625 -6.667969 -2.6875 -5.695312 C -7.59375 -4.074219 -11.253906 -2.734375 -13.847656 -1.621094 C -18.015625 0.140625 -18.804688 0.972656 -18.757812 1.898438 C -18.710938 2.363281 -18.433594 3.011719 -17.183594 3.242188 C -17.136719 3.242188 -17.089844 3.242188 -17.042969 3.242188 C -16.625 3.242188 -16.257812 2.964844 -16.164062 2.546875 C -16.070312 2.175781 -16.257812 1.804688 -16.535156 1.621094 C -15.328125 0.878906 -11.765625 -0.832031 -1.113281 -4.355469 C 1.15625 -5.09375 3.566406 -5.882812 6.066406 -6.667969 C 5.605469 -4.398438 5.140625 -2.085938 4.679688 0.183594 C 3.058594 8.242188 1.804688 14.589844 1.019531 19.128906 C 0.554688 21.769531 0.183594 23.804688 0 25.195312 C -0.277344 27.234375 -0.417969 28.25 0.554688 28.53125 C 0.648438 28.574219 0.742188 28.574219 0.832031 28.574219 C 1.574219 28.574219 1.898438 27.648438 2.269531 26.675781 C 2.410156 26.214844 2.175781 25.75 1.761719 25.566406 C 2.175781 22.324219 3.660156 13.941406 8.011719 -7.269531 C 14.542969 -9.308594 21.351562 -11.394531 27.234375 -13.152344 C 27.277344 -13.199219 27.324219 -13.199219 27.371094 -13.199219 C 26.769531 -10.097656 26.214844 -7.039062 25.65625 -4.214844 C 24.269531 3.242188 23.066406 9.632812 22.507812 12.179688 C 22.417969 12.691406 22.695312 13.152344 23.203125 13.246094 C 23.25 13.246094 23.34375 13.246094 23.390625 13.246094 C 23.804688 13.246094 24.175781 12.96875 24.269531 12.550781 C 24.777344 10.003906 25.9375 3.890625 27.417969 -3.890625 C 28.019531 -6.992188 28.667969 -10.375 29.316406 -13.800781 C 33.996094 -15.191406 38.023438 -16.394531 40.804688 -17.320312 C 41.265625 -17.460938 41.542969 -17.96875 41.359375 -18.433594 Z M 41.359375 -18.433594"/></g><g id="c"><path d="M 16.765625 -10.050781 C 16.347656 -10.375 15.792969 -10.28125 15.515625 -9.910156 C 13.570312 -7.410156 10.375 -5.324219 7.917969 -5.789062 C 7.964844 -6.113281 8.011719 -6.4375 8.011719 -6.761719 C 8.335938 -11.996094 6.714844 -13.0625 5.742188 -13.246094 C 4.632812 -13.476562 3.472656 -12.644531 2.917969 -11.253906 C 2.6875 -11.347656 2.410156 -11.347656 2.175781 -11.160156 C 0.324219 -10.003906 -1.203125 -7.039062 -0.371094 -3.84375 C 0.183594 -1.945312 1.480469 -0.742188 3.195312 -0.742188 C 4.816406 -0.742188 6.53125 -1.945312 7.410156 -4.074219 C 10.652344 -3.382812 14.542969 -5.789062 16.90625 -8.800781 C 17.230469 -9.214844 17.136719 -9.773438 16.765625 -10.050781 Z M 3.242188 -2.5 C 3.195312 -2.5 3.195312 -2.5 3.195312 -2.5 C 2.039062 -2.546875 1.527344 -3.660156 1.390625 -4.308594 C 0.925781 -5.882812 1.296875 -8.058594 2.59375 -9.261719 C 2.6875 -7.6875 3.566406 -5.972656 5.789062 -4.769531 C 5.140625 -3.289062 4.03125 -2.5 3.242188 -2.5 Z M 6.253906 -6.855469 C 6.207031 -6.761719 6.207031 -6.667969 6.207031 -6.578125 C 4.445312 -7.734375 4.167969 -9.214844 4.492188 -10.375 C 4.722656 -11.117188 5.1875 -11.484375 5.417969 -11.484375 C 5.648438 -11.441406 6.4375 -10.558594 6.253906 -6.855469 Z M 6.253906 -6.855469"/></g><g id="d"><path d="M 26.121094 -10.328125 C 25.75 -10.652344 25.148438 -10.605469 24.824219 -10.234375 C 21.121094 -5.882812 18.617188 -4.769531 17.507812 -5.1875 C 16.535156 -5.558594 15.976562 -7.410156 16.023438 -10.328125 C 16.023438 -10.835938 16.070312 -12.089844 15.050781 -12.320312 C 13.894531 -12.597656 13.0625 -11.253906 10.605469 -6.113281 C 10.1875 -5.234375 9.820312 -4.445312 9.585938 -3.984375 C 9.308594 -3.472656 9.125 -3.195312 8.984375 -3.058594 C 8.753906 -3.519531 8.429688 -4.722656 8.476562 -6.53125 C 8.476562 -7.457031 8.476562 -8.242188 8.523438 -8.890625 C 8.566406 -10.929688 8.613281 -11.671875 7.78125 -11.996094 C 7.039062 -12.226562 6.53125 -11.53125 6.390625 -11.300781 C 4.355469 -8.523438 2.546875 -5.695312 0.648438 -2.269531 C 1.390625 -5.464844 2.734375 -10.050781 4.445312 -13.894531 C 4.632812 -14.355469 4.445312 -14.914062 3.984375 -15.097656 C 3.519531 -15.285156 3.011719 -15.097656 2.777344 -14.636719 C 1.480469 -11.625 0.183594 -7.78125 -0.789062 -3.984375 C -2.316406 2.128906 -1.714844 2.410156 -1.15625 2.6875 C -1.019531 2.734375 -0.878906 2.777344 -0.742188 2.777344 C -0.277344 2.777344 0.140625 2.453125 0.507812 1.761719 C 2.734375 -2.5 4.585938 -5.648438 6.714844 -8.753906 C 6.714844 -8.105469 6.667969 -7.363281 6.667969 -6.53125 C 6.667969 -5.09375 6.855469 -1.667969 8.566406 -1.203125 C 9.957031 -0.878906 10.835938 -2.59375 11.160156 -3.148438 C 11.441406 -3.660156 11.808594 -4.445312 12.226562 -5.324219 C 12.738281 -6.390625 13.570312 -8.152344 14.265625 -9.355469 C 14.355469 -6.113281 15.238281 -4.121094 16.90625 -3.519531 C 19.175781 -2.640625 22.277344 -4.539062 26.214844 -9.078125 C 26.539062 -9.449219 26.492188 -10.003906 26.121094 -10.328125 Z M 26.121094 -10.328125"/></g><g id="e"><path d="M 15.652344 -10.328125 C 15.238281 -10.605469 14.679688 -10.511719 14.402344 -10.097656 C 10.929688 -5.234375 8.105469 -2.175781 5.324219 -0.183594 C 3.9375 0.789062 2.59375 0.972656 1.714844 0.324219 C 1.15625 -0.09375 -0.554688 -1.945312 1.4375 -8.429688 C 5.929688 -12.132812 8.382812 -15.652344 7.734375 -17.507812 C 7.503906 -18.0625 6.945312 -18.433594 6.34375 -18.433594 C 4.492188 -18.386719 1.667969 -15.191406 -0.183594 -9.214844 C -2.453125 -1.851562 -0.601562 0.832031 0.695312 1.761719 C 1.34375 2.269531 2.085938 2.5 2.917969 2.5 C 3.984375 2.5 5.1875 2.085938 6.34375 1.25 C 9.308594 -0.878906 12.226562 -4.03125 15.839844 -9.078125 C 16.117188 -9.496094 16.023438 -10.050781 15.652344 -10.328125 Z M 5.972656 -16.488281 C 5.789062 -15.746094 5 -14.265625 2.824219 -12.042969 C 4.03125 -14.726562 5.324219 -16.023438 5.972656 -16.488281 Z M 5.972656 -16.488281"/></g><g id="g"><path d="M 38.210938 -18.941406 C 36.449219 -21.121094 34.039062 -22.507812 31.125 -23.15625 C 31.449219 -23.527344 31.726562 -23.898438 32.003906 -24.222656 C 34.96875 -28.207031 39.226562 -35.660156 34.597656 -41.21875 C 31.539062 -44.925781 25.289062 -46.5 18.988281 -45.574219 C 18.988281 -45.664062 19.035156 -45.710938 19.035156 -45.804688 C 19.128906 -46.269531 18.804688 -46.730469 18.292969 -46.824219 C 17.832031 -46.917969 17.367188 -46.59375 17.273438 -46.082031 C 17.230469 -45.804688 17.183594 -45.527344 17.136719 -45.25 C 15.328125 -44.832031 13.570312 -44.230469 11.855469 -43.394531 C 4.261719 -39.691406 0.972656 -32.835938 2.777344 -24.546875 C 2.871094 -24.082031 3.382812 -23.757812 3.84375 -23.898438 C 4.308594 -23.992188 4.632812 -24.453125 4.539062 -24.964844 C 2.871094 -32.328125 5.835938 -38.488281 12.644531 -41.820312 C 13.988281 -42.46875 15.328125 -42.933594 16.765625 -43.304688 C 15.839844 -38.578125 14.496094 -31.910156 12.96875 -24.40625 C 12.320312 -21.164062 11.71875 -18.15625 11.117188 -15.328125 C 10.511719 -14.355469 10.050781 -13.292969 9.773438 -12.179688 C 9.539062 -11.300781 9.863281 -10.792969 10.144531 -10.511719 C 3.148438 24.453125 3.519531 26.167969 5 26.628906 C 5.09375 26.675781 5.234375 26.675781 5.324219 26.675781 C 6.207031 26.675781 6.855469 25.519531 7.828125 23.15625 C 8.011719 22.695312 7.78125 22.183594 7.316406 22 C 6.855469 21.8125 6.34375 22 6.160156 22.460938 C 6.113281 22.648438 6.019531 22.785156 5.972656 22.925781 C 6.484375 17.320312 9.214844 3.289062 11.902344 -10.144531 C 15.792969 -10.605469 24.453125 -16.164062 29.734375 -21.582031 C 32.699219 -21.210938 35.105469 -19.960938 36.820312 -17.832031 C 40.015625 -13.847656 40.292969 -7.410156 37.515625 -1.066406 C 33.253906 8.707031 23.527344 15.050781 11.441406 15.933594 C 10.929688 15.976562 10.558594 16.394531 10.605469 16.90625 C 10.652344 17.367188 11.023438 17.738281 11.484375 17.738281 C 11.53125 17.738281 11.53125 17.738281 11.578125 17.738281 C 24.316406 16.8125 34.644531 10.050781 39.183594 -0.371094 C 42.191406 -7.316406 41.820312 -14.449219 38.210938 -18.941406 Z M 12.273438 -11.996094 C 12.457031 -12.921875 12.644531 -13.800781 12.828125 -14.726562 C 15.191406 -18.433594 19.636719 -20.515625 23.574219 -21.304688 C 24.917969 -21.535156 26.167969 -21.675781 27.371094 -21.722656 C 22.09375 -16.671875 15.003906 -12.738281 12.273438 -11.996094 Z M 29.039062 -23.433594 C 27.234375 -23.574219 25.289062 -23.433594 23.203125 -23.019531 C 19.3125 -22.277344 15.976562 -20.609375 13.523438 -18.292969 C 13.941406 -20.285156 14.355469 -22.230469 14.726562 -24.035156 C 16.347656 -31.957031 17.738281 -38.949219 18.664062 -43.71875 C 24.5 -44.691406 30.476562 -43.394531 33.207031 -40.109375 C 36.078125 -36.632812 35.105469 -31.402344 30.566406 -25.289062 C 30.105469 -24.683594 29.59375 -24.035156 29.039062 -23.433594 Z M 29.039062 -23.433594"/></g><g id="h"><path d="M 18.433594 -10.003906 C 18.015625 -10.234375 17.460938 -10.097656 17.230469 -9.679688 C 12.828125 -2.640625 9.125 0.507812 8.335938 0.230469 C 8.335938 0.230469 7.410156 -0.277344 8.289062 -5.605469 C 8.613281 -7.410156 8.753906 -8.429688 7.875 -8.800781 C 7.039062 -9.125 6.53125 -8.429688 5.558594 -7.039062 C 4.769531 -5.929688 3.707031 -4.445312 2.546875 -3.425781 C 2.410156 -3.335938 1.898438 -2.871094 1.667969 -3.058594 C 0.972656 -3.613281 0.832031 -6.621094 2.453125 -9.402344 C 2.734375 -9.820312 2.546875 -10.375 2.128906 -10.652344 C 1.714844 -10.882812 1.15625 -10.746094 0.925781 -10.328125 C -0.925781 -7.085938 -1.113281 -3.058594 0.507812 -1.714844 C 0.925781 -1.34375 2.085938 -0.695312 3.707031 -2.039062 C 4.769531 -2.964844 5.695312 -4.167969 6.4375 -5.1875 C 5.789062 -0.878906 6.160156 1.296875 7.6875 1.898438 C 7.917969 1.992188 8.152344 1.992188 8.335938 1.992188 C 11.855469 1.992188 17.554688 -6.902344 18.710938 -8.753906 C 18.988281 -9.171875 18.851562 -9.726562 18.433594 -10.003906 Z M 18.433594 -10.003906"/></g><g id="i"><path d="M 22.648438 -10.1875 C 22.371094 -10.605469 21.8125 -10.699219 21.398438 -10.421875 C 17.414062 -7.828125 13.339844 -4.957031 9.449219 -1.34375 C 10.003906 -4.769531 10.558594 -8.429688 11.070312 -12.273438 C 11.160156 -12.691406 10.882812 -13.105469 10.46875 -13.246094 C 10.097656 -13.386719 9.632812 -13.199219 9.449219 -12.828125 C 8.523438 -11.253906 6.484375 -8.011719 4.679688 -5.835938 C 4.03125 -5.046875 3.382812 -4.632812 3.058594 -4.863281 C 2.269531 -5.324219 1.714844 -8.523438 3.519531 -12.921875 C 3.707031 -13.386719 3.472656 -13.894531 3.058594 -14.078125 C 2.59375 -14.265625 2.085938 -14.035156 1.898438 -13.570312 C 0 -8.9375 0.09375 -4.539062 2.175781 -3.335938 C 2.6875 -2.964844 4.167969 -2.453125 6.019531 -4.679688 C 6.992188 -5.835938 7.917969 -7.132812 8.753906 -8.382812 C 8.289062 -5.1875 7.828125 -2.128906 7.316406 0.789062 C 3.425781 4.769531 -0.230469 9.585938 -3.382812 15.699219 C -8.660156 25.84375 -9.632812 37.097656 -6.992188 40.339844 C -6.484375 40.988281 -5.835938 41.3125 -5.140625 41.3125 C -4.910156 41.3125 -4.722656 41.265625 -4.492188 41.21875 C -1.480469 40.339844 1.203125 33.671875 2.964844 28.207031 C 5.140625 21.398438 7.132812 12.503906 8.984375 1.621094 C 13.292969 -2.6875 17.878906 -6.019531 22.371094 -8.9375 C 22.785156 -9.214844 22.925781 -9.773438 22.648438 -10.1875 Z M 1.25 27.648438 C -2.085938 38.210938 -4.492188 39.367188 -4.957031 39.507812 C -5.140625 39.550781 -5.324219 39.550781 -5.605469 39.226562 C -7.269531 37.191406 -7.410156 27.324219 -1.804688 16.488281 C 0.789062 11.53125 3.660156 7.457031 6.761719 3.984375 C 5.09375 13.570312 3.242188 21.488281 1.25 27.648438 Z M 1.25 27.648438"/></g><g id="j"><path d="M 13.523438 -10.511719 C 13.105469 -10.792969 12.597656 -10.652344 12.320312 -10.234375 C 9.214844 -5.234375 4.03125 -0.507812 2.453125 -1.15625 C 2.269531 -1.25 0.789062 -2.128906 2.824219 -9.957031 C 2.917969 -10.46875 2.640625 -10.929688 2.175781 -11.070312 C 1.667969 -11.160156 1.203125 -10.882812 1.066406 -10.421875 C -0.601562 -3.890625 -0.371094 -0.417969 1.714844 0.464844 C 2.039062 0.601562 2.363281 0.648438 2.6875 0.648438 C 6.160156 0.648438 11.484375 -5.558594 13.847656 -9.308594 C 14.078125 -9.726562 13.941406 -10.28125 13.523438 -10.511719 Z M 2.59375 -14.265625 C 4.957031 -14.125 4.910156 -17.089844 3.011719 -16.441406 C 2.039062 -16.164062 0.789062 -14.355469 2.59375 -14.265625 Z M 2.59375 -14.265625"/></g><g id="k"><path d="M 18.617188 -10.328125 C 18.203125 -10.558594 17.644531 -10.421875 17.414062 -9.957031 C 16.300781 -8.058594 13.386719 -2.917969 11.71875 -3.101562 C 11.394531 -3.148438 10.46875 -3.613281 9.539062 -6.855469 C 8.890625 -9.125 8.011719 -11.253906 6.296875 -11.347656 C 5.046875 -11.441406 3.660156 -10.46875 1.527344 -6.484375 C 2.085938 -8.476562 2.6875 -10.46875 3.148438 -12.089844 C 3.335938 -12.691406 3.472656 -13.199219 3.613281 -13.710938 C 3.75 -14.171875 3.472656 -14.679688 3.011719 -14.820312 C 2.546875 -14.960938 2.039062 -14.679688 1.898438 -14.171875 C 1.761719 -13.710938 1.621094 -13.152344 1.4375 -12.597656 C 0.230469 -8.476562 -1.574219 -2.222656 -2.039062 1.574219 C -2.085938 1.992188 -1.804688 2.410156 -1.390625 2.5 C -1.296875 2.546875 -1.25 2.546875 -1.15625 2.546875 C -0.789062 2.546875 -0.464844 2.316406 -0.324219 1.992188 C 4.03125 -8.847656 5.789062 -9.585938 6.207031 -9.585938 C 6.296875 -9.585938 6.945312 -9.402344 7.828125 -6.34375 C 8.753906 -3.148438 9.957031 -1.527344 11.53125 -1.34375 C 13.894531 -1.066406 16.023438 -3.984375 18.941406 -9.078125 C 19.21875 -9.539062 19.035156 -10.050781 18.617188 -10.328125 Z M 18.617188 -10.328125"/></g><g id="l"><path d="M 21.210938 -10.234375 C 20.933594 -10.652344 20.378906 -10.746094 20.007812 -10.511719 C 16.765625 -8.429688 12.597656 -5.695312 8.289062 -2.175781 C 8.753906 -5.371094 9.214844 -8.753906 9.679688 -12.367188 C 9.726562 -12.828125 9.449219 -13.199219 9.078125 -13.339844 C 8.660156 -13.476562 8.199219 -13.292969 8.011719 -12.921875 C 7.226562 -11.625 5.046875 -8.289062 3.242188 -5.882812 C 2.5 -4.957031 2.085938 -4.585938 1.851562 -4.445312 C 1.390625 -5.929688 2.824219 -12.550781 5.742188 -15.144531 C 6.902344 -16.210938 7.964844 -16.210938 9.125 -15.191406 C 9.496094 -14.867188 10.050781 -14.867188 10.375 -15.238281 C 10.699219 -15.609375 10.652344 -16.164062 10.328125 -16.488281 C 8.476562 -18.15625 6.808594 -17.878906 5.742188 -17.320312 C 1.992188 -15.46875 -0.277344 -7.78125 0.046875 -4.679688 C 0.140625 -3.289062 0.789062 -2.777344 1.296875 -2.640625 C 2.546875 -2.316406 3.75 -3.613281 4.632812 -4.816406 C 5.558594 -6.019531 6.53125 -7.410156 7.410156 -8.660156 C 7.039062 -5.742188 6.621094 -3.011719 6.207031 -0.417969 C 1.25 3.890625 -3.707031 9.308594 -7.457031 16.164062 C -10.28125 21.257812 -11.207031 25.566406 -11.484375 28.25 C -11.855469 31.773438 -11.347656 34.6875 -10.050781 36.265625 C -9.355469 37.144531 -8.476562 37.605469 -7.503906 37.605469 C -7.226562 37.605469 -6.902344 37.5625 -6.578125 37.46875 C -2.128906 36.21875 3.707031 25.65625 7.828125 0.507812 C 12.644531 -3.613281 17.367188 -6.667969 20.933594 -8.984375 C 21.351562 -9.261719 21.488281 -9.820312 21.210938 -10.234375 Z M -7.039062 35.753906 C -7.6875 35.941406 -8.199219 35.753906 -8.660156 35.152344 C -10.421875 32.976562 -10.699219 25.703125 -5.929688 17.042969 C -2.6875 11.160156 1.480469 6.34375 5.695312 2.410156 C 1.480469 26.675781 -4.074219 34.921875 -7.039062 35.753906 Z M -7.039062 35.753906"/></g><g id="m"><path d="M 41.265625 -11.484375 C 41.082031 -11.949219 40.523438 -12.132812 40.0625 -11.949219 C 38.535156 -11.253906 35.660156 -10.746094 32.097656 -10.28125 C 32.003906 -10.511719 31.816406 -10.699219 31.539062 -10.792969 C 31.125 -10.976562 30.660156 -10.746094 30.476562 -10.328125 C 30.382812 -10.234375 30.335938 -10.144531 30.289062 -10.050781 C 28.113281 -9.773438 25.703125 -9.539062 23.25 -9.261719 C 19.914062 -8.9375 16.441406 -8.566406 13.152344 -8.152344 C 12.644531 -8.105469 12.320312 -7.640625 12.367188 -7.179688 C 12.414062 -6.714844 12.828125 -6.390625 13.246094 -6.390625 C 13.292969 -6.390625 13.339844 -6.390625 13.386719 -6.390625 C 16.625 -6.808594 20.101562 -7.179688 23.433594 -7.503906 C 25.519531 -7.734375 27.511719 -7.917969 29.363281 -8.152344 C 25.332031 0 21.121094 6.390625 17.089844 10.46875 C 13.386719 14.265625 10.097656 15.839844 7.734375 15.003906 C 5.835938 14.265625 4.585938 11.855469 4.214844 8.152344 C 3.75 3.84375 4.445312 -1.945312 6.253906 -8.613281 C 8.890625 -18.339844 16.394531 -33.714844 23.390625 -41.128906 C 25.566406 -43.441406 27.789062 -44.414062 29.132812 -43.675781 C 31.261719 -42.46875 32.421875 -36.914062 29.179688 -24.777344 C 29.039062 -24.316406 29.316406 -23.804688 29.78125 -23.714844 C 30.242188 -23.574219 30.753906 -23.851562 30.890625 -24.316406 C 35.011719 -39.785156 32.097656 -44.042969 30.011719 -45.203125 C 27.835938 -46.40625 24.871094 -45.339844 22.09375 -42.378906 C 14.914062 -34.734375 7.226562 -18.988281 4.539062 -9.078125 C 0.789062 4.816406 1.761719 14.679688 7.132812 16.671875 C 12.78125 18.757812 21.074219 11.023438 28.898438 -3.382812 C 27.882812 1.714844 26.769531 7.59375 25.890625 12.78125 C 25.195312 16.8125 24.730469 20.238281 24.453125 22.648438 C 24.035156 26.539062 24.128906 27.511719 25.054688 27.789062 C 25.148438 27.835938 25.242188 27.835938 25.378906 27.835938 C 26.214844 27.835938 26.722656 26.628906 27.371094 24.777344 C 27.558594 24.316406 27.277344 23.804688 26.816406 23.667969 C 26.585938 23.574219 26.351562 23.574219 26.121094 23.714844 C 26.769531 17.367188 29.410156 2.175781 31.816406 -8.429688 C 35.800781 -8.9375 38.996094 -9.496094 40.804688 -10.328125 C 41.265625 -10.511719 41.453125 -11.070312 41.265625 -11.484375 Z M 41.265625 -11.484375"/></g><g id="n"><path d="M 19.777344 -38.671875 C 19.453125 -38.949219 19.035156 -39.042969 18.617188 -38.949219 C 16.625 -38.300781 13.0625 -28.621094 9.632812 -12.691406 C 9.539062 -12.414062 9.402344 -12.179688 9.261719 -11.902344 C 9.03125 -13.710938 7.828125 -14.21875 7.410156 -14.355469 C 5.417969 -14.960938 2.269531 -13.152344 0.09375 -8.523438 C -1.574219 -5.046875 -1.898438 -0.507812 0.183594 0.695312 C 1.203125 1.296875 2.964844 1.203125 5.511719 -2.5 C 6.621094 -4.074219 7.59375 -5.605469 8.523438 -7.085938 C 8.011719 -4.445312 7.503906 -1.667969 7.039062 1.25 C 6.160156 6.4375 5.511719 10.792969 5.140625 13.941406 C 4.398438 20.101562 4.769531 20.933594 5.695312 21.210938 C 5.789062 21.257812 5.929688 21.257812 6.019531 21.257812 C 6.855469 21.257812 7.410156 20.191406 7.6875 19.5 C 7.917969 19.082031 7.734375 18.527344 7.269531 18.339844 C 7.039062 18.203125 6.761719 18.203125 6.53125 18.292969 C 6.621094 16.300781 7.085938 11.765625 8.800781 1.574219 C 9.632812 -3.519531 10.511719 -8.058594 11.347656 -12.042969 C 14.820312 -18.617188 16.582031 -24.175781 18.015625 -28.574219 C 18.203125 -29.132812 18.386719 -29.640625 18.527344 -30.105469 C 20.980469 -37.46875 20.054688 -38.347656 19.777344 -38.671875 Z M 4.03125 -3.519531 C 2.269531 -0.972656 1.296875 -0.742188 1.066406 -0.832031 C 0.371094 -1.25 0.140625 -4.445312 1.714844 -7.78125 C 3.289062 -11.117188 5.417969 -12.691406 6.578125 -12.691406 C 6.714844 -12.691406 6.808594 -12.691406 6.902344 -12.644531 C 7.640625 -12.457031 7.503906 -11.117188 7.457031 -10.746094 C 7.410156 -10.328125 7.640625 -9.910156 8.058594 -9.773438 C 6.902344 -7.78125 5.558594 -5.695312 4.03125 -3.519531 Z M 16.859375 -30.660156 C 16.671875 -30.195312 16.488281 -29.6875 16.347656 -29.132812 C 15.515625 -26.628906 14.589844 -23.804688 13.339844 -20.609375 C 15.285156 -28.296875 17.042969 -33.113281 18.15625 -35.523438 C 17.96875 -34.410156 17.554688 -32.835938 16.859375 -30.660156 Z M 16.859375 -30.660156"/></g><clipPath id="a"><path d="M 1.597656 91 L 1198.402344 91 L 1198.402344 154 L 1.597656 154 Z M 1.597656 91"/></clipPath></defs><g clip-path="url(#a)"><path fill="#EFECE7" d="M 1.6875 91.117188 L 1198.3125 91.117188 L 1198.3125 153.949219 L 1.6875 153.949219 Z M 1.6875 91.117188"/></g><path transform="matrix(1.49686 0 0 1.31157 306.617 125.39)" fill="none" d="M 0.0000678022 0.0000809025 L 177.90057 0.0000809025" stroke="#747474"/><g fill="#B58F65"><use x="587.829" y="138.693" xmlns:xlink="http://www.w3.org/1999/xlink" xlink:href="#b" xlink:type="simple" xlink:actuate="onLoad" xlink:show="embed"/></g><g fill="#B58F65"><use x="627.241" y="138.693" xmlns:xlink="http://www.w3.org/1999/xlink" xlink:href="#c" xlink:type="simple" xlink:actuate="onLoad" xlink:show="embed"/></g><g fill="#B58F65"><use x="642.061" y="138.693" xmlns:xlink="http://www.w3.org/1999/xlink" xlink:href="#d" xlink:type="simple" xlink:actuate="onLoad" xlink:show="embed"/></g><g fill="#B58F65"><use x="666.189" y="138.693" xmlns:xlink="http://www.w3.org/1999/xlink" xlink:href="#e" xlink:type="simple" xlink:actuate="onLoad" xlink:show="embed"/></g><g fill="#B58F65"><use x="679.666" y="138.693" xmlns:xlink="http://www.w3.org/1999/xlink" xlink:href="#f" xlink:type="simple" xlink:actuate="onLoad" xlink:show="embed"/></g><g fill="#B58F65"><use x="693.884" y="138.693" xmlns:xlink="http://www.w3.org/1999/xlink" xlink:href="#g" xlink:type="simple" xlink:actuate="onLoad" xlink:show="embed"/></g><g fill="#B58F65"><use x="739.224" y="138.693" xmlns:xlink="http://www.w3.org/1999/xlink" xlink:href="#h" xlink:type="simple" xlink:actuate="onLoad" xlink:show="embed"/></g><g fill="#B58F65"><use x="755.803" y="138.693" xmlns:xlink="http://www.w3.org/1999/xlink" xlink:href="#i" xlink:type="simple" xlink:actuate="onLoad" xlink:show="embed"/></g><g fill="#B58F65"><use x="776.32" y="138.693" xmlns:xlink="http://www.w3.org/1999/xlink" xlink:href="#j" xlink:type="simple" xlink:actuate="onLoad" xlink:show="embed"/></g><g fill="#B58F65"><use x="788.036" y="138.693" xmlns:xlink="http://www.w3.org/1999/xlink" xlink:href="#k" xlink:type="simple" xlink:actuate="onLoad" xlink:show="embed"/></g><g fill="#B58F65"><use x="804.57" y="138.693" xmlns:xlink="http://www.w3.org/1999/xlink" xlink:href="#l" xlink:type="simple" xlink:actuate="onLoad" xlink:show="embed"/></g><g fill="#B58F65"><use x="823.65" y="138.693" xmlns:xlink="http://www.w3.org/1999/xlink" xlink:href="#f" xlink:type="simple" xlink:actuate="onLoad" xlink:show="embed"/></g><g fill="#B58F65"><use x="837.868" y="138.693" xmlns:xlink="http://www.w3.org/1999/xlink" xlink:href="#m" xlink:type="simple" xlink:actuate="onLoad" xlink:show="embed"/></g><g fill="#B58F65"><use x="880.8" y="138.693" xmlns:xlink="http://www.w3.org/1999/xlink" xlink:href="#h" xlink:type="simple" xlink:actuate="onLoad" xlink:show="embed"/></g><g fill="#B58F65"><use x="897.379" y="138.693" xmlns:xlink="http://www.w3.org/1999/xlink" xlink:href="#j" xlink:type="simple" xlink:actuate="onLoad" xlink:show="embed"/></g><g fill="#B58F65"><use x="909.096" y="138.693" xmlns:xlink="http://www.w3.org/1999/xlink" xlink:href="#n" xlink:type="simple" xlink:actuate="onLoad" xlink:show="embed"/></g><g fill="#B58F65"><use x="923.592" y="138.693" xmlns:xlink="http://www.w3.org/1999/xlink" xlink:href="#e" xlink:type="simple" xlink:actuate="onLoad" xlink:show="embed"/></g><g fill="#747474"><use x="134.909" y="97.867" xmlns:xlink="http://www.w3.org/1999/xlink" xlink:href="#o" xlink:type="simple" xlink:actuate="onLoad" xlink:show="embed"/></g><g fill="#747474"><use x="205.213" y="97.867" xmlns:xlink="http://www.w3.org/1999/xlink" xlink:href="#p" xlink:type="simple" xlink:actuate="onLoad" xlink:show="embed"/></g><g fill="#747474"><use x="296.057" y="97.867" xmlns:xlink="http://www.w3.org/1999/xlink" xlink:href="#q" xlink:type="simple" xlink:actuate="onLoad" xlink:show="embed"/></g><g fill="#747474"><use x="383.912" y="97.867" xmlns:xlink="http://www.w3.org/1999/xlink" xlink:href="#p" xlink:type="simple" xlink:actuate="onLoad" xlink:show="embed"/></g><g fill="#747474"><use x="474.756" y="97.867" xmlns:xlink="http://www.w3.org/1999/xlink" xlink:href="#r" xlink:type="simple" xlink:actuate="onLoad" xlink:show="embed"/></g><g fill="#747474"><use x="571.386" y="97.867" xmlns:xlink="http://www.w3.org/1999/xlink" xlink:href="#s" xlink:type="simple" xlink:actuate="onLoad" xlink:show="embed"/></g><g fill="#747474"><use x="617.485" y="97.867" xmlns:xlink="http://www.w3.org/1999/xlink" xlink:href="#t" xlink:type="simple" xlink:actuate="onLoad" xlink:show="embed"/></g><g fill="#747474"><use x="705.532" y="97.867" xmlns:xlink="http://www.w3.org/1999/xlink" xlink:href="#u" xlink:type="simple" xlink:actuate="onLoad" xlink:show="embed"/></g><g fill="#747474"><use x="802.934" y="97.867" xmlns:xlink="http://www.w3.org/1999/xlink" xlink:href="#v" xlink:type="simple" xlink:actuate="onLoad" xlink:show="embed"/></g><g fill="#747474"><use x="877.577" y="97.867" xmlns:xlink="http://www.w3.org/1999/xlink" xlink:href="#v" xlink:type="simple" xlink:actuate="onLoad" xlink:show="embed"/></g><g fill="#747474"><use x="952.221" y="97.867" xmlns:xlink="http://www.w3.org/1999/xlink" xlink:href="#o" xlink:type="simple" xlink:actuate="onLoad" xlink:show="embed"/></g></svg>