<svg xmlns="http://www.w3.org/2000/svg" xmlns:xlink="http://www.w3.org/1999/xlink" width="375" viewBox="0 0 375 375" height="375" version="1.0"><defs><g id="c"><path d="M 13.390625 0 L 9.78125 -5.09375 C 9.363281 -5.039062 8.9375 -5.015625 8.5 -5.015625 L 4.25 -5.015625 L 4.25 0 L 2.578125 0 L 2.578125 -15.84375 L 8.5 -15.84375 C 10.519531 -15.84375 12.101562 -15.359375 13.25 -14.390625 C 14.40625 -13.421875 14.984375 -12.09375 14.984375 -10.40625 C 14.984375 -9.164062 14.664062 -8.117188 14.03125 -7.265625 C 13.40625 -6.421875 12.515625 -5.8125 11.359375 -5.4375 L 15.234375 0 Z M 8.46875 -6.453125 C 10.03125 -6.453125 11.222656 -6.796875 12.046875 -7.484375 C 12.878906 -8.179688 13.296875 -9.15625 13.296875 -10.40625 C 13.296875 -11.6875 12.878906 -12.671875 12.046875 -13.359375 C 11.222656 -14.046875 10.03125 -14.390625 8.46875 -14.390625 L 4.25 -14.390625 L 4.25 -6.453125 Z M 8.46875 -6.453125"/></g><g id="d"><path d="M 13.78125 -1.453125 L 13.78125 0 L 2.578125 0 L 2.578125 -15.84375 L 13.4375 -15.84375 L 13.4375 -14.390625 L 4.25 -14.390625 L 4.25 -8.75 L 12.4375 -8.75 L 12.4375 -7.328125 L 4.25 -7.328125 L 4.25 -1.453125 Z M 13.78125 -1.453125"/></g><g id="e"><path d="M 12.515625 -4.234375 L 3.6875 -4.234375 L 1.78125 0 L 0.046875 0 L 7.28125 -15.84375 L 8.9375 -15.84375 L 16.171875 0 L 14.40625 0 Z M 11.90625 -5.59375 L 8.09375 -14.09375 L 4.296875 -5.59375 Z M 11.90625 -5.59375"/></g><g id="f"><path d="M 2.578125 -15.84375 L 4.25 -15.84375 L 4.25 -1.453125 L 13.125 -1.453125 L 13.125 0 L 2.578125 0 Z M 2.578125 -15.84375"/></g><g id="g"><path d="M 5.65625 -14.390625 L 0.09375 -14.390625 L 0.09375 -15.84375 L 12.890625 -15.84375 L 12.890625 -14.390625 L 7.328125 -14.390625 L 7.328125 0 L 5.65625 0 Z M 5.65625 -14.390625"/></g><g id="h"><path d="M 9.5 0.140625 C 7.9375 0.140625 6.515625 -0.207031 5.234375 -0.90625 C 3.960938 -1.613281 2.96875 -2.578125 2.25 -3.796875 C 1.53125 -5.023438 1.171875 -6.398438 1.171875 -7.921875 C 1.171875 -9.441406 1.53125 -10.8125 2.25 -12.03125 C 2.96875 -13.257812 3.960938 -14.222656 5.234375 -14.921875 C 6.515625 -15.617188 7.9375 -15.96875 9.5 -15.96875 C 11.070312 -15.96875 12.488281 -15.617188 13.75 -14.921875 C 15.007812 -14.234375 16 -13.273438 16.71875 -12.046875 C 17.445312 -10.816406 17.8125 -9.441406 17.8125 -7.921875 C 17.8125 -6.398438 17.445312 -5.023438 16.71875 -3.796875 C 16 -2.566406 15.007812 -1.601562 13.75 -0.90625 C 12.488281 -0.207031 11.070312 0.140625 9.5 0.140625 Z M 9.5 -1.359375 C 10.75 -1.359375 11.878906 -1.640625 12.890625 -2.203125 C 13.898438 -2.765625 14.691406 -3.546875 15.265625 -4.546875 C 15.835938 -5.554688 16.125 -6.679688 16.125 -7.921875 C 16.125 -9.160156 15.835938 -10.28125 15.265625 -11.28125 C 14.691406 -12.28125 13.898438 -13.0625 12.890625 -13.625 C 11.878906 -14.195312 10.75 -14.484375 9.5 -14.484375 C 8.25 -14.484375 7.113281 -14.195312 6.09375 -13.625 C 5.070312 -13.0625 4.269531 -12.28125 3.6875 -11.28125 C 3.113281 -10.28125 2.828125 -9.160156 2.828125 -7.921875 C 2.828125 -6.679688 3.113281 -5.554688 3.6875 -4.546875 C 4.269531 -3.546875 5.070312 -2.765625 6.09375 -2.203125 C 7.113281 -1.640625 8.25 -1.359375 9.5 -1.359375 Z M 9.5 -1.359375"/></g><g id="j"><path d="M 54.726562 -12.785156 C 54.390625 -13.289062 53.714844 -13.402344 53.265625 -13.066406 C 47.546875 -9.027344 42.390625 -5.160156 37.679688 -1.515625 C 34.484375 -6.785156 25.960938 -10.261719 14.578125 -14.859375 C 13.121094 -15.417969 11.664062 -16.035156 10.148438 -16.652344 C 5.664062 -18.449219 4.09375 -21.25 5.328125 -25.121094 C 7.007812 -30.503906 14.074219 -37.625 23.660156 -43.734375 C 32.800781 -49.511719 41.773438 -52.761719 45.976562 -51.808594 C 47.324219 -51.527344 48.835938 -50.746094 48.390625 -47.605469 C 48.277344 -47.042969 48.726562 -46.484375 49.285156 -46.371094 C 49.902344 -46.316406 50.464844 -46.707031 50.519531 -47.324219 C 51.191406 -52.089844 48.277344 -53.492188 46.484375 -53.941406 C 36.277344 -56.238281 7.402344 -38.914062 3.253906 -25.792969 C 1.738281 -20.859375 3.867188 -16.878906 9.308594 -14.632812 C 10.820312 -14.019531 12.335938 -13.402344 13.792969 -12.839844 C 26.015625 -7.90625 33.53125 -4.652344 35.996094 -0.222656 C 16.148438 15.308594 6.054688 26.410156 7.738281 31.175781 C 8.019531 31.960938 8.859375 33.136719 11.214844 33.136719 C 11.382812 33.136719 11.605469 33.136719 11.773438 33.136719 C 19.289062 32.578125 35.660156 21.363281 38.800781 5.496094 C 39.195312 3.644531 39.082031 1.960938 38.632812 0.449219 C 43.398438 -3.195312 48.667969 -7.121094 54.5 -11.269531 C 55.003906 -11.664062 55.117188 -12.335938 54.726562 -12.785156 Z M 36.671875 5.101562 C 33.644531 20.242188 17.773438 30.503906 11.605469 31.007812 C 11.046875 31.007812 9.980469 31.007812 9.8125 30.445312 C 9.195312 28.765625 12.335938 24 17.832031 18.449219 C 22.484375 13.679688 28.820312 8.128906 36.726562 1.90625 C 36.949219 2.914062 36.894531 3.925781 36.671875 5.101562 Z M 36.671875 5.101562"/></g><g id="k"><path d="M 23.4375 -12.449219 C 22.933594 -12.671875 22.261719 -12.449219 22.035156 -11.941406 C 17.773438 -3.253906 14.578125 -0.503906 13.066406 -0.785156 C 12.449219 -0.898438 10.429688 -2.074219 9.925781 -11.886719 C 9.925781 -12.335938 9.589844 -12.726562 9.195312 -12.839844 C 8.746094 -12.953125 8.242188 -12.839844 8.019531 -12.449219 C 7.683594 -12.054688 7.34375 -11.605469 7.007812 -11.101562 C 5.605469 -9.195312 3.757812 -6.617188 1.515625 -4.207031 C 1.175781 -3.8125 0.898438 -3.589844 0.730469 -3.476562 C 0.335938 -5.4375 2.410156 -12.953125 5.71875 -15.308594 C 6.671875 -15.980469 7.960938 -16.484375 9.699219 -14.464844 C 10.09375 -14.019531 10.765625 -13.960938 11.214844 -14.355469 C 11.664062 -14.691406 11.71875 -15.417969 11.382812 -15.867188 C 9.25 -18.335938 7.234375 -18.277344 5.886719 -17.832031 C 1.570312 -16.316406 -1.347656 -8.019531 -1.457031 -4.207031 C -1.515625 -2.636719 -1.066406 -1.625 -0.167969 -1.289062 C 1.234375 -0.730469 2.636719 -2.242188 3.082031 -2.746094 C 4.992188 -4.820312 6.730469 -7.066406 7.960938 -8.804688 C 8.578125 -2.410156 10.09375 0.785156 12.617188 1.347656 C 12.839844 1.347656 13.066406 1.402344 13.289062 1.402344 C 17.101562 1.402344 21.195312 -5.269531 23.941406 -10.988281 C 24.222656 -11.550781 24 -12.167969 23.4375 -12.449219 Z M 23.4375 -12.449219"/></g><g id="l"><path d="M 24.613281 -12.671875 C 24.054688 -12.953125 23.382812 -12.726562 23.15625 -12.167969 C 16.710938 1.402344 10.597656 8.355469 9.25 8.128906 C 9.140625 8.074219 7.175781 6.167969 13.511719 -13.289062 C 13.679688 -13.792969 14.074219 -14.972656 13.175781 -15.585938 C 12.335938 -16.261719 11.382812 -15.644531 9.8125 -14.578125 C 8.128906 -13.511719 5.832031 -12 4.039062 -12.222656 C 9.757812 -22.09375 9.195312 -24.277344 7.90625 -25.121094 C 5.886719 -26.296875 2.972656 -22.878906 1.625 -20.914062 C -1.121094 -16.652344 -1.066406 -12.785156 1.851562 -10.820312 C 4.820312 -8.746094 8.691406 -11.269531 10.988281 -12.785156 C 11.046875 -12.839844 11.046875 -12.839844 11.101562 -12.894531 C 8.914062 -6 7.511719 -0.5625 7.007812 3.195312 C 6.390625 7.34375 6.839844 9.53125 8.410156 10.148438 C 8.691406 10.203125 8.914062 10.261719 9.195312 10.261719 C 13.679688 10.261719 21.476562 -3.53125 25.121094 -11.214844 C 25.34375 -11.773438 25.121094 -12.449219 24.613281 -12.671875 Z M 1.960938 -16.539062 C 2.746094 -19.570312 5.382812 -22.371094 6.558594 -23.046875 C 6.449219 -22.148438 5.832031 -19.625 2.242188 -13.402344 C 1.851562 -14.019531 1.570312 -14.972656 1.960938 -16.539062 Z M 1.960938 -16.539062"/></g><g id="m"><path d="M 26.523438 -12.785156 C 26.015625 -13.121094 25.34375 -12.953125 25.0625 -12.449219 C 17.101562 0.390625 14.296875 0.113281 14.019531 0.0546875 C 13.457031 -0.113281 12.839844 -1.234375 12.671875 -3.980469 C 12.617188 -5.214844 12.335938 -8.914062 9.867188 -9.25 C 7.007812 -9.644531 3.589844 -4.652344 0.503906 1.792969 C 2.410156 -6.730469 5.160156 -18.449219 7.175781 -26.746094 C 14.691406 -40.257812 18.503906 -50.40625 16.933594 -52.59375 C 16.597656 -53.097656 16.035156 -53.265625 15.476562 -53.15625 C 13.066406 -52.707031 9.308594 -44.519531 6.785156 -34.148438 C 6.671875 -33.753906 -3.363281 7.234375 -3.699219 12.28125 C -3.699219 12.839844 -3.363281 13.289062 -2.804688 13.402344 C -2.746094 13.402344 -2.691406 13.402344 -2.636719 13.402344 C -2.1875 13.402344 -1.738281 13.121094 -1.570312 12.726562 C 3.308594 -1.289062 8.074219 -7.121094 9.476562 -7.121094 C 9.53125 -7.121094 9.53125 -7.121094 9.53125 -7.121094 C 9.757812 -7.121094 10.375 -6.449219 10.542969 -3.867188 C 10.597656 -2.523438 10.878906 1.457031 13.457031 2.128906 C 14.578125 2.410156 17.886719 3.253906 26.859375 -11.328125 C 27.195312 -11.832031 27.027344 -12.503906 26.523438 -12.785156 Z M 15.082031 -50.070312 C 14.632812 -47.828125 13.066406 -43.007812 9.308594 -35.4375 C 11.4375 -43.511719 13.738281 -48.164062 15.082031 -50.070312 Z M 15.082031 -50.070312"/></g><g id="o"><path d="M 45.53125 -13.066406 C 44.96875 -13.289062 44.351562 -13.066406 44.128906 -12.503906 C 37.734375 1.066406 31.566406 11.046875 25.738281 17.15625 C 20.800781 22.316406 16.371094 24.445312 12.839844 23.382812 C 9.644531 22.371094 7.175781 18.617188 5.945312 12.785156 C 4.542969 6.503906 4.597656 -1.570312 6.054688 -10.542969 C 8.128906 -23.324219 14.128906 -41.4375 21.140625 -49.847656 C 23.214844 -52.3125 25.007812 -53.492188 26.074219 -52.929688 C 28.707031 -51.640625 29.773438 -40.933594 24 -14.972656 C 23.832031 -14.410156 24.222656 -13.847656 24.785156 -13.679688 C 25.398438 -13.570312 25.960938 -13.960938 26.074219 -14.523438 C 29.828125 -31.289062 33.027344 -51.921875 27.027344 -54.894531 C 25.570312 -55.621094 23.101562 -55.566406 19.511719 -51.25 C 15.027344 -45.867188 11.605469 -37.847656 9.53125 -32.015625 C 7.007812 -25.121094 4.992188 -17.382812 3.925781 -10.878906 C 0.785156 8.355469 4.148438 22.933594 12.222656 25.457031 C 13.007812 25.679688 13.847656 25.792969 14.691406 25.792969 C 23.550781 25.792969 34.820312 12.449219 46.035156 -11.605469 C 46.316406 -12.167969 46.089844 -12.785156 45.53125 -13.066406 Z M 45.53125 -13.066406"/></g><g id="p"><path d="M 20.296875 -12.167969 C 19.792969 -12.558594 19.121094 -12.449219 18.785156 -12 C 16.429688 -8.972656 12.558594 -6.449219 9.589844 -7.007812 C 9.644531 -7.402344 9.699219 -7.792969 9.699219 -8.1875 C 10.09375 -14.523438 8.128906 -15.8125 6.953125 -16.035156 C 5.605469 -16.316406 4.207031 -15.308594 3.53125 -13.625 C 3.253906 -13.738281 2.914062 -13.738281 2.636719 -13.511719 C 0.390625 -12.113281 -1.457031 -8.523438 -0.449219 -4.652344 C 0.222656 -2.355469 1.792969 -0.898438 3.867188 -0.898438 C 5.832031 -0.898438 7.90625 -2.355469 8.972656 -4.933594 C 12.894531 -4.09375 17.605469 -7.007812 20.464844 -10.652344 C 20.859375 -11.15625 20.746094 -11.832031 20.296875 -12.167969 Z M 3.925781 -3.027344 C 3.867188 -3.027344 3.867188 -3.027344 3.867188 -3.027344 C 2.46875 -3.082031 1.851562 -4.429688 1.683594 -5.214844 C 1.121094 -7.121094 1.570312 -9.757812 3.140625 -11.214844 C 3.253906 -9.308594 4.316406 -7.234375 7.007812 -5.773438 C 6.222656 -3.980469 4.878906 -3.027344 3.925781 -3.027344 Z M 7.570312 -8.296875 C 7.511719 -8.1875 7.511719 -8.074219 7.511719 -7.960938 C 5.382812 -9.363281 5.046875 -11.15625 5.4375 -12.558594 C 5.71875 -13.457031 6.28125 -13.90625 6.558594 -13.90625 C 6.839844 -13.847656 7.792969 -12.785156 7.570312 -8.296875 Z M 7.570312 -8.296875"/></g><g id="q"><path d="M 16.484375 -52.539062 C 16.09375 -53.042969 15.53125 -53.265625 14.972656 -53.210938 C 11.773438 -52.652344 8.355469 -40.707031 7.402344 -37.0625 C 4.597656 -26.351562 1.066406 -11.15625 -1.792969 2.46875 C -3.140625 8.914062 -4.207031 14.355469 -4.878906 18.277344 C -6 24.894531 -5.832031 25.738281 -4.765625 26.015625 C -4.652344 26.074219 -4.542969 26.074219 -4.429688 26.074219 C -3.421875 26.074219 -2.914062 24.726562 -2.410156 23.269531 C -2.242188 22.707031 -2.523438 22.09375 -3.082031 21.921875 C -3.140625 21.867188 -3.195312 21.867188 -3.253906 21.867188 C -2.074219 13.792969 2.746094 -9.699219 7.683594 -29.382812 C 7.683594 -29.4375 7.738281 -29.492188 7.792969 -29.550781 C 15.082031 -41.101562 17.941406 -50.296875 16.484375 -52.539062 Z M 9.589844 -36.949219 C 11.71875 -44.855469 13.625 -48.667969 14.632812 -50.238281 C 14.410156 -48.164062 13.175781 -43.679688 9.589844 -36.949219 Z M 9.589844 -36.949219"/></g><g id="r"><path d="M 24.953125 -12.839844 C 24.503906 -13.234375 23.832031 -13.175781 23.4375 -12.726562 C 19.007812 -7.625 12.054688 0.503906 10.933594 1.960938 C 10.597656 2.355469 10.261719 2.804688 9.925781 3.253906 C 9.476562 2.128906 8.914062 1.066406 8.1875 -0.0546875 C 5.496094 -4.207031 3.082031 -8.128906 3.195312 -10.878906 C 3.308594 -13.066406 4.429688 -14.972656 6.28125 -16.09375 C 7.792969 -16.988281 9.476562 -17.15625 10.765625 -16.539062 C 11.269531 -16.316406 11.941406 -16.539062 12.167969 -17.101562 C 12.449219 -17.605469 12.222656 -18.277344 11.664062 -18.503906 C 9.757812 -19.402344 7.289062 -19.175781 5.160156 -17.941406 C 2.691406 -16.429688 1.234375 -13.90625 1.066406 -10.988281 C 0.898438 -7.570312 3.363281 -3.476562 6.390625 1.121094 C 7.34375 2.578125 7.960938 3.980469 8.355469 5.328125 C 3.980469 11.269531 -0.730469 18.894531 1.683594 21.25 C 2.074219 21.644531 2.578125 21.8125 3.082031 21.8125 C 3.980469 21.8125 4.992188 21.363281 6.054688 20.523438 C 9.082031 18 12.222656 12.28125 10.710938 5.773438 C 11.328125 4.992188 11.941406 4.148438 12.617188 3.308594 C 13.738281 1.90625 20.691406 -6.222656 25.0625 -11.328125 C 25.457031 -11.773438 25.398438 -12.449219 24.953125 -12.839844 Z M 6.730469 16.484375 C 5.214844 18.726562 3.699219 19.625 3.195312 19.679688 C 2.972656 18.894531 3.699219 15.644531 8.914062 8.242188 C 9.140625 12.28125 7.457031 15.363281 6.730469 16.484375 Z M 6.730469 16.484375"/></g><clipPath id="a"><path d="M 9.75 12.75 L 357.75 12.75 L 357.75 360.75 L 9.75 360.75 Z M 9.75 12.75"/></clipPath><clipPath id="b"><path d="M 123.234375 51.195312 L 243.953125 51.195312 L 243.953125 171.90625 L 123.234375 171.90625 Z M 123.234375 51.195312"/></clipPath><clipPath id="i"><path d="M 255.96875 261.730469 L 265.71875 261.730469 L 265.71875 271.480469 L 255.96875 271.480469 Z M 255.96875 261.730469"/></clipPath></defs><g clip-path="url(#a)"><path fill="#747474" d="M 183.75 12.75 C 87.746094 12.75 9.75 90.746094 9.75 186.75 C 9.75 282.753906 87.746094 360.75 183.75 360.75 C 279.753906 360.75 357.75 282.753906 357.75 186.75 C 357.75 90.746094 279.753906 12.75 183.75 12.75 Z M 183.75 20.316406 C 275.765625 20.316406 350.183594 94.734375 350.183594 186.75 C 350.183594 278.765625 275.765625 353.183594 183.75 353.183594 C 91.734375 353.183594 17.316406 278.765625 17.316406 186.75 C 17.316406 94.734375 91.734375 20.316406 183.75 20.316406 Z M 183.75 20.316406"/></g><g clip-path="url(#b)"><path fill="#B58F65" d="M 126.023438 152.261719 L 172.851562 105.433594 L 181.261719 113.84375 L 182.894531 112.210938 L 174.484375 103.796875 L 171.277344 100.59375 C 171.148438 100.007812 170.945312 99.058594 170.828125 98.242188 L 170.828125 98.238281 C 170.542969 96.355469 170.40625 94.4375 170.40625 92.5 C 170.398438 81.683594 174.753906 70.429688 182.378906 62.804688 C 188.738281 56.441406 196.367188 53.515625 204.140625 53.511719 C 213.238281 53.511719 222.558594 57.5625 230.058594 65.050781 C 237.574219 72.558594 241.644531 81.886719 241.640625 91 C 241.632812 98.757812 238.71875 106.371094 232.382812 112.730469 C 224.753906 120.378906 213.484375 124.757812 202.648438 124.75 C 200.65625 124.75 198.671875 124.601562 196.730469 124.300781 C 195.992188 124.1875 195.152344 124.011719 194.621094 123.894531 L 191.386719 120.667969 L 190.59375 121.570312 L 184.257812 127.90625 L 172.878906 128.976562 L 171.804688 137.65625 L 169.890625 139.574219 L 161.195312 140.679688 L 160.164062 152.039062 L 157.605469 154.601562 L 146.195312 155.671875 L 145.140625 167.089844 L 143.015625 169.214844 L 125.605469 169.554688 Z M 123.234375 171.90625 L 143.988281 171.511719 L 147.367188 168.132812 L 148.320312 157.796875 L 158.65625 156.828125 L 162.390625 153.085938 L 163.328125 142.734375 L 170.96875 141.765625 L 174.007812 138.730469 L 174.945312 131.101562 L 185.304688 130.132812 L 191.445312 123.988281 L 193.457031 126 L 193.78125 126.074219 C 194.261719 126.1875 195.363281 126.429688 196.378906 126.585938 C 198.4375 126.90625 200.535156 127.0625 202.648438 127.0625 C 214.09375 127.058594 225.886719 122.496094 234.019531 114.363281 C 240.773438 107.605469 243.957031 99.339844 243.953125 91 C 243.953125 81.195312 239.585938 71.300781 231.691406 63.414062 C 223.8125 55.546875 213.933594 51.203125 204.140625 51.199219 C 195.78125 51.195312 187.503906 54.390625 180.742188 61.167969 C 172.636719 69.296875 168.101562 81.070312 168.09375 92.5 C 168.09375 94.546875 168.242188 96.582031 168.539062 98.582031 L 168.539062 98.59375 C 168.707031 99.699219 168.976562 100.921875 169.09375 101.425781 L 169.164062 101.75 L 171.214844 103.796875 L 123.734375 151.277344 L 123.234375 171.90625"/></g><path fill="#B58F65" d="M 168.546875 98.632812 L 168.539062 98.59375 C 168.539062 98.589844 168.539062 98.585938 168.539062 98.585938 L 168.546875 98.632812"/><path fill="#B58F65" d="M 214.191406 71.648438 C 215.386719 70.457031 217.015625 69.730469 218.835938 69.726562 C 220.652344 69.730469 222.285156 70.457031 223.480469 71.648438 C 224.667969 72.84375 225.398438 74.476562 225.398438 76.292969 C 225.398438 78.109375 224.667969 79.746094 223.480469 80.9375 C 222.285156 82.125 220.652344 82.859375 218.835938 82.859375 C 217.015625 82.859375 215.386719 82.125 214.191406 80.9375 C 213 79.746094 212.265625 78.109375 212.265625 76.292969 C 212.265625 74.476562 213 72.84375 214.191406 71.648438 Z M 218.835938 85.171875 C 223.738281 85.171875 227.710938 81.199219 227.710938 76.292969 C 227.710938 71.386719 223.738281 67.417969 218.835938 67.414062 C 213.929688 67.417969 209.957031 71.386719 209.957031 76.292969 C 209.957031 81.199219 213.929688 85.171875 218.835938 85.171875"/><g fill="#424347"><use x="112.394" y="281.025" xmlns:xlink="http://www.w3.org/1999/xlink" xlink:href="#c" xlink:type="simple" xlink:actuate="onLoad" xlink:show="embed"/></g><g fill="#424347"><use x="134.262" y="281.025" xmlns:xlink="http://www.w3.org/1999/xlink" xlink:href="#d" xlink:type="simple" xlink:actuate="onLoad" xlink:show="embed"/></g><g fill="#424347"><use x="154.91" y="281.025" xmlns:xlink="http://www.w3.org/1999/xlink" xlink:href="#e" xlink:type="simple" xlink:actuate="onLoad" xlink:show="embed"/></g><g fill="#424347"><use x="176.643" y="281.025" xmlns:xlink="http://www.w3.org/1999/xlink" xlink:href="#f" xlink:type="simple" xlink:actuate="onLoad" xlink:show="embed"/></g><g fill="#424347"><use x="195.481" y="281.025" xmlns:xlink="http://www.w3.org/1999/xlink" xlink:href="#g" xlink:type="simple" xlink:actuate="onLoad" xlink:show="embed"/></g><g fill="#424347"><use x="213.981" y="281.025" xmlns:xlink="http://www.w3.org/1999/xlink" xlink:href="#h" xlink:type="simple" xlink:actuate="onLoad" xlink:show="embed"/></g><g fill="#424347"><use x="238.472" y="281.025" xmlns:xlink="http://www.w3.org/1999/xlink" xlink:href="#c" xlink:type="simple" xlink:actuate="onLoad" xlink:show="embed"/></g><g clip-path="url(#i)"><path fill="#424347" d="M 260.84375 261.730469 C 258.15625 261.730469 255.96875 263.921875 255.96875 266.605469 C 255.96875 269.292969 258.15625 271.480469 260.84375 271.480469 C 263.527344 271.480469 265.71875 269.292969 265.71875 266.605469 C 265.71875 263.921875 263.527344 261.730469 260.84375 261.730469 Z M 260.84375 262.480469 C 263.125 262.480469 264.96875 264.324219 264.96875 266.605469 C 264.96875 268.890625 263.125 270.730469 260.84375 270.730469 C 258.558594 270.730469 256.71875 268.890625 256.71875 266.605469 C 256.71875 264.324219 258.558594 262.480469 260.84375 262.480469 Z M 258.96875 263.980469 L 258.96875 269.230469 L 259.71875 269.230469 L 259.71875 267.730469 L 260.65625 267.730469 L 261.761719 269.230469 L 262.695312 269.230469 L 261.492188 267.609375 C 262.203125 267.339844 262.71875 266.660156 262.71875 265.855469 C 262.71875 264.824219 261.875 263.980469 260.84375 263.980469 Z M 259.71875 264.730469 L 260.84375 264.730469 C 261.46875 264.730469 261.96875 265.230469 261.96875 265.855469 C 261.96875 266.484375 261.46875 266.980469 260.84375 266.980469 L 259.71875 266.980469 Z M 259.71875 264.730469"/></g><g fill="#424347"><use x="54.143" y="231.398" xmlns:xlink="http://www.w3.org/1999/xlink" xlink:href="#j" xlink:type="simple" xlink:actuate="onLoad" xlink:show="embed"/></g><g fill="#424347"><use x="106.734" y="231.398" xmlns:xlink="http://www.w3.org/1999/xlink" xlink:href="#k" xlink:type="simple" xlink:actuate="onLoad" xlink:show="embed"/></g><g fill="#424347"><use x="127.591" y="231.398" xmlns:xlink="http://www.w3.org/1999/xlink" xlink:href="#l" xlink:type="simple" xlink:actuate="onLoad" xlink:show="embed"/></g><g fill="#424347"><use x="149.962" y="231.398" xmlns:xlink="http://www.w3.org/1999/xlink" xlink:href="#k" xlink:type="simple" xlink:actuate="onLoad" xlink:show="embed"/></g><g fill="#424347"><use x="170.819" y="231.398" xmlns:xlink="http://www.w3.org/1999/xlink" xlink:href="#m" xlink:type="simple" xlink:actuate="onLoad" xlink:show="embed"/></g><g fill="#424347"><use x="194.984" y="231.398" xmlns:xlink="http://www.w3.org/1999/xlink" xlink:href="#n" xlink:type="simple" xlink:actuate="onLoad" xlink:show="embed"/></g><g fill="#424347"><use x="212.197" y="231.398" xmlns:xlink="http://www.w3.org/1999/xlink" xlink:href="#o" xlink:type="simple" xlink:actuate="onLoad" xlink:show="embed"/></g><g fill="#424347"><use x="255.481" y="231.398" xmlns:xlink="http://www.w3.org/1999/xlink" xlink:href="#p" xlink:type="simple" xlink:actuate="onLoad" xlink:show="embed"/></g><g fill="#424347"><use x="273.423" y="231.398" xmlns:xlink="http://www.w3.org/1999/xlink" xlink:href="#q" xlink:type="simple" xlink:actuate="onLoad" xlink:show="embed"/></g><g fill="#424347"><use x="281.945" y="231.398" xmlns:xlink="http://www.w3.org/1999/xlink" xlink:href="#q" xlink:type="simple" xlink:actuate="onLoad" xlink:show="embed"/></g><g fill="#424347"><use x="290.468" y="231.398" xmlns:xlink="http://www.w3.org/1999/xlink" xlink:href="#r" xlink:type="simple" xlink:actuate="onLoad" xlink:show="embed"/></g></svg>