<svg xmlns="http://www.w3.org/2000/svg" xmlns:xlink="http://www.w3.org/1999/xlink" width="1050" viewBox="0 0 1050 225" height="225" version="1.0"><defs><g id="m"><path d="M 12.78125 -46.671875 C 12.78125 -44.203125 13.363281 -42.070312 14.53125 -40.28125 C 15.707031 -38.488281 17.144531 -36.988281 18.84375 -35.78125 C 20.539062 -34.582031 22.90625 -33.085938 25.9375 -31.296875 C 29.144531 -29.390625 31.628906 -27.800781 33.390625 -26.53125 C 35.148438 -25.269531 36.660156 -23.648438 37.921875 -21.671875 C 39.191406 -19.691406 39.828125 -17.316406 39.828125 -14.546875 C 39.828125 -11.640625 39.113281 -9 37.6875 -6.625 C 36.269531 -4.25 34.15625 -2.363281 31.34375 -0.96875 C 28.539062 0.414062 25.097656 1.109375 21.015625 1.109375 C 18.859375 1.109375 16.804688 0.875 14.859375 0.40625 C 12.921875 -0.0507812 10.773438 -0.863281 8.421875 -2.03125 C 8.117188 -2.21875 7.921875 -2.4375 7.828125 -2.6875 C 7.734375 -2.9375 7.65625 -3.304688 7.59375 -3.796875 L 6.203125 -15.84375 L 6.203125 -15.921875 C 6.203125 -16.171875 6.351562 -16.3125 6.65625 -16.34375 C 6.96875 -16.375 7.15625 -16.265625 7.21875 -16.015625 C 7.84375 -11.753906 9.476562 -8.050781 12.125 -4.90625 C 14.78125 -1.757812 18.425781 -0.1875 23.0625 -0.1875 C 26.332031 -0.1875 29.09375 -1.082031 31.34375 -2.875 C 33.601562 -4.664062 34.734375 -7.472656 34.734375 -11.296875 C 34.734375 -14.078125 34.113281 -16.46875 32.875 -18.46875 C 31.644531 -20.476562 30.148438 -22.144531 28.390625 -23.46875 C 26.628906 -24.800781 24.234375 -26.363281 21.203125 -28.15625 C 18.242188 -29.882812 15.914062 -31.394531 14.21875 -32.6875 C 12.519531 -33.988281 11.066406 -35.609375 9.859375 -37.546875 C 8.660156 -39.492188 8.0625 -41.828125 8.0625 -44.546875 C 8.0625 -47.628906 8.847656 -50.25 10.421875 -52.40625 C 11.992188 -54.570312 14.046875 -56.195312 16.578125 -57.28125 C 19.109375 -58.363281 21.828125 -58.90625 24.734375 -58.90625 C 28.117188 -58.90625 31.632812 -58.160156 35.28125 -56.671875 C 36.207031 -56.304688 36.671875 -55.785156 36.671875 -55.109375 L 37.5 -45.28125 C 37.5 -45.039062 37.328125 -44.921875 36.984375 -44.921875 C 36.648438 -44.921875 36.453125 -45.039062 36.390625 -45.28125 C 36.148438 -48.5 34.945312 -51.375 32.78125 -53.90625 C 30.625 -56.4375 27.535156 -57.703125 23.515625 -57.703125 C 19.816406 -57.703125 17.101562 -56.617188 15.375 -54.453125 C 13.644531 -52.296875 12.78125 -49.703125 12.78125 -46.671875 Z M 12.78125 -46.671875"/></g><g id="n"><path d="M 64.265625 -1.109375 C 64.515625 -1.109375 64.640625 -0.921875 64.640625 -0.546875 C 64.640625 -0.179688 64.515625 0 64.265625 0 C 63.160156 0 61.375 -0.0625 58.90625 -0.1875 C 56.550781 -0.3125 54.820312 -0.375 53.71875 -0.375 C 52.414062 -0.375 50.71875 -0.3125 48.625 -0.1875 C 46.644531 -0.0625 45.160156 0 44.171875 0 C 43.921875 0 43.796875 -0.179688 43.796875 -0.546875 C 43.796875 -0.921875 43.921875 -1.109375 44.171875 -1.109375 C 46.703125 -1.109375 48.523438 -1.335938 49.640625 -1.796875 C 50.753906 -2.265625 51.3125 -3.054688 51.3125 -4.171875 C 51.3125 -5.035156 50.96875 -6.238281 50.28125 -7.78125 L 39.265625 -31.390625 L 21.578125 -31.390625 L 13.25 -11.390625 C 12.382812 -9.296875 11.953125 -7.566406 11.953125 -6.203125 C 11.953125 -4.410156 12.691406 -3.113281 14.171875 -2.3125 C 15.648438 -1.507812 17.960938 -1.109375 21.109375 -1.109375 C 21.421875 -1.109375 21.578125 -0.921875 21.578125 -0.546875 C 21.578125 -0.179688 21.421875 0 21.109375 0 C 20.003906 0 18.398438 -0.0625 16.296875 -0.1875 C 13.953125 -0.3125 11.914062 -0.375 10.1875 -0.375 C 8.644531 -0.375 6.820312 -0.3125 4.71875 -0.1875 C 2.863281 -0.0625 1.351562 0 0.1875 0 C -0.125 0 -0.28125 -0.179688 -0.28125 -0.546875 C -0.28125 -0.921875 -0.125 -1.109375 0.1875 -1.109375 C 1.914062 -1.109375 3.378906 -1.414062 4.578125 -2.03125 C 5.785156 -2.65625 6.925781 -3.769531 8 -5.375 C 9.082031 -6.976562 10.242188 -9.257812 11.484375 -12.21875 L 30.84375 -58.8125 C 30.96875 -58.988281 31.164062 -59.078125 31.4375 -59.078125 C 31.71875 -59.078125 31.890625 -58.988281 31.953125 -58.8125 L 53.4375 -12.6875 C 54.851562 -9.539062 56.117188 -7.148438 57.234375 -5.515625 C 58.347656 -3.878906 59.441406 -2.734375 60.515625 -2.078125 C 61.597656 -1.429688 62.847656 -1.109375 64.265625 -1.109375 Z M 22.3125 -33.15625 L 38.53125 -33.15625 L 29.90625 -51.484375 Z M 22.3125 -33.15625"/></g><g id="o"><path d="M 62.609375 -1.109375 C 62.785156 -1.109375 62.875 -0.921875 62.875 -0.546875 C 62.875 -0.179688 62.785156 0 62.609375 0 L 51.859375 0 C 50.253906 0 47.257812 -2.664062 42.875 -8 C 38.488281 -13.34375 33.179688 -20.738281 26.953125 -30.1875 C 25.097656 -29.695312 23.210938 -29.453125 21.296875 -29.453125 C 20.242188 -29.453125 18.914062 -29.515625 17.3125 -29.640625 L 17.3125 -7.5 C 17.3125 -5.582031 17.507812 -4.191406 17.90625 -3.328125 C 18.3125 -2.460938 19.070312 -1.875 20.1875 -1.5625 C 21.300781 -1.257812 23.09375 -1.109375 25.5625 -1.109375 C 25.75 -1.109375 25.84375 -0.921875 25.84375 -0.546875 C 25.84375 -0.179688 25.75 0 25.5625 0 C 23.707031 0 22.222656 -0.03125 21.109375 -0.09375 L 14.8125 -0.1875 L 8.703125 -0.09375 C 7.585938 -0.03125 6.046875 0 4.078125 0 C 3.953125 0 3.890625 -0.179688 3.890625 -0.546875 C 3.890625 -0.921875 3.953125 -1.109375 4.078125 -1.109375 C 6.546875 -1.109375 8.347656 -1.257812 9.484375 -1.5625 C 10.628906 -1.875 11.414062 -2.476562 11.84375 -3.375 C 12.28125 -4.269531 12.5 -5.644531 12.5 -7.5 L 12.5 -50.375 C 12.5 -52.226562 12.296875 -53.585938 11.890625 -54.453125 C 11.492188 -55.316406 10.722656 -55.914062 9.578125 -56.25 C 8.441406 -56.59375 6.671875 -56.765625 4.265625 -56.765625 C 4.078125 -56.765625 3.984375 -56.945312 3.984375 -57.3125 C 3.984375 -57.6875 4.078125 -57.875 4.265625 -57.875 L 8.703125 -57.78125 C 11.171875 -57.664062 13.207031 -57.609375 14.8125 -57.609375 C 15.925781 -57.609375 16.976562 -57.632812 17.96875 -57.6875 C 18.957031 -57.75 19.820312 -57.8125 20.5625 -57.875 C 22.476562 -58.0625 24.175781 -58.15625 25.65625 -58.15625 C 30.53125 -58.15625 34.265625 -57.132812 36.859375 -55.09375 C 39.453125 -53.0625 40.75 -50.222656 40.75 -46.578125 C 40.75 -43.617188 39.882812 -40.828125 38.15625 -38.203125 C 36.425781 -35.578125 34.140625 -33.492188 31.296875 -31.953125 C 36.671875 -24.046875 41.148438 -17.898438 44.734375 -13.515625 C 48.316406 -9.140625 51.507812 -5.976562 54.3125 -4.03125 C 57.125 -2.082031 59.890625 -1.109375 62.609375 -1.109375 Z M 17.3125 -31.859375 C 19.664062 -31.609375 21.519531 -31.484375 22.875 -31.484375 C 27.382812 -31.484375 30.625 -32.425781 32.59375 -34.3125 C 34.570312 -36.195312 35.5625 -39.238281 35.5625 -43.4375 C 35.5625 -48.125 34.460938 -51.546875 32.265625 -53.703125 C 30.078125 -55.867188 27.160156 -56.953125 23.515625 -56.953125 C 21.796875 -56.953125 20.53125 -56.828125 19.71875 -56.578125 C 18.914062 -56.335938 18.3125 -55.753906 17.90625 -54.828125 C 17.507812 -53.898438 17.3125 -52.351562 17.3125 -50.1875 Z M 17.3125 -31.859375"/></g><g id="p"><path d="M 66.671875 -1.109375 C 66.859375 -1.109375 66.953125 -0.921875 66.953125 -0.546875 C 66.953125 -0.179688 66.859375 0 66.671875 0 C 64.765625 0 63.285156 -0.03125 62.234375 -0.09375 L 56.03125 -0.1875 L 49.640625 -0.09375 C 48.585938 -0.03125 47.132812 0 45.28125 0 C 45.101562 0 45.015625 -0.179688 45.015625 -0.546875 C 45.015625 -0.921875 45.101562 -1.109375 45.28125 -1.109375 C 47.75 -1.109375 49.539062 -1.257812 50.65625 -1.5625 C 51.769531 -1.875 52.523438 -2.460938 52.921875 -3.328125 C 53.328125 -4.191406 53.53125 -5.582031 53.53125 -7.5 L 53.53125 -29.265625 L 16.578125 -29.265625 L 16.578125 -7.5 C 16.578125 -5.582031 16.773438 -4.191406 17.171875 -3.328125 C 17.578125 -2.460938 18.332031 -1.875 19.4375 -1.5625 C 20.550781 -1.257812 22.34375 -1.109375 24.8125 -1.109375 C 24.9375 -1.109375 25 -0.921875 25 -0.546875 C 25 -0.179688 24.9375 0 24.8125 0 C 22.96875 0 21.488281 -0.03125 20.375 -0.09375 L 14.078125 -0.1875 L 7.96875 -0.09375 C 6.851562 -0.03125 5.304688 0 3.328125 0 C 3.210938 0 3.15625 -0.179688 3.15625 -0.546875 C 3.15625 -0.921875 3.210938 -1.109375 3.328125 -1.109375 C 5.742188 -1.109375 7.519531 -1.257812 8.65625 -1.5625 C 9.800781 -1.875 10.585938 -2.476562 11.015625 -3.375 C 11.453125 -4.269531 11.671875 -5.644531 11.671875 -7.5 L 11.671875 -50.375 C 11.671875 -52.226562 11.46875 -53.585938 11.0625 -54.453125 C 10.664062 -55.316406 9.894531 -55.914062 8.75 -56.25 C 7.601562 -56.59375 5.828125 -56.765625 3.421875 -56.765625 C 3.296875 -56.765625 3.234375 -56.945312 3.234375 -57.3125 C 3.234375 -57.6875 3.296875 -57.875 3.421875 -57.875 L 7.96875 -57.78125 C 10.5625 -57.664062 12.597656 -57.609375 14.078125 -57.609375 C 15.742188 -57.609375 17.875 -57.664062 20.46875 -57.78125 L 24.8125 -57.875 C 24.9375 -57.875 25 -57.6875 25 -57.3125 C 25 -56.945312 24.9375 -56.765625 24.8125 -56.765625 C 22.40625 -56.765625 20.628906 -56.578125 19.484375 -56.203125 C 18.347656 -55.835938 17.578125 -55.207031 17.171875 -54.3125 C 16.773438 -53.414062 16.578125 -52.039062 16.578125 -50.1875 L 16.578125 -31.03125 L 53.53125 -31.03125 L 53.53125 -50.1875 C 53.53125 -52.039062 53.328125 -53.414062 52.921875 -54.3125 C 52.523438 -55.207031 51.753906 -55.835938 50.609375 -56.203125 C 49.460938 -56.578125 47.6875 -56.765625 45.28125 -56.765625 C 45.101562 -56.765625 45.015625 -56.945312 45.015625 -57.3125 C 45.015625 -57.6875 45.101562 -57.875 45.28125 -57.875 L 49.640625 -57.78125 C 52.234375 -57.664062 54.363281 -57.609375 56.03125 -57.609375 C 57.570312 -57.609375 59.640625 -57.664062 62.234375 -57.78125 L 66.671875 -57.875 C 66.859375 -57.875 66.953125 -57.6875 66.953125 -57.3125 C 66.953125 -56.945312 66.859375 -56.765625 66.671875 -56.765625 C 64.265625 -56.765625 62.488281 -56.59375 61.34375 -56.25 C 60.207031 -55.914062 59.421875 -55.316406 58.984375 -54.453125 C 58.554688 -53.585938 58.34375 -52.226562 58.34375 -50.375 L 58.34375 -7.5 C 58.34375 -5.644531 58.554688 -4.269531 58.984375 -3.375 C 59.421875 -2.476562 60.207031 -1.875 61.34375 -1.5625 C 62.488281 -1.257812 64.265625 -1.109375 66.671875 -1.109375 Z M 66.671875 -1.109375"/></g><g id="r"><path d="M 38.25 -58.90625 C 41.269531 -58.90625 44.304688 -58.59375 47.359375 -57.96875 C 50.421875 -57.351562 52.878906 -56.519531 54.734375 -55.46875 C 55.222656 -55.164062 55.546875 -54.875 55.703125 -54.59375 C 55.859375 -54.3125 55.96875 -53.863281 56.03125 -53.25 L 57.046875 -43.53125 C 57.046875 -43.34375 56.890625 -43.234375 56.578125 -43.203125 C 56.273438 -43.171875 56.09375 -43.25 56.03125 -43.4375 C 53.800781 -52.445312 46.671875 -56.953125 34.640625 -56.953125 C 29.816406 -56.953125 25.566406 -55.914062 21.890625 -53.84375 C 18.222656 -51.78125 15.367188 -48.863281 13.328125 -45.09375 C 11.296875 -41.332031 10.28125 -36.984375 10.28125 -32.046875 C 10.28125 -26.242188 11.546875 -20.882812 14.078125 -15.96875 C 16.609375 -11.0625 19.972656 -7.171875 24.171875 -4.296875 C 28.367188 -1.429688 32.90625 0 37.78125 0 C 42.351562 0 46.289062 -1.203125 49.59375 -3.609375 C 52.894531 -6.015625 55.316406 -9.6875 56.859375 -14.625 C 56.859375 -14.8125 56.984375 -14.90625 57.234375 -14.90625 C 57.421875 -14.90625 57.585938 -14.875 57.734375 -14.8125 C 57.890625 -14.75 57.96875 -14.660156 57.96875 -14.546875 L 56.671875 -4.625 C 56.546875 -3.882812 56.40625 -3.40625 56.25 -3.1875 C 56.101562 -2.976562 55.75 -2.75 55.1875 -2.5 C 49.695312 -0.09375 43.800781 1.109375 37.5 1.109375 C 30.09375 1.109375 23.921875 -0.382812 18.984375 -3.375 C 14.046875 -6.375 10.398438 -10.203125 8.046875 -14.859375 C 5.703125 -19.523438 4.53125 -24.421875 4.53125 -29.546875 C 4.53125 -35.160156 6.101562 -40.203125 9.25 -44.671875 C 12.40625 -49.148438 16.578125 -52.640625 21.765625 -55.140625 C 26.953125 -57.648438 32.445312 -58.90625 38.25 -58.90625 Z M 38.25 -58.90625"/></g><g id="s"><path d="M 33.890625 1.109375 C 28.148438 1.109375 23.039062 -0.234375 18.5625 -2.921875 C 14.09375 -5.609375 10.632812 -9.25 8.1875 -13.84375 C 5.75 -18.445312 4.53125 -23.460938 4.53125 -28.890625 C 4.53125 -35.253906 6.132812 -40.703125 9.34375 -45.234375 C 12.5625 -49.773438 16.6875 -53.1875 21.71875 -55.46875 C 26.75 -57.757812 31.890625 -58.90625 37.140625 -58.90625 C 43.003906 -58.90625 48.15625 -57.53125 52.59375 -54.78125 C 57.039062 -52.03125 60.453125 -48.398438 62.828125 -43.890625 C 65.210938 -39.390625 66.40625 -34.609375 66.40625 -29.546875 C 66.40625 -23.921875 64.921875 -18.757812 61.953125 -14.0625 C 58.992188 -9.375 55.023438 -5.671875 50.046875 -2.953125 C 45.078125 -0.242188 39.691406 1.109375 33.890625 1.109375 Z M 37.234375 -0.734375 C 41.609375 -0.734375 45.554688 -1.753906 49.078125 -3.796875 C 52.597656 -5.835938 55.375 -8.832031 57.40625 -12.78125 C 59.445312 -16.726562 60.46875 -21.453125 60.46875 -26.953125 C 60.46875 -32.753906 59.34375 -37.921875 57.09375 -42.453125 C 54.84375 -46.992188 51.660156 -50.53125 47.546875 -53.0625 C 43.441406 -55.59375 38.675781 -56.859375 33.25 -56.859375 C 26.082031 -56.859375 20.492188 -54.632812 16.484375 -50.1875 C 12.472656 -45.75 10.46875 -39.703125 10.46875 -32.046875 C 10.46875 -26.304688 11.59375 -21.039062 13.84375 -16.25 C 16.09375 -11.46875 19.253906 -7.6875 23.328125 -4.90625 C 27.410156 -2.125 32.046875 -0.734375 37.234375 -0.734375 Z M 37.234375 -0.734375"/></g><g id="t"><path d="M 16.484375 -7.875 C 16.484375 -6.082031 16.679688 -4.769531 17.078125 -3.9375 C 17.484375 -3.101562 18.226562 -2.53125 19.3125 -2.21875 C 20.394531 -1.914062 22.109375 -1.765625 24.453125 -1.765625 L 36.296875 -1.765625 C 42.410156 -1.765625 46.023438 -5.679688 47.140625 -13.515625 C 47.140625 -13.703125 47.304688 -13.78125 47.640625 -13.75 C 47.984375 -13.71875 48.15625 -13.609375 48.15625 -13.421875 C 47.601562 -8.546875 47.328125 -4.535156 47.328125 -1.390625 C 47.328125 -0.890625 47.234375 -0.53125 47.046875 -0.3125 C 46.859375 -0.101562 46.488281 0 45.9375 0 L 3.328125 0 C 3.210938 0 3.15625 -0.179688 3.15625 -0.546875 C 3.15625 -0.921875 3.210938 -1.109375 3.328125 -1.109375 C 5.742188 -1.109375 7.519531 -1.257812 8.65625 -1.5625 C 9.800781 -1.875 10.570312 -2.476562 10.96875 -3.375 C 11.375 -4.269531 11.578125 -5.644531 11.578125 -7.5 L 11.578125 -50.375 C 11.578125 -52.226562 11.375 -53.585938 10.96875 -54.453125 C 10.570312 -55.316406 9.800781 -55.914062 8.65625 -56.25 C 7.519531 -56.59375 5.742188 -56.765625 3.328125 -56.765625 C 3.210938 -56.765625 3.15625 -56.945312 3.15625 -57.3125 C 3.15625 -57.6875 3.210938 -57.875 3.328125 -57.875 L 7.875 -57.78125 C 10.46875 -57.664062 12.503906 -57.609375 13.984375 -57.609375 C 15.648438 -57.609375 17.78125 -57.664062 20.375 -57.78125 L 24.734375 -57.875 C 24.847656 -57.875 24.90625 -57.6875 24.90625 -57.3125 C 24.90625 -56.945312 24.847656 -56.765625 24.734375 -56.765625 C 22.316406 -56.765625 20.535156 -56.59375 19.390625 -56.25 C 18.253906 -55.914062 17.484375 -55.300781 17.078125 -54.40625 C 16.679688 -53.507812 16.484375 -52.132812 16.484375 -50.28125 Z M 16.484375 -7.875"/></g><g id="u"><path d="M 4.984375 -2.375 C 4.984375 -1.832031 5.039062 -1.4375 5.15625 -1.1875 C 5.28125 -0.9375 5.503906 -0.765625 5.828125 -0.671875 C 6.160156 -0.578125 6.679688 -0.53125 7.390625 -0.53125 L 10.96875 -0.53125 C 12.820312 -0.53125 13.914062 -1.71875 14.25 -4.09375 C 14.25 -4.144531 14.300781 -4.164062 14.40625 -4.15625 C 14.507812 -4.144531 14.5625 -4.113281 14.5625 -4.0625 C 14.394531 -2.582031 14.3125 -1.367188 14.3125 -0.421875 C 14.3125 -0.273438 14.28125 -0.164062 14.21875 -0.09375 C 14.164062 -0.03125 14.054688 0 13.890625 0 L 1.015625 0 C 0.972656 0 0.953125 -0.0546875 0.953125 -0.171875 C 0.953125 -0.285156 0.972656 -0.34375 1.015625 -0.34375 C 1.734375 -0.34375 2.265625 -0.382812 2.609375 -0.46875 C 2.960938 -0.5625 3.195312 -0.742188 3.3125 -1.015625 C 3.4375 -1.285156 3.5 -1.703125 3.5 -2.265625 L 3.5 -15.234375 C 3.5 -15.796875 3.4375 -16.207031 3.3125 -16.46875 C 3.195312 -16.726562 2.960938 -16.910156 2.609375 -17.015625 C 2.265625 -17.117188 1.734375 -17.171875 1.015625 -17.171875 C 0.972656 -17.171875 0.953125 -17.222656 0.953125 -17.328125 C 0.953125 -17.441406 0.972656 -17.5 1.015625 -17.5 L 2.375 -17.46875 C 3.164062 -17.4375 3.785156 -17.421875 4.234375 -17.421875 C 4.734375 -17.421875 5.375 -17.4375 6.15625 -17.46875 L 7.46875 -17.5 C 7.507812 -17.5 7.53125 -17.441406 7.53125 -17.328125 C 7.53125 -17.222656 7.507812 -17.171875 7.46875 -17.171875 C 6.75 -17.171875 6.210938 -17.117188 5.859375 -17.015625 C 5.515625 -16.910156 5.28125 -16.722656 5.15625 -16.453125 C 5.039062 -16.179688 4.984375 -15.765625 4.984375 -15.203125 Z M 4.984375 -2.375"/></g><g id="v"><path d="M 11.515625 -3.71875 C 11.515625 -3.78125 11.5625 -3.8125 11.65625 -3.8125 C 11.757812 -3.8125 11.8125 -3.78125 11.8125 -3.71875 C 11.6875 -2.375 11.625 -1.273438 11.625 -0.421875 C 11.625 -0.273438 11.59375 -0.164062 11.53125 -0.09375 C 11.476562 -0.03125 11.367188 0 11.203125 0 L 1.015625 0 C 0.972656 0 0.953125 -0.0546875 0.953125 -0.171875 C 0.953125 -0.285156 0.972656 -0.34375 1.015625 -0.34375 C 1.640625 -0.34375 2.101562 -0.382812 2.40625 -0.46875 C 2.707031 -0.5625 2.90625 -0.742188 3 -1.015625 C 3.101562 -1.285156 3.15625 -1.703125 3.15625 -2.265625 L 3.15625 -10.84375 C 3.15625 -11.394531 3.101562 -11.800781 3 -12.0625 C 2.90625 -12.320312 2.707031 -12.503906 2.40625 -12.609375 C 2.101562 -12.710938 1.640625 -12.765625 1.015625 -12.765625 C 0.972656 -12.765625 0.953125 -12.820312 0.953125 -12.9375 C 0.953125 -13.050781 0.972656 -13.109375 1.015625 -13.109375 L 10.703125 -13.109375 C 10.878906 -13.109375 10.96875 -13.03125 10.96875 -12.875 L 11 -11.140625 C 11.019531 -10.785156 11.03125 -10.335938 11.03125 -9.796875 C 11.03125 -9.742188 10.972656 -9.71875 10.859375 -9.71875 C 10.753906 -9.71875 10.703125 -9.742188 10.703125 -9.796875 C 10.703125 -10.671875 10.445312 -11.378906 9.9375 -11.921875 C 9.4375 -12.460938 8.773438 -12.734375 7.953125 -12.734375 L 7 -12.734375 C 6.289062 -12.734375 5.769531 -12.679688 5.4375 -12.578125 C 5.113281 -12.484375 4.890625 -12.300781 4.765625 -12.03125 C 4.648438 -11.769531 4.59375 -11.363281 4.59375 -10.8125 L 4.59375 -6.96875 C 6.5 -6.988281 7.785156 -7.035156 8.453125 -7.109375 C 9.128906 -7.179688 9.503906 -7.21875 9.578125 -7.21875 C 9.671875 -7.21875 9.71875 -7.023438 9.71875 -6.640625 C 9.71875 -6.222656 9.671875 -6.015625 9.578125 -6.015625 C 9.503906 -6.015625 9.128906 -6.070312 8.453125 -6.1875 C 7.785156 -6.300781 6.5 -6.367188 4.59375 -6.390625 L 4.59375 -2.375 C 4.59375 -1.832031 4.648438 -1.425781 4.765625 -1.15625 C 4.890625 -0.882812 5.117188 -0.695312 5.453125 -0.59375 C 5.796875 -0.5 6.3125 -0.453125 7 -0.453125 L 8.625 -0.453125 C 9.351562 -0.453125 9.976562 -0.753906 10.5 -1.359375 C 11.019531 -1.960938 11.359375 -2.75 11.515625 -3.71875 Z M 11.515625 -3.71875"/></g><g id="w"><path d="M 4.109375 -12.796875 C 3.328125 -12.796875 2.734375 -12.707031 2.328125 -12.53125 C 1.929688 -12.351562 1.640625 -12.035156 1.453125 -11.578125 C 1.265625 -11.117188 1.117188 -10.429688 1.015625 -9.515625 C 1.015625 -9.484375 0.960938 -9.46875 0.859375 -9.46875 C 0.753906 -9.46875 0.703125 -9.484375 0.703125 -9.515625 C 0.753906 -9.929688 0.8125 -10.609375 0.875 -11.546875 C 0.945312 -12.492188 0.984375 -13.21875 0.984375 -13.71875 C 0.984375 -13.8125 1.035156 -13.859375 1.140625 -13.859375 C 1.253906 -13.859375 1.3125 -13.8125 1.3125 -13.71875 C 1.3125 -13.476562 1.453125 -13.320312 1.734375 -13.25 C 2.015625 -13.1875 2.359375 -13.15625 2.765625 -13.15625 C 4.410156 -13.125 5.820312 -13.109375 7 -13.109375 L 9.4375 -13.125 C 9.769531 -13.144531 10.207031 -13.15625 10.75 -13.15625 C 11.425781 -13.15625 11.914062 -13.195312 12.21875 -13.28125 C 12.53125 -13.363281 12.734375 -13.546875 12.828125 -13.828125 C 12.859375 -13.890625 12.921875 -13.921875 13.015625 -13.921875 C 13.109375 -13.921875 13.15625 -13.890625 13.15625 -13.828125 C 13.039062 -11.816406 12.984375 -10.378906 12.984375 -9.515625 C 12.984375 -9.484375 12.929688 -9.46875 12.828125 -9.46875 C 12.734375 -9.46875 12.6875 -9.484375 12.6875 -9.515625 C 12.6875 -10.453125 12.613281 -11.144531 12.46875 -11.59375 C 12.332031 -12.039062 12.070312 -12.351562 11.6875 -12.53125 C 11.300781 -12.707031 10.707031 -12.796875 9.90625 -12.796875 C 9.289062 -12.796875 8.820312 -12.738281 8.5 -12.625 C 8.1875 -12.507812 7.96875 -12.316406 7.84375 -12.046875 C 7.726562 -11.773438 7.671875 -11.375 7.671875 -10.84375 L 7.671875 -2.265625 C 7.671875 -1.691406 7.726562 -1.269531 7.84375 -1 C 7.957031 -0.738281 8.1875 -0.5625 8.53125 -0.46875 C 8.875 -0.382812 9.414062 -0.34375 10.15625 -0.34375 C 10.195312 -0.34375 10.21875 -0.285156 10.21875 -0.171875 C 10.21875 -0.0546875 10.195312 0 10.15625 0 C 9.582031 0 9.132812 -0.0078125 8.8125 -0.03125 L 6.921875 -0.0625 L 5.09375 -0.03125 C 4.757812 -0.0078125 4.296875 0 3.703125 0 C 3.660156 0 3.640625 -0.0546875 3.640625 -0.171875 C 3.640625 -0.285156 3.660156 -0.34375 3.703125 -0.34375 C 4.421875 -0.34375 4.953125 -0.382812 5.296875 -0.46875 C 5.648438 -0.5625 5.890625 -0.742188 6.015625 -1.015625 C 6.148438 -1.285156 6.21875 -1.703125 6.21875 -2.265625 L 6.21875 -10.890625 C 6.21875 -11.453125 6.171875 -11.863281 6.078125 -12.125 C 5.984375 -12.382812 5.789062 -12.5625 5.5 -12.65625 C 5.207031 -12.75 4.742188 -12.796875 4.109375 -12.796875 Z M 4.109375 -12.796875"/></g><g id="x"><path d="M 1.3125 -17.046875 C 1.3125 -17.210938 1.460938 -17.378906 1.765625 -17.546875 C 2.078125 -17.722656 2.398438 -17.835938 2.734375 -17.890625 C 3.078125 -17.941406 3.238281 -17.925781 3.21875 -17.84375 L 1.8125 -10.25 C 1.800781 -10.207031 1.753906 -10.175781 1.671875 -10.15625 C 1.585938 -10.144531 1.546875 -10.164062 1.546875 -10.21875 Z M 1.3125 -17.046875"/></g><g id="y"><path d="M 3.109375 -10.78125 C 3.109375 -10.195312 3.25 -9.695312 3.53125 -9.28125 C 3.820312 -8.863281 4.179688 -8.515625 4.609375 -8.234375 C 5.046875 -7.953125 5.628906 -7.613281 6.359375 -7.21875 C 7.097656 -6.84375 7.691406 -6.5 8.140625 -6.1875 C 8.585938 -5.875 8.96875 -5.488281 9.28125 -5.03125 C 9.601562 -4.570312 9.765625 -4.015625 9.765625 -3.359375 C 9.765625 -2.316406 9.347656 -1.4375 8.515625 -0.71875 C 7.691406 -0.0078125 6.570312 0.34375 5.15625 0.34375 C 3.976562 0.34375 2.921875 0.0234375 1.984375 -0.609375 C 1.890625 -0.671875 1.828125 -0.738281 1.796875 -0.8125 C 1.773438 -0.882812 1.753906 -0.992188 1.734375 -1.140625 L 1.40625 -3.8125 C 1.382812 -3.882812 1.425781 -3.925781 1.53125 -3.9375 C 1.644531 -3.957031 1.710938 -3.929688 1.734375 -3.859375 C 1.941406 -2.773438 2.425781 -1.867188 3.1875 -1.140625 C 3.957031 -0.421875 4.816406 -0.0625 5.765625 -0.0625 C 6.441406 -0.0625 7.03125 -0.253906 7.53125 -0.640625 C 8.03125 -1.035156 8.28125 -1.648438 8.28125 -2.484375 C 8.28125 -3.109375 8.128906 -3.644531 7.828125 -4.09375 C 7.535156 -4.539062 7.175781 -4.914062 6.75 -5.21875 C 6.320312 -5.53125 5.753906 -5.875 5.046875 -6.25 C 4.296875 -6.65625 3.703125 -7.007812 3.265625 -7.3125 C 2.835938 -7.625 2.472656 -8.003906 2.171875 -8.453125 C 1.878906 -8.898438 1.734375 -9.441406 1.734375 -10.078125 C 1.734375 -11.140625 2.125 -11.960938 2.90625 -12.546875 C 3.695312 -13.140625 4.660156 -13.4375 5.796875 -13.4375 C 6.640625 -13.4375 7.515625 -13.222656 8.421875 -12.796875 C 8.597656 -12.703125 8.707031 -12.628906 8.75 -12.578125 C 8.789062 -12.535156 8.820312 -12.457031 8.84375 -12.34375 L 9.078125 -9.96875 C 9.078125 -9.894531 9.023438 -9.847656 8.921875 -9.828125 C 8.816406 -9.804688 8.753906 -9.832031 8.734375 -9.90625 C 8.609375 -10.726562 8.21875 -11.460938 7.5625 -12.109375 C 6.90625 -12.753906 6.148438 -13.078125 5.296875 -13.078125 C 4.597656 -13.078125 4.054688 -12.859375 3.671875 -12.421875 C 3.296875 -11.992188 3.109375 -11.445312 3.109375 -10.78125 Z M 3.109375 -10.78125"/></g><g id="A"><path d="M 20.109375 -13.109375 C 20.160156 -13.109375 20.1875 -13.050781 20.1875 -12.9375 C 20.1875 -12.820312 20.160156 -12.765625 20.109375 -12.765625 C 19.566406 -12.765625 19.113281 -12.628906 18.75 -12.359375 C 18.382812 -12.085938 18.050781 -11.582031 17.75 -10.84375 L 13.46875 -0.03125 C 13.445312 0.0390625 13.34375 0.078125 13.15625 0.078125 C 12.988281 0.078125 12.878906 0.0390625 12.828125 -0.03125 L 10.078125 -5.875 L 7.75 -0.03125 C 7.738281 0.0390625 7.640625 0.078125 7.453125 0.078125 C 7.265625 0.078125 7.160156 0.0390625 7.140625 -0.03125 L 2.078125 -10.78125 C 1.703125 -11.5625 1.375 -12.085938 1.09375 -12.359375 C 0.8125 -12.628906 0.425781 -12.765625 -0.0625 -12.765625 C -0.113281 -12.765625 -0.140625 -12.820312 -0.140625 -12.9375 C -0.140625 -13.050781 -0.113281 -13.109375 -0.0625 -13.109375 L 0.984375 -13.078125 C 1.429688 -13.035156 1.765625 -13.015625 1.984375 -13.015625 C 2.316406 -13.015625 2.726562 -13.035156 3.21875 -13.078125 L 4.03125 -13.109375 C 4.070312 -13.109375 4.09375 -13.050781 4.09375 -12.9375 C 4.09375 -12.820312 4.070312 -12.765625 4.03125 -12.765625 C 3.8125 -12.765625 3.617188 -12.695312 3.453125 -12.5625 C 3.296875 -12.4375 3.21875 -12.242188 3.21875 -11.984375 C 3.21875 -11.753906 3.300781 -11.445312 3.46875 -11.0625 L 8.015625 -1.703125 L 9.796875 -6.46875 L 7.75 -10.78125 C 7.363281 -11.601562 7.054688 -12.140625 6.828125 -12.390625 C 6.609375 -12.640625 6.265625 -12.765625 5.796875 -12.765625 C 5.753906 -12.765625 5.734375 -12.820312 5.734375 -12.9375 C 5.734375 -13.050781 5.753906 -13.109375 5.796875 -13.109375 L 6.71875 -13.078125 C 7.164062 -13.035156 7.492188 -13.015625 7.703125 -13.015625 C 7.992188 -13.015625 8.347656 -13.035156 8.765625 -13.078125 L 9.40625 -13.109375 C 9.445312 -13.109375 9.46875 -13.050781 9.46875 -12.9375 C 9.46875 -12.820312 9.445312 -12.765625 9.40625 -12.765625 C 9.101562 -12.765625 8.898438 -12.742188 8.796875 -12.703125 C 8.703125 -12.671875 8.65625 -12.585938 8.65625 -12.453125 C 8.65625 -12.253906 8.820312 -11.789062 9.15625 -11.0625 L 10.578125 -8.125 L 11.640625 -11 C 11.867188 -11.5625 11.984375 -11.972656 11.984375 -12.234375 C 11.984375 -12.421875 11.921875 -12.554688 11.796875 -12.640625 C 11.679688 -12.722656 11.492188 -12.765625 11.234375 -12.765625 C 11.191406 -12.765625 11.171875 -12.820312 11.171875 -12.9375 C 11.171875 -13.050781 11.191406 -13.109375 11.234375 -13.109375 C 11.398438 -13.109375 11.585938 -13.09375 11.796875 -13.0625 C 12.015625 -13.03125 12.21875 -13.015625 12.40625 -13.015625 C 12.71875 -13.015625 13.097656 -13.035156 13.546875 -13.078125 L 14.5625 -13.109375 C 14.613281 -13.109375 14.640625 -13.050781 14.640625 -12.9375 C 14.640625 -12.820312 14.613281 -12.765625 14.5625 -12.765625 C 14.019531 -12.765625 13.566406 -12.628906 13.203125 -12.359375 C 12.835938 -12.085938 12.503906 -11.582031 12.203125 -10.84375 L 10.890625 -7.46875 L 13.6875 -1.703125 L 17.1875 -11 C 17.320312 -11.320312 17.390625 -11.613281 17.390625 -11.875 C 17.390625 -12.46875 16.957031 -12.765625 16.09375 -12.765625 C 16.0625 -12.765625 16.046875 -12.820312 16.046875 -12.9375 C 16.046875 -13.050781 16.0625 -13.109375 16.09375 -13.109375 L 16.890625 -13.078125 C 17.253906 -13.035156 17.609375 -13.015625 17.953125 -13.015625 C 18.265625 -13.015625 18.644531 -13.035156 19.09375 -13.078125 Z M 20.109375 -13.109375"/></g><g id="B"><path d="M 7.703125 0.34375 C 6.390625 0.34375 5.222656 0.0351562 4.203125 -0.578125 C 3.191406 -1.203125 2.410156 -2.03125 1.859375 -3.0625 C 1.304688 -4.101562 1.03125 -5.226562 1.03125 -6.4375 C 1.03125 -7.894531 1.410156 -9.15625 2.171875 -10.21875 C 2.941406 -11.28125 3.910156 -12.082031 5.078125 -12.625 C 6.242188 -13.164062 7.4375 -13.4375 8.65625 -13.4375 C 9.957031 -13.4375 11.101562 -13.117188 12.09375 -12.484375 C 13.082031 -11.847656 13.84375 -11.015625 14.375 -9.984375 C 14.90625 -8.960938 15.171875 -7.894531 15.171875 -6.78125 C 15.171875 -5.507812 14.832031 -4.328125 14.15625 -3.234375 C 13.488281 -2.140625 12.582031 -1.269531 11.4375 -0.625 C 10.289062 0.0195312 9.046875 0.34375 7.703125 0.34375 Z M 8.453125 -0.21875 C 10.003906 -0.21875 11.238281 -0.726562 12.15625 -1.75 C 13.082031 -2.78125 13.546875 -4.210938 13.546875 -6.046875 C 13.546875 -7.296875 13.320312 -8.4375 12.875 -9.46875 C 12.425781 -10.507812 11.765625 -11.335938 10.890625 -11.953125 C 10.015625 -12.566406 8.960938 -12.875 7.734375 -12.875 C 6.117188 -12.875 4.867188 -12.359375 3.984375 -11.328125 C 3.097656 -10.304688 2.65625 -8.898438 2.65625 -7.109375 C 2.65625 -5.835938 2.882812 -4.679688 3.34375 -3.640625 C 3.800781 -2.597656 4.46875 -1.765625 5.34375 -1.140625 C 6.21875 -0.523438 7.253906 -0.21875 8.453125 -0.21875 Z M 8.453125 -0.21875"/></g><g id="C"><path d="M 15.03125 -0.34375 C 15.070312 -0.34375 15.09375 -0.285156 15.09375 -0.171875 C 15.09375 -0.0546875 15.070312 0 15.03125 0 L 12.09375 0 C 11.757812 0 11.144531 -0.554688 10.25 -1.671875 C 9.351562 -2.796875 8.28125 -4.347656 7.03125 -6.328125 C 6.539062 -6.253906 6.148438 -6.21875 5.859375 -6.21875 C 5.585938 -6.21875 5.175781 -6.234375 4.625 -6.265625 L 4.625 -2.265625 C 4.625 -1.691406 4.671875 -1.269531 4.765625 -1 C 4.867188 -0.738281 5.066406 -0.5625 5.359375 -0.46875 C 5.648438 -0.382812 6.125 -0.34375 6.78125 -0.34375 C 6.832031 -0.34375 6.859375 -0.285156 6.859375 -0.171875 C 6.859375 -0.0546875 6.832031 0 6.78125 0 C 6.269531 0 5.875 -0.0078125 5.59375 -0.03125 L 3.890625 -0.0625 L 2.265625 -0.03125 C 1.960938 -0.0078125 1.546875 0 1.015625 0 C 0.972656 0 0.953125 -0.0546875 0.953125 -0.171875 C 0.953125 -0.285156 0.972656 -0.34375 1.015625 -0.34375 C 1.660156 -0.34375 2.132812 -0.382812 2.4375 -0.46875 C 2.738281 -0.5625 2.941406 -0.742188 3.046875 -1.015625 C 3.160156 -1.285156 3.21875 -1.703125 3.21875 -2.265625 L 3.21875 -10.84375 C 3.21875 -11.394531 3.160156 -11.800781 3.046875 -12.0625 C 2.941406 -12.320312 2.738281 -12.503906 2.4375 -12.609375 C 2.132812 -12.710938 1.664062 -12.765625 1.03125 -12.765625 C 1 -12.765625 0.984375 -12.820312 0.984375 -12.9375 C 0.984375 -13.050781 1 -13.109375 1.03125 -13.109375 L 2.296875 -13.078125 C 2.960938 -13.035156 3.492188 -13.015625 3.890625 -13.015625 C 4.242188 -13.015625 4.5625 -13.023438 4.84375 -13.046875 C 5.125 -13.066406 5.359375 -13.085938 5.546875 -13.109375 C 6.117188 -13.160156 6.660156 -13.1875 7.171875 -13.1875 C 8.304688 -13.1875 9.175781 -12.953125 9.78125 -12.484375 C 10.394531 -12.015625 10.703125 -11.34375 10.703125 -10.46875 C 10.703125 -9.707031 10.488281 -9.007812 10.0625 -8.375 C 9.644531 -7.738281 9.082031 -7.222656 8.375 -6.828125 C 9.4375 -5.109375 10.328125 -3.789062 11.046875 -2.875 C 11.765625 -1.96875 12.429688 -1.316406 13.046875 -0.921875 C 13.660156 -0.535156 14.320312 -0.34375 15.03125 -0.34375 Z M 4.625 -6.796875 C 4.976562 -6.722656 5.453125 -6.6875 6.046875 -6.6875 C 7.222656 -6.6875 8.046875 -6.941406 8.515625 -7.453125 C 8.984375 -7.972656 9.21875 -8.726562 9.21875 -9.71875 C 9.21875 -11.789062 8.28125 -12.828125 6.40625 -12.828125 C 5.664062 -12.828125 5.179688 -12.664062 4.953125 -12.34375 C 4.734375 -12.03125 4.625 -11.507812 4.625 -10.78125 Z M 4.625 -6.796875"/></g><g id="D"><path d="M 14.734375 -0.34375 C 14.785156 -0.34375 14.8125 -0.285156 14.8125 -0.171875 C 14.8125 -0.0546875 14.785156 0 14.734375 0 L 11.984375 0 C 11.367188 0 11.015625 -0.0234375 10.921875 -0.078125 C 10.828125 -0.140625 10.554688 -0.539062 10.109375 -1.28125 C 9.660156 -2.03125 9 -2.957031 8.125 -4.0625 L 5.875 -6.890625 L 4.625 -5.6875 L 4.625 -2.265625 C 4.625 -1.691406 4.671875 -1.269531 4.765625 -1 C 4.867188 -0.738281 5.066406 -0.5625 5.359375 -0.46875 C 5.648438 -0.382812 6.125 -0.34375 6.78125 -0.34375 C 6.832031 -0.34375 6.859375 -0.285156 6.859375 -0.171875 C 6.859375 -0.0546875 6.832031 0 6.78125 0 C 6.269531 0 5.875 -0.0078125 5.59375 -0.03125 L 3.890625 -0.0625 L 2.234375 -0.03125 C 1.941406 -0.0078125 1.535156 0 1.015625 0 C 0.972656 0 0.953125 -0.0546875 0.953125 -0.171875 C 0.953125 -0.285156 0.972656 -0.34375 1.015625 -0.34375 C 1.660156 -0.34375 2.132812 -0.382812 2.4375 -0.46875 C 2.738281 -0.5625 2.941406 -0.742188 3.046875 -1.015625 C 3.160156 -1.285156 3.21875 -1.703125 3.21875 -2.265625 L 3.21875 -10.84375 C 3.21875 -11.394531 3.160156 -11.800781 3.046875 -12.0625 C 2.941406 -12.320312 2.738281 -12.503906 2.4375 -12.609375 C 2.132812 -12.710938 1.664062 -12.765625 1.03125 -12.765625 C 1 -12.765625 0.984375 -12.820312 0.984375 -12.9375 C 0.984375 -13.050781 1 -13.109375 1.03125 -13.109375 L 2.265625 -13.078125 C 2.941406 -13.035156 3.484375 -13.015625 3.890625 -13.015625 C 4.359375 -13.015625 4.925781 -13.035156 5.59375 -13.078125 L 6.78125 -13.109375 C 6.832031 -13.109375 6.859375 -13.050781 6.859375 -12.9375 C 6.859375 -12.820312 6.832031 -12.765625 6.78125 -12.765625 C 6.164062 -12.765625 5.707031 -12.707031 5.40625 -12.59375 C 5.101562 -12.488281 4.894531 -12.300781 4.78125 -12.03125 C 4.675781 -11.757812 4.625 -11.34375 4.625 -10.78125 L 4.625 -6.265625 L 9.328125 -11 C 10.066406 -11.707031 10.4375 -12.175781 10.4375 -12.40625 C 10.4375 -12.53125 10.328125 -12.617188 10.109375 -12.671875 C 9.898438 -12.734375 9.535156 -12.765625 9.015625 -12.765625 C 8.960938 -12.765625 8.9375 -12.820312 8.9375 -12.9375 C 8.9375 -13.050781 8.960938 -13.109375 9.015625 -13.109375 L 10.03125 -13.078125 C 10.582031 -13.035156 11.175781 -13.015625 11.8125 -13.015625 C 12.507812 -13.015625 13.15625 -13.035156 13.75 -13.078125 C 13.894531 -13.097656 14.082031 -13.109375 14.3125 -13.109375 C 14.363281 -13.109375 14.390625 -13.050781 14.390625 -12.9375 C 14.390625 -12.820312 14.363281 -12.765625 14.3125 -12.765625 C 13.695312 -12.765625 12.984375 -12.613281 12.171875 -12.3125 C 11.367188 -12.019531 10.613281 -11.53125 9.90625 -10.84375 L 6.859375 -7.84375 L 8.6875 -5.546875 C 10.132812 -3.679688 11.117188 -2.445312 11.640625 -1.84375 C 12.171875 -1.25 12.640625 -0.847656 13.046875 -0.640625 C 13.453125 -0.441406 14.015625 -0.34375 14.734375 -0.34375 Z M 14.734375 -0.34375"/></g><g id="E"><path d="M 8.34375 0.34375 C 6.851562 0.34375 5.550781 0.03125 4.4375 -0.59375 C 3.320312 -1.226562 2.472656 -2.054688 1.890625 -3.078125 C 1.316406 -4.109375 1.03125 -5.191406 1.03125 -6.328125 C 1.03125 -7.785156 1.363281 -9.050781 2.03125 -10.125 C 2.695312 -11.195312 3.632812 -12.015625 4.84375 -12.578125 C 6.050781 -13.148438 7.46875 -13.4375 9.09375 -13.4375 C 9.882812 -13.4375 10.625 -13.359375 11.3125 -13.203125 C 12 -13.054688 12.585938 -12.847656 13.078125 -12.578125 C 13.171875 -12.515625 13.234375 -12.4375 13.265625 -12.34375 C 13.304688 -12.25 13.335938 -12.117188 13.359375 -11.953125 L 13.65625 -9.328125 C 13.65625 -9.265625 13.601562 -9.226562 13.5 -9.21875 C 13.40625 -9.21875 13.347656 -9.242188 13.328125 -9.296875 C 12.972656 -10.640625 12.390625 -11.601562 11.578125 -12.1875 C 10.765625 -12.78125 9.710938 -13.078125 8.421875 -13.078125 C 6.710938 -13.078125 5.332031 -12.5 4.28125 -11.34375 C 3.238281 -10.195312 2.71875 -8.644531 2.71875 -6.6875 C 2.71875 -5.382812 2.972656 -4.226562 3.484375 -3.21875 C 3.992188 -2.207031 4.722656 -1.421875 5.671875 -0.859375 C 6.628906 -0.304688 7.742188 -0.03125 9.015625 -0.03125 C 10.023438 -0.03125 10.757812 -0.117188 11.21875 -0.296875 C 11.675781 -0.472656 11.984375 -0.796875 12.140625 -1.265625 C 12.296875 -1.742188 12.375 -2.5 12.375 -3.53125 C 12.375 -4.007812 12.316406 -4.347656 12.203125 -4.546875 C 12.097656 -4.742188 11.867188 -4.875 11.515625 -4.9375 C 11.171875 -5.007812 10.5625 -5.046875 9.6875 -5.046875 C 9.570312 -5.046875 9.515625 -5.117188 9.515625 -5.265625 C 9.515625 -5.316406 9.53125 -5.363281 9.5625 -5.40625 C 9.59375 -5.457031 9.625 -5.484375 9.65625 -5.484375 C 10.625 -5.410156 11.601562 -5.375 12.59375 -5.375 C 13.039062 -5.375 13.789062 -5.394531 14.84375 -5.4375 C 14.875 -5.4375 14.90625 -5.410156 14.9375 -5.359375 C 14.96875 -5.316406 14.984375 -5.273438 14.984375 -5.234375 C 14.984375 -5.109375 14.9375 -5.046875 14.84375 -5.046875 C 14.445312 -5.054688 14.171875 -5.023438 14.015625 -4.953125 C 13.867188 -4.878906 13.769531 -4.722656 13.71875 -4.484375 C 13.675781 -4.253906 13.65625 -3.84375 13.65625 -3.25 C 13.65625 -2.40625 13.675781 -1.816406 13.71875 -1.484375 C 13.757812 -1.148438 13.78125 -0.914062 13.78125 -0.78125 C 13.78125 -0.664062 13.765625 -0.59375 13.734375 -0.5625 C 13.703125 -0.539062 13.613281 -0.503906 13.46875 -0.453125 C 12.269531 0.078125 10.5625 0.34375 8.34375 0.34375 Z M 8.34375 0.34375"/></g><g id="F"><path d="M 16.359375 -0.34375 C 16.390625 -0.34375 16.40625 -0.285156 16.40625 -0.171875 C 16.40625 -0.0546875 16.390625 0 16.359375 0 C 15.828125 0 15.414062 -0.0078125 15.125 -0.03125 L 13.46875 -0.0625 L 11.765625 -0.03125 C 11.484375 -0.0078125 11.085938 0 10.578125 0 C 10.523438 0 10.5 -0.0546875 10.5 -0.171875 C 10.5 -0.285156 10.523438 -0.34375 10.578125 -0.34375 C 11.210938 -0.34375 11.679688 -0.382812 11.984375 -0.46875 C 12.285156 -0.5625 12.484375 -0.742188 12.578125 -1.015625 C 12.679688 -1.285156 12.734375 -1.703125 12.734375 -2.265625 L 12.734375 -6.390625 L 4.625 -6.390625 L 4.625 -2.265625 C 4.625 -1.691406 4.671875 -1.269531 4.765625 -1 C 4.867188 -0.738281 5.066406 -0.5625 5.359375 -0.46875 C 5.648438 -0.382812 6.125 -0.34375 6.78125 -0.34375 C 6.832031 -0.34375 6.859375 -0.285156 6.859375 -0.171875 C 6.859375 -0.0546875 6.832031 0 6.78125 0 C 6.269531 0 5.875 -0.0078125 5.59375 -0.03125 L 3.890625 -0.0625 L 2.234375 -0.03125 C 1.941406 -0.0078125 1.535156 0 1.015625 0 C 0.972656 0 0.953125 -0.0546875 0.953125 -0.171875 C 0.953125 -0.285156 0.972656 -0.34375 1.015625 -0.34375 C 1.660156 -0.34375 2.132812 -0.382812 2.4375 -0.46875 C 2.738281 -0.5625 2.941406 -0.742188 3.046875 -1.015625 C 3.160156 -1.285156 3.21875 -1.703125 3.21875 -2.265625 L 3.21875 -10.84375 C 3.21875 -11.394531 3.160156 -11.800781 3.046875 -12.0625 C 2.941406 -12.320312 2.738281 -12.503906 2.4375 -12.609375 C 2.132812 -12.710938 1.664062 -12.765625 1.03125 -12.765625 C 1 -12.765625 0.984375 -12.820312 0.984375 -12.9375 C 0.984375 -13.050781 1 -13.109375 1.03125 -13.109375 L 2.265625 -13.078125 C 2.941406 -13.035156 3.484375 -13.015625 3.890625 -13.015625 C 4.359375 -13.015625 4.925781 -13.035156 5.59375 -13.078125 L 6.78125 -13.109375 C 6.832031 -13.109375 6.859375 -13.050781 6.859375 -12.9375 C 6.859375 -12.820312 6.832031 -12.765625 6.78125 -12.765625 C 6.164062 -12.765625 5.707031 -12.707031 5.40625 -12.59375 C 5.101562 -12.488281 4.894531 -12.300781 4.78125 -12.03125 C 4.675781 -11.757812 4.625 -11.34375 4.625 -10.78125 L 4.625 -6.828125 L 12.734375 -6.828125 L 12.734375 -10.78125 C 12.734375 -11.34375 12.679688 -11.757812 12.578125 -12.03125 C 12.484375 -12.300781 12.285156 -12.488281 11.984375 -12.59375 C 11.679688 -12.707031 11.210938 -12.765625 10.578125 -12.765625 C 10.523438 -12.765625 10.5 -12.820312 10.5 -12.9375 C 10.5 -13.050781 10.523438 -13.109375 10.578125 -13.109375 L 11.765625 -13.078125 C 12.472656 -13.035156 13.039062 -13.015625 13.46875 -13.015625 C 13.863281 -13.015625 14.414062 -13.035156 15.125 -13.078125 L 16.359375 -13.109375 C 16.390625 -13.109375 16.40625 -13.050781 16.40625 -12.9375 C 16.40625 -12.820312 16.390625 -12.765625 16.359375 -12.765625 C 15.703125 -12.765625 15.222656 -12.710938 14.921875 -12.609375 C 14.617188 -12.503906 14.410156 -12.320312 14.296875 -12.0625 C 14.191406 -11.800781 14.140625 -11.394531 14.140625 -10.84375 L 14.140625 -2.265625 C 14.140625 -1.703125 14.191406 -1.285156 14.296875 -1.015625 C 14.410156 -0.742188 14.617188 -0.5625 14.921875 -0.46875 C 15.222656 -0.382812 15.703125 -0.34375 16.359375 -0.34375 Z M 16.359375 -0.34375"/></g><g id="G"><path d="M 11 -11.140625 C 11.019531 -10.785156 11.03125 -10.335938 11.03125 -9.796875 C 11.03125 -9.742188 10.972656 -9.71875 10.859375 -9.71875 C 10.753906 -9.71875 10.703125 -9.742188 10.703125 -9.796875 C 10.703125 -10.671875 10.445312 -11.378906 9.9375 -11.921875 C 9.4375 -12.460938 8.773438 -12.734375 7.953125 -12.734375 L 7 -12.734375 C 6.289062 -12.734375 5.769531 -12.679688 5.4375 -12.578125 C 5.113281 -12.484375 4.890625 -12.300781 4.765625 -12.03125 C 4.648438 -11.769531 4.59375 -11.363281 4.59375 -10.8125 L 4.59375 -6.640625 C 6.5 -6.648438 7.785156 -6.695312 8.453125 -6.78125 C 9.128906 -6.875 9.503906 -6.921875 9.578125 -6.921875 C 9.671875 -6.921875 9.71875 -6.722656 9.71875 -6.328125 C 9.71875 -5.921875 9.671875 -5.71875 9.578125 -5.71875 C 9.503906 -5.71875 9.128906 -5.765625 8.453125 -5.859375 C 7.785156 -5.960938 6.5 -6.023438 4.59375 -6.046875 L 4.59375 -2.375 C 4.59375 -1.78125 4.660156 -1.347656 4.796875 -1.078125 C 4.941406 -0.804688 5.203125 -0.613281 5.578125 -0.5 C 5.960938 -0.394531 6.578125 -0.34375 7.421875 -0.34375 C 7.472656 -0.34375 7.5 -0.285156 7.5 -0.171875 C 7.5 -0.0546875 7.472656 0 7.421875 0 C 6.765625 0 6.257812 -0.0078125 5.90625 -0.03125 L 3.859375 -0.0625 C 3.222656 -0.0625 2.75 -0.0507812 2.4375 -0.03125 L 1.015625 0 C 0.972656 0 0.953125 -0.0546875 0.953125 -0.171875 C 0.953125 -0.285156 0.972656 -0.34375 1.015625 -0.34375 C 1.640625 -0.34375 2.101562 -0.382812 2.40625 -0.46875 C 2.707031 -0.5625 2.90625 -0.742188 3 -1.015625 C 3.101562 -1.285156 3.15625 -1.703125 3.15625 -2.265625 L 3.15625 -10.84375 C 3.15625 -11.394531 3.101562 -11.800781 3 -12.0625 C 2.90625 -12.320312 2.707031 -12.503906 2.40625 -12.609375 C 2.101562 -12.710938 1.640625 -12.765625 1.015625 -12.765625 C 0.972656 -12.765625 0.953125 -12.820312 0.953125 -12.9375 C 0.953125 -13.050781 0.972656 -13.109375 1.015625 -13.109375 L 10.703125 -13.109375 C 10.878906 -13.109375 10.96875 -13.03125 10.96875 -12.875 Z M 11 -11.140625"/></g><g id="H"><path d="M 4.8125 -2.265625 C 4.8125 -1.691406 4.863281 -1.269531 4.96875 -1 C 5.070312 -0.738281 5.265625 -0.5625 5.546875 -0.46875 C 5.835938 -0.382812 6.3125 -0.34375 6.96875 -0.34375 C 7.03125 -0.34375 7.0625 -0.285156 7.0625 -0.171875 C 7.0625 -0.0546875 7.03125 0 6.96875 0 C 6.46875 0 6.078125 -0.0078125 5.796875 -0.03125 L 4.0625 -0.0625 L 2.40625 -0.03125 C 2.101562 -0.0078125 1.691406 0 1.171875 0 C 1.140625 0 1.125 -0.0546875 1.125 -0.171875 C 1.125 -0.285156 1.140625 -0.34375 1.171875 -0.34375 C 1.828125 -0.34375 2.300781 -0.382812 2.59375 -0.46875 C 2.894531 -0.5625 3.097656 -0.742188 3.203125 -1.015625 C 3.304688 -1.285156 3.359375 -1.703125 3.359375 -2.265625 L 3.359375 -10.84375 C 3.359375 -11.394531 3.304688 -11.800781 3.203125 -12.0625 C 3.097656 -12.320312 2.890625 -12.503906 2.578125 -12.609375 C 2.273438 -12.710938 1.804688 -12.765625 1.171875 -12.765625 C 1.140625 -12.765625 1.125 -12.820312 1.125 -12.9375 C 1.125 -13.050781 1.140625 -13.109375 1.171875 -13.109375 L 2.40625 -13.078125 C 3.113281 -13.035156 3.664062 -13.015625 4.0625 -13.015625 C 4.53125 -13.015625 5.117188 -13.035156 5.828125 -13.078125 L 6.96875 -13.109375 C 7.03125 -13.109375 7.0625 -13.050781 7.0625 -12.9375 C 7.0625 -12.820312 7.03125 -12.765625 6.96875 -12.765625 C 6.351562 -12.765625 5.894531 -12.707031 5.59375 -12.59375 C 5.300781 -12.488281 5.097656 -12.300781 4.984375 -12.03125 C 4.867188 -11.757812 4.8125 -11.34375 4.8125 -10.78125 Z M 4.8125 -2.265625"/></g><g id="I"><path d="M 15.03125 -13.109375 C 15.070312 -13.109375 15.09375 -13.050781 15.09375 -12.9375 C 15.09375 -12.820312 15.070312 -12.765625 15.03125 -12.765625 C 14.34375 -12.765625 13.859375 -12.570312 13.578125 -12.1875 C 13.296875 -11.8125 13.15625 -11.144531 13.15625 -10.1875 L 13.15625 0.3125 C 13.15625 0.34375 13.109375 0.367188 13.015625 0.390625 C 12.921875 0.410156 12.859375 0.398438 12.828125 0.359375 L 3.8125 -10.8125 L 3.328125 -11.375 L 3.328125 -2.90625 C 3.328125 -1.957031 3.460938 -1.289062 3.734375 -0.90625 C 4.003906 -0.53125 4.476562 -0.34375 5.15625 -0.34375 C 5.1875 -0.34375 5.203125 -0.285156 5.203125 -0.171875 C 5.203125 -0.0546875 5.1875 0 5.15625 0 C 4.738281 0 4.429688 -0.0078125 4.234375 -0.03125 L 3.078125 -0.0625 L 1.90625 -0.03125 C 1.675781 -0.0078125 1.359375 0 0.953125 0 C 0.898438 0 0.875 -0.0546875 0.875 -0.171875 C 0.875 -0.285156 0.898438 -0.34375 0.953125 -0.34375 C 1.640625 -0.34375 2.113281 -0.53125 2.375 -0.90625 C 2.632812 -1.289062 2.765625 -1.957031 2.765625 -2.90625 L 2.765625 -11.921875 C 2.148438 -12.484375 1.566406 -12.765625 1.015625 -12.765625 C 0.972656 -12.765625 0.953125 -12.820312 0.953125 -12.9375 C 0.953125 -13.050781 0.972656 -13.109375 1.015625 -13.109375 L 2.578125 -13.078125 L 3.78125 -13.109375 C 3.925781 -13.109375 4.03125 -13.070312 4.09375 -13 C 4.164062 -12.9375 4.265625 -12.796875 4.390625 -12.578125 C 4.597656 -12.234375 4.816406 -11.921875 5.046875 -11.640625 L 12.59375 -2.15625 L 12.59375 -10.1875 C 12.59375 -11.144531 12.460938 -11.8125 12.203125 -12.1875 C 11.941406 -12.570312 11.476562 -12.765625 10.8125 -12.765625 C 10.75 -12.765625 10.71875 -12.820312 10.71875 -12.9375 C 10.71875 -13.050781 10.75 -13.109375 10.8125 -13.109375 L 11.734375 -13.078125 C 12.179688 -13.035156 12.5625 -13.015625 12.875 -13.015625 C 13.175781 -13.015625 13.570312 -13.035156 14.0625 -13.078125 Z M 15.03125 -13.109375"/></g><g id="J"><path d="M 7.640625 0.109375 C 7.117188 0.109375 6.53125 0.0820312 5.875 0.03125 C 5.65625 0.0078125 5.375 -0.0078125 5.03125 -0.03125 C 4.695312 -0.0507812 4.316406 -0.0625 3.890625 -0.0625 L 2.234375 -0.03125 C 1.941406 -0.0078125 1.535156 0 1.015625 0 C 0.972656 0 0.953125 -0.0546875 0.953125 -0.171875 C 0.953125 -0.285156 0.972656 -0.34375 1.015625 -0.34375 C 1.660156 -0.34375 2.132812 -0.382812 2.4375 -0.46875 C 2.738281 -0.5625 2.941406 -0.742188 3.046875 -1.015625 C 3.160156 -1.285156 3.21875 -1.703125 3.21875 -2.265625 L 3.21875 -10.84375 C 3.21875 -11.394531 3.160156 -11.800781 3.046875 -12.0625 C 2.941406 -12.320312 2.738281 -12.503906 2.4375 -12.609375 C 2.132812 -12.710938 1.664062 -12.765625 1.03125 -12.765625 C 1 -12.765625 0.984375 -12.820312 0.984375 -12.9375 C 0.984375 -13.050781 1 -13.109375 1.03125 -13.109375 L 2.265625 -13.078125 C 2.941406 -13.035156 3.484375 -13.015625 3.890625 -13.015625 C 4.472656 -13.015625 5.050781 -13.046875 5.625 -13.109375 C 6.375 -13.140625 6.9375 -13.15625 7.3125 -13.15625 C 8.875 -13.15625 10.222656 -12.875 11.359375 -12.3125 C 12.503906 -11.757812 13.375 -10.988281 13.96875 -10 C 14.570312 -9.007812 14.875 -7.890625 14.875 -6.640625 C 14.875 -5.347656 14.5625 -4.1875 13.9375 -3.15625 C 13.320312 -2.132812 12.46875 -1.332031 11.375 -0.75 C 10.289062 -0.175781 9.046875 0.109375 7.640625 0.109375 Z M 7.3125 -0.21875 C 9.132812 -0.21875 10.5625 -0.742188 11.59375 -1.796875 C 12.632812 -2.859375 13.15625 -4.367188 13.15625 -6.328125 C 13.15625 -8.210938 12.648438 -9.765625 11.640625 -10.984375 C 10.640625 -12.210938 9.117188 -12.828125 7.078125 -12.828125 C 6.171875 -12.828125 5.535156 -12.675781 5.171875 -12.375 C 4.804688 -12.070312 4.625 -11.539062 4.625 -10.78125 L 4.625 -2.578125 C 4.625 -1.710938 4.804688 -1.101562 5.171875 -0.75 C 5.535156 -0.394531 6.25 -0.21875 7.3125 -0.21875 Z M 7.3125 -0.21875"/></g><g id="K"><path d="M 13.359375 -13.109375 C 13.410156 -13.109375 13.4375 -13.050781 13.4375 -12.9375 C 13.4375 -12.820312 13.410156 -12.765625 13.359375 -12.765625 C 12.742188 -12.765625 12.132812 -12.546875 11.53125 -12.109375 C 10.9375 -11.671875 10.394531 -11.050781 9.90625 -10.25 L 7.59375 -6.40625 L 7.59375 -2.265625 C 7.59375 -1.691406 7.648438 -1.269531 7.765625 -1 C 7.890625 -0.738281 8.117188 -0.5625 8.453125 -0.46875 C 8.785156 -0.382812 9.328125 -0.34375 10.078125 -0.34375 C 10.128906 -0.34375 10.15625 -0.285156 10.15625 -0.171875 C 10.15625 -0.0546875 10.128906 0 10.078125 0 C 9.515625 0 9.078125 -0.0078125 8.765625 -0.03125 L 6.890625 -0.0625 L 5.0625 -0.03125 C 4.726562 -0.0078125 4.265625 0 3.671875 0 C 3.609375 0 3.578125 -0.0546875 3.578125 -0.171875 C 3.578125 -0.285156 3.609375 -0.34375 3.671875 -0.34375 C 4.398438 -0.34375 4.9375 -0.382812 5.28125 -0.46875 C 5.625 -0.5625 5.859375 -0.742188 5.984375 -1.015625 C 6.117188 -1.285156 6.1875 -1.703125 6.1875 -2.265625 L 6.1875 -5.984375 L 3.046875 -10.78125 C 2.566406 -11.53125 2.117188 -12.046875 1.703125 -12.328125 C 1.296875 -12.617188 0.796875 -12.765625 0.203125 -12.765625 C 0.160156 -12.765625 0.140625 -12.820312 0.140625 -12.9375 C 0.140625 -13.050781 0.160156 -13.109375 0.203125 -13.109375 L 1.0625 -13.078125 C 1.476562 -13.035156 1.769531 -13.015625 1.9375 -13.015625 C 2.476562 -13.015625 3.15625 -13.035156 3.96875 -13.078125 L 5.234375 -13.109375 C 5.285156 -13.109375 5.3125 -13.050781 5.3125 -12.9375 C 5.3125 -12.820312 5.285156 -12.765625 5.234375 -12.765625 C 4.828125 -12.765625 4.515625 -12.710938 4.296875 -12.609375 C 4.078125 -12.503906 3.96875 -12.351562 3.96875 -12.15625 C 3.96875 -12.019531 4.046875 -11.832031 4.203125 -11.59375 L 7.359375 -6.78125 L 9.40625 -10.28125 C 9.726562 -10.800781 9.890625 -11.285156 9.890625 -11.734375 C 9.890625 -12.046875 9.789062 -12.296875 9.59375 -12.484375 C 9.394531 -12.671875 9.117188 -12.765625 8.765625 -12.765625 C 8.722656 -12.765625 8.703125 -12.820312 8.703125 -12.9375 C 8.703125 -13.050781 8.722656 -13.109375 8.765625 -13.109375 L 9.890625 -13.078125 C 10.484375 -13.035156 11.03125 -13.015625 11.53125 -13.015625 C 11.8125 -13.015625 12.140625 -13.035156 12.515625 -13.078125 Z M 13.359375 -13.109375"/></g><g id="L"><path d="M 13.328125 -10.5 C 13.328125 -11.113281 13.265625 -11.578125 13.140625 -11.890625 C 13.023438 -12.210938 12.816406 -12.4375 12.515625 -12.5625 C 12.210938 -12.695312 11.773438 -12.765625 11.203125 -12.765625 C 11.140625 -12.765625 11.109375 -12.820312 11.109375 -12.9375 C 11.109375 -13.050781 11.140625 -13.109375 11.203125 -13.109375 L 12.265625 -13.078125 C 12.828125 -13.035156 13.265625 -13.015625 13.578125 -13.015625 C 13.835938 -13.015625 14.226562 -13.035156 14.75 -13.078125 L 15.765625 -13.109375 C 15.796875 -13.109375 15.8125 -13.050781 15.8125 -12.9375 C 15.8125 -12.820312 15.796875 -12.765625 15.765625 -12.765625 C 15.242188 -12.765625 14.851562 -12.695312 14.59375 -12.5625 C 14.332031 -12.4375 14.148438 -12.210938 14.046875 -11.890625 C 13.941406 -11.578125 13.890625 -11.113281 13.890625 -10.5 L 13.890625 -5.15625 C 13.890625 -3.414062 13.398438 -2.0625 12.421875 -1.09375 C 11.441406 -0.125 10.128906 0.359375 8.484375 0.359375 C 7.441406 0.359375 6.492188 0.148438 5.640625 -0.265625 C 4.796875 -0.679688 4.125 -1.28125 3.625 -2.0625 C 3.132812 -2.851562 2.890625 -3.789062 2.890625 -4.875 L 2.890625 -10.84375 C 2.890625 -11.394531 2.832031 -11.800781 2.71875 -12.0625 C 2.601562 -12.320312 2.398438 -12.503906 2.109375 -12.609375 C 1.828125 -12.710938 1.367188 -12.765625 0.734375 -12.765625 C 0.671875 -12.765625 0.640625 -12.820312 0.640625 -12.9375 C 0.640625 -13.050781 0.671875 -13.109375 0.734375 -13.109375 L 1.953125 -13.078125 C 2.628906 -13.035156 3.15625 -13.015625 3.53125 -13.015625 C 4 -13.015625 4.566406 -13.035156 5.234375 -13.078125 L 6.40625 -13.109375 C 6.46875 -13.109375 6.5 -13.050781 6.5 -12.9375 C 6.5 -12.820312 6.46875 -12.765625 6.40625 -12.765625 C 5.789062 -12.765625 5.332031 -12.707031 5.03125 -12.59375 C 4.738281 -12.488281 4.535156 -12.300781 4.421875 -12.03125 C 4.304688 -11.757812 4.25 -11.34375 4.25 -10.78125 L 4.25 -5.59375 C 4.25 -3.84375 4.707031 -2.546875 5.625 -1.703125 C 6.539062 -0.867188 7.695312 -0.453125 9.09375 -0.453125 C 10.425781 -0.453125 11.460938 -0.847656 12.203125 -1.640625 C 12.953125 -2.429688 13.328125 -3.582031 13.328125 -5.09375 Z M 13.328125 -10.5"/></g><g id="M"><path d="M 15.5625 -0.34375 C 15.644531 -0.34375 15.6875 -0.285156 15.6875 -0.171875 C 15.6875 -0.0546875 15.644531 0 15.5625 0 C 15.226562 0 14.6875 -0.0195312 13.9375 -0.0625 C 13.226562 -0.09375 12.707031 -0.109375 12.375 -0.109375 C 12.113281 -0.109375 11.738281 -0.09375 11.25 -0.0625 C 10.800781 -0.0195312 10.457031 0 10.21875 0 C 10.144531 0 10.109375 -0.0546875 10.109375 -0.171875 C 10.109375 -0.285156 10.144531 -0.34375 10.21875 -0.34375 C 10.71875 -0.34375 11.09375 -0.40625 11.34375 -0.53125 C 11.601562 -0.664062 11.734375 -0.890625 11.734375 -1.203125 C 11.734375 -1.503906 11.617188 -1.890625 11.390625 -2.359375 L 9.46875 -6.546875 L 5.34375 -6.546875 L 4.109375 -3.4375 C 3.816406 -2.65625 3.671875 -2.078125 3.671875 -1.703125 C 3.671875 -1.222656 3.84375 -0.875 4.1875 -0.65625 C 4.53125 -0.445312 5.046875 -0.34375 5.734375 -0.34375 C 5.828125 -0.34375 5.875 -0.285156 5.875 -0.171875 C 5.875 -0.0546875 5.828125 0 5.734375 0 C 5.453125 0 5.070312 -0.0195312 4.59375 -0.0625 C 4.070312 -0.09375 3.585938 -0.109375 3.140625 -0.109375 C 2.671875 -0.109375 2.117188 -0.09375 1.484375 -0.0625 C 0.921875 -0.0195312 0.472656 0 0.140625 0 C 0.0664062 0 0.03125 -0.0546875 0.03125 -0.171875 C 0.03125 -0.285156 0.0664062 -0.34375 0.140625 -0.34375 C 0.722656 -0.34375 1.179688 -0.421875 1.515625 -0.578125 C 1.847656 -0.734375 2.15625 -1.046875 2.4375 -1.515625 C 2.71875 -1.984375 3.0625 -2.710938 3.46875 -3.703125 L 7.46875 -13.53125 C 7.507812 -13.601562 7.566406 -13.640625 7.640625 -13.640625 C 7.710938 -13.640625 7.757812 -13.601562 7.78125 -13.53125 L 12.296875 -3.84375 C 12.773438 -2.789062 13.160156 -2.03125 13.453125 -1.5625 C 13.742188 -1.101562 14.039062 -0.785156 14.34375 -0.609375 C 14.65625 -0.429688 15.0625 -0.34375 15.5625 -0.34375 Z M 5.546875 -7 L 9.234375 -7 L 7.25 -11.3125 Z M 5.546875 -7"/></g><g id="N"><path d="M 18.484375 -0.34375 C 18.515625 -0.34375 18.53125 -0.285156 18.53125 -0.171875 C 18.53125 -0.0546875 18.515625 0 18.484375 0 C 17.960938 0 17.550781 -0.0078125 17.25 -0.03125 L 15.59375 -0.0625 L 13.6875 -0.03125 C 13.375 -0.0078125 12.9375 0 12.375 0 C 12.332031 0 12.3125 -0.0546875 12.3125 -0.171875 C 12.3125 -0.285156 12.332031 -0.34375 12.375 -0.34375 C 13.125 -0.34375 13.671875 -0.382812 14.015625 -0.46875 C 14.359375 -0.5625 14.585938 -0.742188 14.703125 -1.015625 C 14.828125 -1.285156 14.882812 -1.703125 14.875 -2.265625 L 14.5625 -11.90625 L 9.625 -0.203125 C 9.59375 -0.117188 9.53125 -0.078125 9.4375 -0.078125 C 9.320312 -0.078125 9.25 -0.117188 9.21875 -0.203125 L 3.890625 -10.78125 L 3.75 -11.03125 L 3.46875 -2.90625 C 3.445312 -1.957031 3.566406 -1.289062 3.828125 -0.90625 C 4.097656 -0.53125 4.566406 -0.34375 5.234375 -0.34375 C 5.285156 -0.34375 5.3125 -0.285156 5.3125 -0.171875 C 5.3125 -0.0546875 5.285156 0 5.234375 0 C 4.835938 0 4.539062 -0.0078125 4.34375 -0.03125 L 3.15625 -0.0625 L 2.046875 -0.03125 C 1.804688 -0.0078125 1.46875 0 1.03125 0 C 1 0 0.984375 -0.0546875 0.984375 -0.171875 C 0.984375 -0.285156 1 -0.34375 1.03125 -0.34375 C 1.707031 -0.34375 2.179688 -0.53125 2.453125 -0.90625 C 2.722656 -1.289062 2.875 -1.957031 2.90625 -2.90625 L 3.21875 -11.84375 C 2.695312 -12.457031 2.0625 -12.765625 1.3125 -12.765625 C 1.257812 -12.765625 1.234375 -12.820312 1.234375 -12.9375 C 1.234375 -13.050781 1.257812 -13.109375 1.3125 -13.109375 L 2.65625 -13.078125 L 3.890625 -13.109375 C 4.128906 -13.109375 4.320312 -13.019531 4.46875 -12.84375 C 4.625 -12.675781 4.863281 -12.273438 5.1875 -11.640625 L 9.90625 -2.1875 L 14.21875 -12.40625 C 14.300781 -12.613281 14.421875 -12.78125 14.578125 -12.90625 C 14.734375 -13.039062 14.894531 -13.109375 15.0625 -13.109375 L 16.46875 -13.078125 L 18.28125 -13.109375 C 18.320312 -13.109375 18.34375 -13.050781 18.34375 -12.9375 C 18.34375 -12.820312 18.320312 -12.765625 18.28125 -12.765625 C 17.425781 -12.765625 16.820312 -12.640625 16.46875 -12.390625 C 16.113281 -12.140625 15.953125 -11.640625 15.984375 -10.890625 L 16.265625 -2.265625 C 16.304688 -1.691406 16.375 -1.269531 16.46875 -1 C 16.570312 -0.738281 16.769531 -0.5625 17.0625 -0.46875 C 17.351562 -0.382812 17.828125 -0.34375 18.484375 -0.34375 Z M 18.484375 -0.34375"/></g><g id="a"><path d="M 32.59375 -38.953125 C 30.414062 -41 27.835938 -41.578125 25.300781 -40.554688 C 23.390625 -39.796875 21.566406 -38.152344 19.964844 -35.796875 C 19.433594 -35.75 18.898438 -35.664062 18.410156 -35.484375 C 12.273438 -33.441406 7.515625 -23.34375 5.113281 -14.628906 C 2.355469 -4.625 1.511719 4.089844 2.757812 10.628906 C 3.867188 16.628906 6.671875 20.632812 10.628906 21.832031 C 11.429688 22.101562 12.316406 22.234375 13.207031 22.234375 C 19.921875 22.234375 28.769531 15.03125 34.683594 -2.222656 C 40.597656 -19.433594 38.109375 -33.75 32.59375 -38.953125 Z M 33.082031 -2.800781 C 27.035156 14.898438 17.429688 22.1875 11.117188 20.234375 C 4.757812 18.230469 0.933594 6.847656 6.757812 -14.140625 C 9.605469 -24.414062 14.273438 -32.0625 18.722656 -33.75 C 14.097656 -25.480469 11.074219 -10.582031 10.183594 8.804688 C 10.183594 9.292969 10.539062 9.695312 11.027344 9.695312 C 11.472656 9.695312 11.871094 9.339844 11.917969 8.894531 C 12.894531 -13.875 16.675781 -27.390625 20.898438 -34.105469 C 21.921875 -34.019531 22.945312 -33.617188 23.96875 -32.816406 C 24.324219 -32.550781 24.855469 -32.59375 25.167969 -32.996094 C 25.433594 -33.351562 25.390625 -33.882812 24.992188 -34.195312 C 24.011719 -34.953125 23.035156 -35.441406 22.011719 -35.664062 C 23.300781 -37.398438 24.636719 -38.464844 25.96875 -38.996094 C 28.324219 -39.933594 30.238281 -38.820312 31.394531 -37.707031 C 36.417969 -32.996094 38.6875 -19.121094 33.082031 -2.800781 Z M 33.082031 -2.800781"/></g><g id="b"><path d="M 19.121094 -10.003906 C 18.722656 -10.226562 18.1875 -10.09375 17.964844 -9.695312 C 14.183594 -3.644531 7.382812 1.46875 4.847656 0.976562 C 4.445312 0.933594 3.914062 0.710938 3.644531 -0.3125 C 3.78125 -0.488281 4.003906 -0.667969 4.222656 -0.84375 C 4.9375 -1.46875 5.957031 -2.355469 6.847656 -3.46875 C 8.269531 -5.335938 8.894531 -7.605469 8.359375 -8.894531 C 8.09375 -9.425781 7.648438 -9.78125 7.070312 -9.828125 C 5.824219 -9.917969 4.402344 -8.671875 2.710938 -6.046875 C 1.910156 -4.800781 1.15625 -3.425781 0.488281 -1.957031 C 1.867188 -8.136719 3.558594 -15.5625 4.847656 -21.121094 C 10.804688 -31.792969 13.785156 -39.796875 12.539062 -41.53125 C 12.273438 -41.886719 11.828125 -42.066406 11.382812 -41.976562 C 9.472656 -41.621094 6.492188 -35.128906 4.492188 -26.902344 C 4.179688 -25.65625 3.734375 -23.835938 3.246094 -21.699219 C 3.203125 -21.65625 3.203125 -21.566406 3.203125 -21.476562 C 0.667969 -10.761719 -3.601562 8.183594 -3.644531 9.648438 C -3.644531 10.09375 -3.335938 10.449219 -2.933594 10.496094 C -2.890625 10.539062 -2.847656 10.539062 -2.757812 10.539062 C -2.402344 10.539062 -2.089844 10.273438 -1.957031 9.917969 L -1.777344 9.292969 C -0.3125 4.667969 1.554688 -1.15625 4.136719 -5.113281 C 5.648438 -7.46875 6.535156 -8.003906 6.804688 -8.09375 C 6.9375 -7.605469 6.714844 -6.09375 5.46875 -4.492188 C 4.714844 -3.558594 3.78125 -2.710938 3.066406 -2.132812 C 2.179688 -1.335938 1.777344 -0.976562 1.867188 -0.355469 C 2.3125 1.824219 3.558594 2.488281 4.535156 2.667969 C 4.757812 2.710938 4.980469 2.710938 5.203125 2.710938 C 9.472656 2.710938 16.410156 -4.003906 19.386719 -8.804688 C 19.65625 -9.203125 19.519531 -9.738281 19.121094 -10.003906 Z M 11.074219 -39.53125 C 10.761719 -37.707031 9.472656 -33.929688 6.492188 -27.882812 C 8.226562 -34.328125 10.050781 -38.019531 11.074219 -39.53125 Z M 11.074219 -39.53125"/></g><g id="c"><path d="M 13.074219 -41.667969 C 12.761719 -42.066406 12.316406 -42.242188 11.871094 -42.199219 C 9.339844 -41.753906 6.625 -32.285156 5.871094 -29.394531 C 3.644531 -20.898438 0.84375 -8.847656 -1.421875 1.957031 C -2.488281 7.070312 -3.335938 11.382812 -3.867188 14.496094 C -4.757812 19.742188 -4.625 20.410156 -3.78125 20.632812 C -3.691406 20.675781 -3.601562 20.675781 -3.511719 20.675781 C -2.710938 20.675781 -2.3125 19.609375 -1.910156 18.453125 C -1.777344 18.007812 -2 17.519531 -2.445312 17.386719 C -2.488281 17.34375 -2.535156 17.34375 -2.578125 17.34375 C -1.644531 10.9375 2.179688 -7.691406 6.09375 -23.300781 C 6.09375 -23.34375 6.136719 -23.390625 6.179688 -23.433594 C 11.960938 -32.59375 14.230469 -39.886719 13.074219 -41.667969 Z M 7.605469 -29.304688 C 9.292969 -35.574219 10.804688 -38.597656 11.605469 -39.84375 C 11.429688 -38.199219 10.449219 -34.640625 7.605469 -29.304688 Z M 7.605469 -29.304688"/></g><g id="d"><path d="M 18.585938 -9.871094 C 18.1875 -10.050781 17.652344 -9.871094 17.476562 -9.472656 C 14.097656 -2.578125 11.5625 -0.398438 10.359375 -0.621094 C 9.871094 -0.710938 8.269531 -1.644531 7.871094 -9.425781 C 7.871094 -9.78125 7.605469 -10.09375 7.292969 -10.183594 C 6.9375 -10.273438 6.535156 -10.183594 6.359375 -9.871094 C 6.09375 -9.558594 5.824219 -9.203125 5.558594 -8.804688 C 4.445312 -7.292969 2.980469 -5.246094 1.199219 -3.335938 C 0.933594 -3.023438 0.710938 -2.847656 0.578125 -2.757812 C 0.265625 -4.3125 1.910156 -10.273438 4.535156 -12.140625 C 5.292969 -12.671875 6.3125 -13.074219 7.691406 -11.472656 C 8.003906 -11.117188 8.539062 -11.074219 8.894531 -11.382812 C 9.25 -11.652344 9.292969 -12.230469 9.027344 -12.585938 C 7.335938 -14.539062 5.734375 -14.496094 4.667969 -14.140625 C 1.246094 -12.941406 -1.066406 -6.359375 -1.15625 -3.335938 C -1.199219 -2.089844 -0.84375 -1.289062 -0.132812 -1.023438 C 0.976562 -0.578125 2.089844 -1.777344 2.445312 -2.179688 C 3.957031 -3.824219 5.335938 -5.601562 6.3125 -6.980469 C 6.804688 -1.910156 8.003906 0.621094 10.003906 1.066406 C 10.183594 1.066406 10.359375 1.113281 10.539062 1.113281 C 13.5625 1.113281 16.808594 -4.179688 18.988281 -8.714844 C 19.210938 -9.160156 19.03125 -9.648438 18.585938 -9.871094 Z M 18.585938 -9.871094"/></g><g id="e"><path d="M 21.03125 -10.136719 C 20.632812 -10.40625 20.097656 -10.273438 19.878906 -9.871094 C 13.5625 0.3125 11.339844 0.0898438 11.117188 0.0429688 C 10.671875 -0.0898438 10.183594 -0.976562 10.050781 -3.15625 C 10.003906 -4.136719 9.78125 -7.070312 7.828125 -7.335938 C 5.558594 -7.648438 2.847656 -3.691406 0.398438 1.421875 C 1.910156 -5.335938 4.089844 -14.628906 5.691406 -21.210938 C 11.652344 -31.925781 14.675781 -39.976562 13.429688 -41.710938 C 13.164062 -42.109375 12.71875 -42.242188 12.273438 -42.15625 C 10.359375 -41.800781 7.382812 -35.308594 5.378906 -27.082031 C 5.292969 -26.769531 -2.667969 5.734375 -2.933594 9.738281 C -2.933594 10.183594 -2.667969 10.539062 -2.222656 10.628906 C -2.179688 10.628906 -2.132812 10.628906 -2.089844 10.628906 C -1.734375 10.628906 -1.378906 10.40625 -1.246094 10.09375 C 2.625 -1.023438 6.402344 -5.648438 7.515625 -5.648438 C 7.558594 -5.648438 7.558594 -5.648438 7.558594 -5.648438 C 7.738281 -5.648438 8.226562 -5.113281 8.359375 -3.066406 C 8.40625 -2 8.625 1.15625 10.671875 1.691406 C 11.5625 1.910156 14.183594 2.578125 21.300781 -8.984375 C 21.566406 -9.382812 21.433594 -9.917969 21.03125 -10.136719 Z M 11.960938 -39.710938 C 11.605469 -37.929688 10.359375 -34.105469 7.382812 -28.101562 C 9.070312 -34.507812 10.894531 -38.199219 11.960938 -39.710938 Z M 11.960938 -39.710938"/></g><g id="f"><path d="M 16.097656 -9.648438 C 15.695312 -9.960938 15.164062 -9.871094 14.898438 -9.515625 C 13.027344 -7.113281 9.960938 -5.113281 7.605469 -5.558594 C 7.648438 -5.871094 7.691406 -6.179688 7.691406 -6.492188 C 8.003906 -11.515625 6.449219 -12.539062 5.515625 -12.71875 C 4.445312 -12.941406 3.335938 -12.140625 2.800781 -10.804688 C 2.578125 -10.894531 2.3125 -10.894531 2.089844 -10.714844 C 0.3125 -9.605469 -1.15625 -6.757812 -0.355469 -3.691406 C 0.179688 -1.867188 1.421875 -0.710938 3.066406 -0.710938 C 4.625 -0.710938 6.269531 -1.867188 7.113281 -3.914062 C 10.226562 -3.246094 13.960938 -5.558594 16.230469 -8.449219 C 16.542969 -8.847656 16.453125 -9.382812 16.097656 -9.648438 Z M 3.113281 -2.402344 C 3.066406 -2.402344 3.066406 -2.402344 3.066406 -2.402344 C 1.957031 -2.445312 1.46875 -3.511719 1.335938 -4.136719 C 0.890625 -5.648438 1.246094 -7.738281 2.488281 -8.894531 C 2.578125 -7.382812 3.425781 -5.734375 5.558594 -4.582031 C 4.9375 -3.15625 3.867188 -2.402344 3.113281 -2.402344 Z M 6.003906 -6.582031 C 5.957031 -6.492188 5.957031 -6.402344 5.957031 -6.3125 C 4.269531 -7.425781 4.003906 -8.847656 4.3125 -9.960938 C 4.535156 -10.671875 4.980469 -11.027344 5.203125 -11.027344 C 5.425781 -10.984375 6.179688 -10.136719 6.003906 -6.582031 Z M 6.003906 -6.582031"/></g><g id="g"><path d="M 25.078125 -9.917969 C 24.722656 -10.226562 24.144531 -10.183594 23.835938 -9.828125 C 20.277344 -5.648438 17.875 -4.582031 16.808594 -4.980469 C 15.875 -5.335938 15.339844 -7.113281 15.386719 -9.917969 C 15.386719 -10.40625 15.429688 -11.605469 14.453125 -11.828125 C 13.339844 -12.09375 12.539062 -10.804688 10.183594 -5.871094 C 9.78125 -5.023438 9.425781 -4.269531 9.203125 -3.824219 C 8.9375 -3.335938 8.761719 -3.066406 8.625 -2.933594 C 8.40625 -3.378906 8.09375 -4.535156 8.136719 -6.269531 C 8.136719 -7.160156 8.136719 -7.914062 8.183594 -8.539062 C 8.226562 -10.496094 8.269531 -11.207031 7.46875 -11.515625 C 6.757812 -11.738281 6.269531 -11.074219 6.136719 -10.851562 C 4.179688 -8.183594 2.445312 -5.46875 0.621094 -2.179688 C 1.335938 -5.246094 2.625 -9.648438 4.269531 -13.339844 C 4.445312 -13.785156 4.269531 -14.320312 3.824219 -14.496094 C 3.378906 -14.675781 2.890625 -14.496094 2.667969 -14.050781 C 1.421875 -11.160156 0.179688 -7.46875 -0.757812 -3.824219 C -2.222656 2.046875 -1.644531 2.3125 -1.113281 2.578125 C -0.976562 2.625 -0.84375 2.667969 -0.710938 2.667969 C -0.265625 2.667969 0.132812 2.355469 0.488281 1.691406 C 2.625 -2.402344 4.402344 -5.425781 6.449219 -8.40625 C 6.449219 -7.78125 6.402344 -7.070312 6.402344 -6.269531 C 6.402344 -4.890625 6.582031 -1.601562 8.226562 -1.15625 C 9.558594 -0.84375 10.40625 -2.488281 10.714844 -3.023438 C 10.984375 -3.511719 11.339844 -4.269531 11.738281 -5.113281 C 12.230469 -6.136719 13.027344 -7.828125 13.695312 -8.984375 C 13.785156 -5.871094 14.628906 -3.957031 16.230469 -3.378906 C 18.410156 -2.535156 21.390625 -4.359375 25.167969 -8.714844 C 25.480469 -9.070312 25.433594 -9.605469 25.078125 -9.917969 Z M 25.078125 -9.917969"/></g><g id="i"><path d="M 44.824219 10.804688 C 44.46875 10.496094 43.933594 10.539062 43.621094 10.9375 C 42.332031 12.496094 41.089844 13.25 39.84375 13.207031 C 36.820312 13.117188 33.484375 8.40625 29.925781 3.46875 C 27.390625 -0.132812 24.589844 -4.089844 21.390625 -7.113281 C 23.789062 -7.914062 26.148438 -9.070312 28.414062 -10.628906 C 32.640625 -13.519531 36.417969 -17.652344 39.132812 -22.234375 C 43.222656 -29.214844 44.15625 -36.152344 41.578125 -40.332031 C 40.199219 -42.601562 37.128906 -45.179688 30.371094 -44.691406 C 20.144531 -43.976562 8.269531 -37.265625 4.003906 -29.703125 C 1.824219 -25.925781 1.644531 -22.101562 3.378906 -18.585938 C 3.601562 -18.1875 4.089844 -18.007812 4.535156 -18.230469 C 4.9375 -18.410156 5.113281 -18.941406 4.890625 -19.386719 C 3.378906 -22.367188 3.601562 -25.570312 5.46875 -28.859375 C 9.472656 -35.839844 20.898438 -42.332031 30.503906 -43 C 35.171875 -43.3125 38.464844 -42.109375 40.109375 -39.441406 C 42.378906 -35.796875 41.445312 -29.527344 37.664062 -23.078125 C 32.59375 -14.539062 25.792969 -10.136719 19.832031 -8.449219 C 19.121094 -9.027344 18.410156 -9.558594 17.652344 -10.003906 C 16.898438 -10.496094 16.140625 -10.894531 15.386719 -11.25 C 15.832031 -12.941406 16.230469 -14.585938 16.585938 -16.140625 C 18.585938 -24.144531 20.410156 -31.707031 21.433594 -36.285156 C 21.523438 -36.730469 21.253906 -37.175781 20.765625 -37.308594 C 20.320312 -37.398438 19.878906 -37.085938 19.789062 -36.640625 C 18.765625 -32.0625 16.898438 -24.546875 14.941406 -16.542969 C 14.539062 -14.941406 14.183594 -13.382812 13.785156 -11.917969 C 11.25 -12.851562 9.160156 -12.851562 7.871094 -11.871094 C 7.070312 -11.207031 6.757812 -10.226562 7.070312 -9.25 C 7.515625 -7.914062 9.117188 -6.449219 12.363281 -6.046875 C 5.203125 23.523438 5.335938 25.390625 6.714844 25.878906 C 6.847656 25.925781 6.980469 25.925781 7.070312 25.925781 C 7.914062 25.925781 8.582031 24.769531 9.738281 22.234375 C 9.917969 21.832031 9.738281 21.300781 9.292969 21.121094 C 8.847656 20.945312 8.359375 21.121094 8.136719 21.566406 C 8.046875 21.789062 7.914062 22.054688 7.828125 22.277344 C 8.582031 17.164062 11.382812 5.203125 14.097656 -5.957031 C 15.875 -5.914062 17.652344 -6.136719 19.476562 -6.535156 C 22.855469 -3.601562 25.835938 0.621094 28.546875 4.445312 C 32.503906 10.003906 35.886719 14.808594 39.796875 14.941406 C 39.84375 14.941406 39.886719 14.941406 39.933594 14.941406 C 41.710938 14.941406 43.355469 13.960938 44.957031 12.007812 C 45.269531 11.652344 45.179688 11.117188 44.824219 10.804688 Z M 8.714844 -9.78125 C 8.625 -10.09375 8.671875 -10.316406 8.9375 -10.496094 C 9.292969 -10.804688 9.78125 -10.9375 10.359375 -10.9375 C 11.25 -10.9375 12.316406 -10.628906 13.382812 -10.226562 C 13.164062 -9.382812 12.984375 -8.539062 12.761719 -7.738281 C 10.359375 -8.003906 8.984375 -8.9375 8.714844 -9.78125 Z M 14.539062 -7.648438 C 14.675781 -8.269531 14.808594 -8.894531 14.984375 -9.515625 C 15.652344 -9.203125 16.273438 -8.847656 16.765625 -8.539062 C 17.074219 -8.359375 17.386719 -8.183594 17.652344 -7.960938 C 16.585938 -7.78125 15.519531 -7.691406 14.539062 -7.648438 Z M 14.539062 -7.648438"/></g><g id="j"><path d="M 15.03125 -9.917969 C 14.628906 -10.183594 14.097656 -10.09375 13.828125 -9.695312 C 10.496094 -5.023438 7.78125 -2.089844 5.113281 -0.179688 C 3.78125 0.757812 2.488281 0.933594 1.644531 0.3125 C 1.113281 -0.0898438 -0.535156 -1.867188 1.378906 -8.09375 C 5.691406 -11.652344 8.046875 -15.03125 7.425781 -16.808594 C 7.203125 -17.34375 6.671875 -17.699219 6.09375 -17.699219 C 4.3125 -17.652344 1.601562 -14.585938 -0.179688 -8.847656 C -2.355469 -1.777344 -0.578125 0.800781 0.667969 1.691406 C 1.289062 2.179688 2 2.402344 2.800781 2.402344 C 3.824219 2.402344 4.980469 2 6.09375 1.199219 C 8.9375 -0.84375 11.738281 -3.867188 15.207031 -8.714844 C 15.476562 -9.117188 15.386719 -9.648438 15.03125 -9.917969 Z M 5.734375 -15.832031 C 5.558594 -15.117188 4.800781 -13.695312 2.710938 -11.5625 C 3.867188 -14.140625 5.113281 -15.386719 5.734375 -15.832031 Z M 5.734375 -15.832031"/></g><g id="k"><path d="M 37.53125 -26.234375 C 36.953125 -27.035156 34.375 -27.523438 6.757812 -26.902344 C 7.648438 -30.503906 8.449219 -33.75 9.160156 -36.375 C 9.292969 -36.863281 9.027344 -37.308594 8.582031 -37.441406 C 8.136719 -37.574219 7.648438 -37.308594 7.515625 -36.863281 C 6.757812 -34.0625 5.914062 -30.683594 4.980469 -26.859375 C 2.535156 -26.8125 -0.132812 -26.769531 -3.023438 -26.679688 C -6.980469 -26.589844 -10.09375 -26.503906 -11.292969 -26.503906 C -11.785156 -26.503906 -12.183594 -26.101562 -12.183594 -25.65625 C -12.183594 -25.167969 -11.785156 -24.769531 -11.292969 -24.769531 C -10.050781 -24.8125 -6.9375 -24.855469 -2.980469 -24.992188 C -0.890625 -25.035156 1.691406 -25.078125 4.582031 -25.167969 C 2.667969 -17.074219 0.488281 -7.382812 -1.46875 2.089844 C -2.890625 9.027344 -4.046875 15.03125 -4.800781 19.433594 C -5.203125 21.746094 -5.46875 23.566406 -5.601562 24.8125 C -5.78125 26.503906 -5.871094 27.480469 -5.023438 27.792969 C -4.890625 27.792969 -4.800781 27.835938 -4.667969 27.835938 C -3.914062 27.835938 -3.511719 26.769531 -3.15625 25.792969 C -2.980469 25.347656 -3.203125 24.855469 -3.644531 24.679688 C -3.734375 24.679688 -3.78125 24.636719 -3.867188 24.636719 C -3.425781 21.167969 -2.089844 13.382812 0.488281 1.113281 C 2.402344 -8.183594 4.492188 -17.476562 6.359375 -25.214844 C 18.585938 -25.480469 34.460938 -25.703125 36.285156 -25.078125 C 36.597656 -24.8125 36.996094 -24.8125 37.351562 -25.035156 C 37.707031 -25.300781 37.796875 -25.835938 37.53125 -26.234375 Z M 37.53125 -26.234375"/></g><g id="l"><path d="M 19.519531 -10.050781 C 19.078125 -10.273438 18.542969 -10.09375 18.363281 -9.648438 C 13.25 1.113281 8.40625 6.625 7.335938 6.449219 C 7.25 6.402344 5.691406 4.890625 10.714844 -10.539062 C 10.851562 -10.9375 11.160156 -11.871094 10.449219 -12.363281 C 9.78125 -12.894531 9.027344 -12.40625 7.78125 -11.5625 C 6.449219 -10.714844 4.625 -9.515625 3.203125 -9.695312 C 7.738281 -17.519531 7.292969 -19.253906 6.269531 -19.921875 C 4.667969 -20.855469 2.355469 -18.144531 1.289062 -16.585938 C -0.890625 -13.207031 -0.84375 -10.136719 1.46875 -8.582031 C 3.824219 -6.9375 6.890625 -8.9375 8.714844 -10.136719 C 8.761719 -10.183594 8.761719 -10.183594 8.804688 -10.226562 C 7.070312 -4.757812 5.957031 -0.445312 5.558594 2.535156 C 5.070312 5.824219 5.425781 7.558594 6.671875 8.046875 C 6.890625 8.09375 7.070312 8.136719 7.292969 8.136719 C 10.851562 8.136719 17.03125 -2.800781 19.921875 -8.894531 C 20.097656 -9.339844 19.921875 -9.871094 19.519531 -10.050781 Z M 1.554688 -13.117188 C 2.179688 -15.519531 4.269531 -17.742188 5.203125 -18.277344 C 5.113281 -17.566406 4.625 -15.5625 1.777344 -10.628906 C 1.46875 -11.117188 1.246094 -11.871094 1.554688 -13.117188 Z M 1.554688 -13.117188"/></g><clipPath id="O"><path d="M 865.765625 101.777344 L 880.765625 101.777344 L 880.765625 116.777344 L 865.765625 116.777344 Z M 865.765625 101.777344"/></clipPath></defs><path fill="#E4D8C9" d="M 30.324219 90.515625 L 1019.414062 90.515625 L 1019.414062 153.515625 L 30.324219 153.515625 Z M 30.324219 90.515625"/><g fill="#424347"><use x="574.367" y="133.003" xmlns:xlink="http://www.w3.org/1999/xlink" xlink:href="#a" xlink:type="simple" xlink:actuate="onLoad" xlink:show="embed"/></g><g fill="#424347"><use x="615.226" y="133.003" xmlns:xlink="http://www.w3.org/1999/xlink" xlink:href="#b" xlink:type="simple" xlink:actuate="onLoad" xlink:show="embed"/></g><g fill="#424347"><use x="632.566" y="133.003" xmlns:xlink="http://www.w3.org/1999/xlink" xlink:href="#c" xlink:type="simple" xlink:actuate="onLoad" xlink:show="embed"/></g><g fill="#424347"><use x="639.324" y="133.003" xmlns:xlink="http://www.w3.org/1999/xlink" xlink:href="#d" xlink:type="simple" xlink:actuate="onLoad" xlink:show="embed"/></g><g fill="#424347"><use x="655.864" y="133.003" xmlns:xlink="http://www.w3.org/1999/xlink" xlink:href="#e" xlink:type="simple" xlink:actuate="onLoad" xlink:show="embed"/></g><g fill="#424347"><use x="675.027" y="133.003" xmlns:xlink="http://www.w3.org/1999/xlink" xlink:href="#f" xlink:type="simple" xlink:actuate="onLoad" xlink:show="embed"/></g><g fill="#424347"><use x="689.254" y="133.003" xmlns:xlink="http://www.w3.org/1999/xlink" xlink:href="#g" xlink:type="simple" xlink:actuate="onLoad" xlink:show="embed"/></g><g fill="#424347"><use x="712.418" y="133.003" xmlns:xlink="http://www.w3.org/1999/xlink" xlink:href="#d" xlink:type="simple" xlink:actuate="onLoad" xlink:show="embed"/></g><g fill="#424347"><use x="728.958" y="133.003" xmlns:xlink="http://www.w3.org/1999/xlink" xlink:href="#h" xlink:type="simple" xlink:actuate="onLoad" xlink:show="embed"/></g><g fill="#424347"><use x="742.608" y="133.003" xmlns:xlink="http://www.w3.org/1999/xlink" xlink:href="#i" xlink:type="simple" xlink:actuate="onLoad" xlink:show="embed"/></g><g fill="#424347"><use x="783.556" y="133.003" xmlns:xlink="http://www.w3.org/1999/xlink" xlink:href="#j" xlink:type="simple" xlink:actuate="onLoad" xlink:show="embed"/></g><g fill="#424347"><use x="796.494" y="133.003" xmlns:xlink="http://www.w3.org/1999/xlink" xlink:href="#d" xlink:type="simple" xlink:actuate="onLoad" xlink:show="embed"/></g><g fill="#424347"><use x="813.034" y="133.003" xmlns:xlink="http://www.w3.org/1999/xlink" xlink:href="#c" xlink:type="simple" xlink:actuate="onLoad" xlink:show="embed"/></g><g fill="#424347"><use x="819.792" y="133.003" xmlns:xlink="http://www.w3.org/1999/xlink" xlink:href="#k" xlink:type="simple" xlink:actuate="onLoad" xlink:show="embed"/></g><g fill="#424347"><use x="825.705" y="133.003" xmlns:xlink="http://www.w3.org/1999/xlink" xlink:href="#f" xlink:type="simple" xlink:actuate="onLoad" xlink:show="embed"/></g><g fill="#424347"><use x="839.933" y="133.003" xmlns:xlink="http://www.w3.org/1999/xlink" xlink:href="#l" xlink:type="simple" xlink:actuate="onLoad" xlink:show="embed"/></g><path transform="matrix(2.25155 0 0 2.05714 240.835 123.818)" fill="none" d="M 0.00041835 -0.000605204 L 113.590692 -0.000605204" stroke="#747474"/><g fill="#424347"><use x="81.577" y="95.89" xmlns:xlink="http://www.w3.org/1999/xlink" xlink:href="#m" xlink:type="simple" xlink:actuate="onLoad" xlink:show="embed"/></g><g fill="#424347"><use x="149.08" y="95.89" xmlns:xlink="http://www.w3.org/1999/xlink" xlink:href="#n" xlink:type="simple" xlink:actuate="onLoad" xlink:show="embed"/></g><g fill="#424347"><use x="236.304" y="95.89" xmlns:xlink="http://www.w3.org/1999/xlink" xlink:href="#o" xlink:type="simple" xlink:actuate="onLoad" xlink:show="embed"/></g><g fill="#424347"><use x="320.658" y="95.89" xmlns:xlink="http://www.w3.org/1999/xlink" xlink:href="#n" xlink:type="simple" xlink:actuate="onLoad" xlink:show="embed"/></g><g fill="#424347"><use x="407.882" y="95.89" xmlns:xlink="http://www.w3.org/1999/xlink" xlink:href="#p" xlink:type="simple" xlink:actuate="onLoad" xlink:show="embed"/></g><g fill="#424347"><use x="500.661" y="95.89" xmlns:xlink="http://www.w3.org/1999/xlink" xlink:href="#q" xlink:type="simple" xlink:actuate="onLoad" xlink:show="embed"/></g><g fill="#424347"><use x="544.926" y="95.89" xmlns:xlink="http://www.w3.org/1999/xlink" xlink:href="#r" xlink:type="simple" xlink:actuate="onLoad" xlink:show="embed"/></g><g fill="#424347"><use x="629.465" y="95.89" xmlns:xlink="http://www.w3.org/1999/xlink" xlink:href="#s" xlink:type="simple" xlink:actuate="onLoad" xlink:show="embed"/></g><g fill="#424347"><use x="722.985" y="95.89" xmlns:xlink="http://www.w3.org/1999/xlink" xlink:href="#t" xlink:type="simple" xlink:actuate="onLoad" xlink:show="embed"/></g><g fill="#424347"><use x="794.655" y="95.89" xmlns:xlink="http://www.w3.org/1999/xlink" xlink:href="#t" xlink:type="simple" xlink:actuate="onLoad" xlink:show="embed"/></g><g fill="#424347"><use x="866.324" y="95.89" xmlns:xlink="http://www.w3.org/1999/xlink" xlink:href="#m" xlink:type="simple" xlink:actuate="onLoad" xlink:show="embed"/></g><g fill="#747474"><use x="208.002" y="206.648" xmlns:xlink="http://www.w3.org/1999/xlink" xlink:href="#u" xlink:type="simple" xlink:actuate="onLoad" xlink:show="embed"/></g><g fill="#747474"><use x="222.842" y="206.648" xmlns:xlink="http://www.w3.org/1999/xlink" xlink:href="#v" xlink:type="simple" xlink:actuate="onLoad" xlink:show="embed"/></g><g fill="#747474"><use x="235.834" y="206.648" xmlns:xlink="http://www.w3.org/1999/xlink" xlink:href="#w" xlink:type="simple" xlink:actuate="onLoad" xlink:show="embed"/></g><g fill="#747474"><use x="249.694" y="206.648" xmlns:xlink="http://www.w3.org/1999/xlink" xlink:href="#x" xlink:type="simple" xlink:actuate="onLoad" xlink:show="embed"/></g><g fill="#747474"><use x="253.558" y="206.648" xmlns:xlink="http://www.w3.org/1999/xlink" xlink:href="#y" xlink:type="simple" xlink:actuate="onLoad" xlink:show="embed"/></g><g fill="#747474"><use x="264.338" y="206.648" xmlns:xlink="http://www.w3.org/1999/xlink" xlink:href="#z" xlink:type="simple" xlink:actuate="onLoad" xlink:show="embed"/></g><g fill="#747474"><use x="270.89" y="206.648" xmlns:xlink="http://www.w3.org/1999/xlink" xlink:href="#A" xlink:type="simple" xlink:actuate="onLoad" xlink:show="embed"/></g><g fill="#747474"><use x="290.91" y="206.648" xmlns:xlink="http://www.w3.org/1999/xlink" xlink:href="#B" xlink:type="simple" xlink:actuate="onLoad" xlink:show="embed"/></g><g fill="#747474"><use x="307.122" y="206.648" xmlns:xlink="http://www.w3.org/1999/xlink" xlink:href="#C" xlink:type="simple" xlink:actuate="onLoad" xlink:show="embed"/></g><g fill="#747474"><use x="321.962" y="206.648" xmlns:xlink="http://www.w3.org/1999/xlink" xlink:href="#D" xlink:type="simple" xlink:actuate="onLoad" xlink:show="embed"/></g><g fill="#747474"><use x="343.55" y="206.648" xmlns:xlink="http://www.w3.org/1999/xlink" xlink:href="#w" xlink:type="simple" xlink:actuate="onLoad" xlink:show="embed"/></g><g fill="#747474"><use x="357.41" y="206.648" xmlns:xlink="http://www.w3.org/1999/xlink" xlink:href="#B" xlink:type="simple" xlink:actuate="onLoad" xlink:show="embed"/></g><g fill="#747474"><use x="373.622" y="206.648" xmlns:xlink="http://www.w3.org/1999/xlink" xlink:href="#E" xlink:type="simple" xlink:actuate="onLoad" xlink:show="embed"/></g><g fill="#747474"><use x="389.246" y="206.648" xmlns:xlink="http://www.w3.org/1999/xlink" xlink:href="#v" xlink:type="simple" xlink:actuate="onLoad" xlink:show="embed"/></g><g fill="#747474"><use x="402.238" y="206.648" xmlns:xlink="http://www.w3.org/1999/xlink" xlink:href="#w" xlink:type="simple" xlink:actuate="onLoad" xlink:show="embed"/></g><g fill="#747474"><use x="416.098" y="206.648" xmlns:xlink="http://www.w3.org/1999/xlink" xlink:href="#F" xlink:type="simple" xlink:actuate="onLoad" xlink:show="embed"/></g><g fill="#747474"><use x="433.458" y="206.648" xmlns:xlink="http://www.w3.org/1999/xlink" xlink:href="#v" xlink:type="simple" xlink:actuate="onLoad" xlink:show="embed"/></g><g fill="#747474"><use x="446.45" y="206.648" xmlns:xlink="http://www.w3.org/1999/xlink" xlink:href="#C" xlink:type="simple" xlink:actuate="onLoad" xlink:show="embed"/></g><g fill="#747474"><use x="461.29" y="206.648" xmlns:xlink="http://www.w3.org/1999/xlink" xlink:href="#z" xlink:type="simple" xlink:actuate="onLoad" xlink:show="embed"/></g><g fill="#747474"><use x="467.842" y="206.648" xmlns:xlink="http://www.w3.org/1999/xlink" xlink:href="#w" xlink:type="simple" xlink:actuate="onLoad" xlink:show="embed"/></g><g fill="#747474"><use x="481.702" y="206.648" xmlns:xlink="http://www.w3.org/1999/xlink" xlink:href="#B" xlink:type="simple" xlink:actuate="onLoad" xlink:show="embed"/></g><g fill="#747474"><use x="497.915" y="206.648" xmlns:xlink="http://www.w3.org/1999/xlink" xlink:href="#z" xlink:type="simple" xlink:actuate="onLoad" xlink:show="embed"/></g><g fill="#747474"><use x="504.467" y="206.648" xmlns:xlink="http://www.w3.org/1999/xlink" xlink:href="#G" xlink:type="simple" xlink:actuate="onLoad" xlink:show="embed"/></g><g fill="#747474"><use x="516.479" y="206.648" xmlns:xlink="http://www.w3.org/1999/xlink" xlink:href="#H" xlink:type="simple" xlink:actuate="onLoad" xlink:show="embed"/></g><g fill="#747474"><use x="524.627" y="206.648" xmlns:xlink="http://www.w3.org/1999/xlink" xlink:href="#I" xlink:type="simple" xlink:actuate="onLoad" xlink:show="embed"/></g><g fill="#747474"><use x="540.615" y="206.648" xmlns:xlink="http://www.w3.org/1999/xlink" xlink:href="#J" xlink:type="simple" xlink:actuate="onLoad" xlink:show="embed"/></g><g fill="#747474"><use x="556.519" y="206.648" xmlns:xlink="http://www.w3.org/1999/xlink" xlink:href="#z" xlink:type="simple" xlink:actuate="onLoad" xlink:show="embed"/></g><g fill="#747474"><use x="563.071" y="206.648" xmlns:xlink="http://www.w3.org/1999/xlink" xlink:href="#K" xlink:type="simple" xlink:actuate="onLoad" xlink:show="embed"/></g><g fill="#747474"><use x="576.539" y="206.648" xmlns:xlink="http://www.w3.org/1999/xlink" xlink:href="#B" xlink:type="simple" xlink:actuate="onLoad" xlink:show="embed"/></g><g fill="#747474"><use x="592.751" y="206.648" xmlns:xlink="http://www.w3.org/1999/xlink" xlink:href="#L" xlink:type="simple" xlink:actuate="onLoad" xlink:show="embed"/></g><g fill="#747474"><use x="608.991" y="206.648" xmlns:xlink="http://www.w3.org/1999/xlink" xlink:href="#C" xlink:type="simple" xlink:actuate="onLoad" xlink:show="embed"/></g><g fill="#747474"><use x="623.831" y="206.648" xmlns:xlink="http://www.w3.org/1999/xlink" xlink:href="#z" xlink:type="simple" xlink:actuate="onLoad" xlink:show="embed"/></g><g fill="#747474"><use x="630.383" y="206.648" xmlns:xlink="http://www.w3.org/1999/xlink" xlink:href="#J" xlink:type="simple" xlink:actuate="onLoad" xlink:show="embed"/></g><g fill="#747474"><use x="646.287" y="206.648" xmlns:xlink="http://www.w3.org/1999/xlink" xlink:href="#C" xlink:type="simple" xlink:actuate="onLoad" xlink:show="embed"/></g><g fill="#747474"><use x="661.127" y="206.648" xmlns:xlink="http://www.w3.org/1999/xlink" xlink:href="#v" xlink:type="simple" xlink:actuate="onLoad" xlink:show="embed"/></g><g fill="#747474"><use x="674.119" y="206.648" xmlns:xlink="http://www.w3.org/1999/xlink" xlink:href="#M" xlink:type="simple" xlink:actuate="onLoad" xlink:show="embed"/></g><g fill="#747474"><use x="689.799" y="206.648" xmlns:xlink="http://www.w3.org/1999/xlink" xlink:href="#N" xlink:type="simple" xlink:actuate="onLoad" xlink:show="embed"/></g><g fill="#747474"><use x="709.091" y="206.648" xmlns:xlink="http://www.w3.org/1999/xlink" xlink:href="#z" xlink:type="simple" xlink:actuate="onLoad" xlink:show="embed"/></g><g fill="#747474"><use x="715.643" y="206.648" xmlns:xlink="http://www.w3.org/1999/xlink" xlink:href="#F" xlink:type="simple" xlink:actuate="onLoad" xlink:show="embed"/></g><g fill="#747474"><use x="733.003" y="206.648" xmlns:xlink="http://www.w3.org/1999/xlink" xlink:href="#B" xlink:type="simple" xlink:actuate="onLoad" xlink:show="embed"/></g><g fill="#747474"><use x="749.215" y="206.648" xmlns:xlink="http://www.w3.org/1999/xlink" xlink:href="#N" xlink:type="simple" xlink:actuate="onLoad" xlink:show="embed"/></g><g fill="#747474"><use x="768.507" y="206.648" xmlns:xlink="http://www.w3.org/1999/xlink" xlink:href="#v" xlink:type="simple" xlink:actuate="onLoad" xlink:show="embed"/></g><g clip-path="url(#O)"><path fill="#424347" d="M 873.265625 101.777344 C 869.132812 101.777344 865.765625 105.144531 865.765625 109.277344 C 865.765625 113.410156 869.132812 116.777344 873.265625 116.777344 C 877.398438 116.777344 880.765625 113.410156 880.765625 109.277344 C 880.765625 105.144531 877.398438 101.777344 873.265625 101.777344 Z M 873.265625 102.929688 C 876.777344 102.929688 879.613281 105.765625 879.613281 109.277344 C 879.613281 112.789062 876.777344 115.621094 873.265625 115.621094 C 869.753906 115.621094 866.921875 112.789062 866.921875 109.277344 C 866.921875 105.765625 869.753906 102.929688 873.265625 102.929688 Z M 870.382812 105.238281 L 870.382812 113.316406 L 871.535156 113.316406 L 871.535156 111.007812 L 872.976562 111.007812 L 874.683594 113.316406 L 876.113281 113.316406 L 874.265625 110.816406 C 875.363281 110.402344 876.152344 109.355469 876.152344 108.121094 C 876.152344 106.535156 874.851562 105.238281 873.265625 105.238281 Z M 871.535156 106.390625 L 873.265625 106.390625 C 874.230469 106.390625 874.996094 107.15625 874.996094 108.121094 C 874.996094 109.085938 874.230469 109.851562 873.265625 109.851562 L 871.535156 109.851562 Z M 871.535156 106.390625"/></g></svg>