<svg xmlns="http://www.w3.org/2000/svg" xmlns:xlink="http://www.w3.org/1999/xlink" width="337.5" viewBox="0 0 337.5 75" height="75" version="1.0"><defs><g id="a"><path d="M 20.039062 -8.929688 C 19.972656 -9.15625 19.726562 -9.289062 19.5 -9.199219 C 18.242188 -8.796875 16.472656 -8.257812 14.382812 -7.628906 C 15.527344 -13.554688 16.71875 -19.65625 17.324219 -22.035156 C 17.367188 -22.261719 17.234375 -22.507812 17.007812 -22.550781 C 16.785156 -22.621094 16.539062 -22.484375 16.492188 -22.261719 C 15.863281 -19.792969 14.609375 -13.441406 13.441406 -7.359375 C 13.285156 -7.316406 13.128906 -7.25 12.949219 -7.203125 C 10.234375 -6.394531 7.089844 -5.429688 4.085938 -4.488281 C 4.78125 -7.875 5.609375 -11.914062 6.621094 -16.695312 L 6.730469 -17.167969 C 7.089844 -18.917969 6.980469 -19.882812 6.371094 -20.261719 C 5.855469 -20.554688 5.140625 -20.332031 4.261719 -19.566406 C 2.175781 -17.75 -1.144531 -12.609375 -0.203125 -10.34375 C 0.0234375 -9.804688 0.5625 -9.179688 1.929688 -9.269531 C 2.175781 -9.289062 2.355469 -9.492188 2.332031 -9.738281 C 2.3125 -9.964844 2.109375 -10.144531 1.886719 -10.144531 C 0.851562 -10.074219 0.652344 -10.523438 0.582031 -10.679688 C 0.292969 -11.421875 0.671875 -12.925781 1.636719 -14.699219 C 2.535156 -16.359375 3.792969 -17.996094 4.824219 -18.894531 C 5.542969 -19.523438 5.878906 -19.546875 5.925781 -19.5 C 5.945312 -19.5 6.28125 -19.230469 5.878906 -17.347656 L 5.789062 -16.875 C 5.363281 -14.898438 4.261719 -9.714844 3.140625 -4.195312 C 1.59375 -3.703125 0.0664062 -3.230469 -1.300781 -2.761719 C -3.679688 -1.976562 -5.453125 -1.324219 -6.710938 -0.785156 C -8.730469 0.0664062 -9.109375 0.472656 -9.089844 0.921875 C -9.066406 1.144531 -8.929688 1.457031 -8.324219 1.570312 C -8.304688 1.570312 -8.28125 1.570312 -8.257812 1.570312 C -8.054688 1.570312 -7.875 1.4375 -7.832031 1.234375 C -7.785156 1.054688 -7.875 0.875 -8.011719 0.785156 C -7.425781 0.425781 -5.699219 -0.402344 -0.539062 -2.109375 C 0.5625 -2.46875 1.726562 -2.851562 2.941406 -3.230469 C 2.714844 -2.132812 2.492188 -1.011719 2.265625 0.0898438 C 1.480469 3.996094 0.875 7.070312 0.492188 9.269531 C 0.269531 10.546875 0.0898438 11.535156 0 12.207031 C -0.132812 13.195312 -0.203125 13.6875 0.269531 13.824219 C 0.3125 13.84375 0.359375 13.84375 0.402344 13.84375 C 0.761719 13.84375 0.921875 13.398438 1.097656 12.925781 C 1.167969 12.699219 1.054688 12.476562 0.851562 12.386719 C 1.054688 10.816406 1.773438 6.753906 3.882812 -3.523438 C 7.046875 -4.511719 10.34375 -5.519531 13.195312 -6.371094 C 13.21875 -6.394531 13.238281 -6.394531 13.261719 -6.394531 C 12.96875 -4.890625 12.699219 -3.410156 12.433594 -2.042969 C 11.757812 1.570312 11.175781 4.667969 10.90625 5.902344 C 10.859375 6.148438 10.996094 6.371094 11.242188 6.417969 C 11.265625 6.417969 11.308594 6.417969 11.332031 6.417969 C 11.535156 6.417969 11.714844 6.28125 11.757812 6.082031 C 12.003906 4.847656 12.566406 1.886719 13.285156 -1.886719 C 13.578125 -3.386719 13.890625 -5.027344 14.203125 -6.6875 C 16.472656 -7.359375 18.421875 -7.945312 19.769531 -8.390625 C 19.992188 -8.460938 20.128906 -8.707031 20.039062 -8.929688 Z M 20.039062 -8.929688"/></g><g id="b"><path d="M 6.550781 -5.09375 C 6.351562 -5.230469 6.105469 -5.160156 5.96875 -4.960938 C 4.464844 -2.535156 1.953125 -0.246094 1.1875 -0.5625 C 1.097656 -0.605469 0.382812 -1.03125 1.367188 -4.824219 C 1.414062 -5.070312 1.277344 -5.296875 1.054688 -5.363281 C 0.808594 -5.40625 0.582031 -5.273438 0.515625 -5.050781 C -0.292969 -1.886719 -0.179688 -0.203125 0.832031 0.222656 C 0.988281 0.292969 1.144531 0.3125 1.300781 0.3125 C 2.984375 0.3125 5.566406 -2.691406 6.710938 -4.511719 C 6.820312 -4.710938 6.753906 -4.980469 6.550781 -5.09375 Z M 1.257812 -6.910156 C 2.402344 -6.84375 2.378906 -8.28125 1.457031 -7.964844 C 0.988281 -7.832031 0.382812 -6.957031 1.257812 -6.910156 Z M 1.257812 -6.910156"/></g><g id="c"><path d="M 2.132812 -0.921875 C 1.929688 -1.078125 1.660156 -1.03125 1.527344 -0.832031 C 1.390625 -0.652344 1.4375 -0.382812 1.617188 -0.222656 C 1.683594 -0.203125 1.707031 -0.15625 1.707031 -0.0429688 C 1.707031 0.382812 1.144531 1.144531 0.425781 1.683594 C 0.246094 1.816406 0.203125 2.085938 0.335938 2.265625 C 0.425781 2.402344 0.5625 2.445312 0.695312 2.445312 C 0.785156 2.445312 0.875 2.421875 0.941406 2.355469 C 1.75 1.75 2.582031 0.785156 2.582031 -0.0429688 C 2.582031 -0.402344 2.421875 -0.71875 2.132812 -0.921875 Z M 2.132812 -0.921875"/></g><g id="e"><path d="M 11.554688 -22.238281 C 10.949219 -22.621094 10.097656 -22.394531 9.019531 -21.542969 C 7.226562 -20.152344 4.9375 -17.210938 3.34375 -14.203125 C 2.222656 -12.117188 0.472656 -8.191406 1.347656 -5.519531 C 2.066406 -3.433594 4.0625 -2.960938 5.632812 -2.941406 C 5.632812 -2.941406 5.632812 -2.941406 5.65625 -2.941406 C 5.878906 -2.941406 6.082031 -3.140625 6.082031 -3.367188 C 6.082031 -3.613281 5.878906 -3.816406 5.65625 -3.816406 C 3.746094 -3.835938 2.601562 -4.488281 2.175781 -5.789062 C 0.851562 -9.761719 6.304688 -18.332031 9.535156 -20.871094 C 10.390625 -21.519531 10.90625 -21.632812 11.085938 -21.496094 C 11.199219 -21.429688 11.691406 -20.957031 11.019531 -18.109375 C 10.523438 -16.089844 8.707031 -8.234375 7.089844 -0.921875 C 6.171875 3.230469 5.476562 6.550781 5.003906 8.929688 C 4.710938 10.324219 4.53125 11.398438 4.421875 12.140625 C 4.242188 13.261719 4.195312 13.710938 4.644531 13.84375 C 4.691406 13.867188 4.734375 13.867188 4.78125 13.867188 C 5.160156 13.867188 5.339844 13.398438 5.519531 12.878906 C 5.609375 12.65625 5.496094 12.410156 5.273438 12.320312 C 5.273438 12.320312 5.25 12.320312 5.25 12.320312 C 5.992188 7.472656 10.613281 -12.699219 11.847656 -17.90625 C 12.433594 -20.351562 12.34375 -21.722656 11.554688 -22.238281 Z M 11.554688 -22.238281"/></g><g id="f"><path d="M 2.984375 -12.273438 C 2.804688 -12.410156 2.535156 -12.363281 2.378906 -12.183594 C 2.242188 -11.984375 2.289062 -11.714844 2.46875 -11.578125 C 2.535156 -11.535156 2.558594 -11.488281 2.558594 -11.398438 C 2.582031 -10.949219 1.996094 -10.1875 1.277344 -9.648438 C 1.097656 -9.515625 1.054688 -9.246094 1.1875 -9.066406 C 1.277344 -8.929688 1.414062 -8.886719 1.546875 -8.886719 C 1.636719 -8.886719 1.726562 -8.910156 1.796875 -8.976562 C 2.582031 -9.558594 3.433594 -10.570312 3.433594 -11.398438 C 3.433594 -11.757812 3.277344 -12.050781 2.984375 -12.273438 Z M 2.984375 -12.273438"/></g><g id="g"><path d="M 12.65625 -5.003906 C 12.476562 -5.160156 12.183594 -5.140625 12.027344 -4.960938 C 10.234375 -2.851562 9.019531 -2.3125 8.480469 -2.511719 C 8.011719 -2.691406 7.742188 -3.589844 7.765625 -5.003906 C 7.765625 -5.25 7.785156 -5.855469 7.292969 -5.96875 C 6.730469 -6.105469 6.328125 -5.453125 5.140625 -2.960938 C 4.9375 -2.535156 4.757812 -2.152344 4.644531 -1.929688 C 4.511719 -1.683594 4.421875 -1.546875 4.351562 -1.480469 C 4.242188 -1.707031 4.085938 -2.289062 4.105469 -3.164062 C 4.105469 -3.613281 4.105469 -3.996094 4.128906 -4.308594 C 4.152344 -5.296875 4.175781 -5.65625 3.769531 -5.8125 C 3.410156 -5.925781 3.164062 -5.585938 3.097656 -5.476562 C 2.109375 -4.128906 1.234375 -2.761719 0.3125 -1.097656 C 0.671875 -2.648438 1.324219 -4.871094 2.152344 -6.730469 C 2.242188 -6.957031 2.152344 -7.226562 1.929688 -7.316406 C 1.707031 -7.40625 1.457031 -7.316406 1.347656 -7.089844 C 0.71875 -5.632812 0.0898438 -3.769531 -0.382812 -1.929688 C -1.121094 1.03125 -0.832031 1.167969 -0.5625 1.300781 C -0.492188 1.324219 -0.425781 1.347656 -0.359375 1.347656 C -0.132812 1.347656 0.0664062 1.1875 0.246094 0.851562 C 1.324219 -1.210938 2.222656 -2.738281 3.253906 -4.242188 C 3.253906 -3.925781 3.230469 -3.566406 3.230469 -3.164062 C 3.230469 -2.46875 3.320312 -0.808594 4.152344 -0.582031 C 4.824219 -0.425781 5.25 -1.257812 5.40625 -1.527344 C 5.542969 -1.773438 5.722656 -2.152344 5.925781 -2.582031 C 6.171875 -3.097656 6.574219 -3.949219 6.910156 -4.53125 C 6.957031 -2.960938 7.382812 -1.996094 8.191406 -1.707031 C 9.289062 -1.277344 10.792969 -2.199219 12.699219 -4.398438 C 12.859375 -4.578125 12.835938 -4.847656 12.65625 -5.003906 Z M 12.65625 -5.003906"/></g><g id="h"><path d="M 21.902344 -5.117188 C 21.765625 -5.316406 21.496094 -5.363281 21.316406 -5.230469 C 19.027344 -3.613281 16.964844 -2.066406 15.078125 -0.605469 C 13.800781 -2.714844 10.390625 -4.105469 5.835938 -5.945312 C 5.25 -6.171875 4.667969 -6.417969 4.0625 -6.664062 C 2.265625 -7.382812 1.636719 -8.503906 2.132812 -10.054688 C 2.804688 -12.207031 5.632812 -15.058594 9.46875 -17.503906 C 13.128906 -19.816406 16.71875 -21.117188 18.402344 -20.734375 C 18.9375 -20.621094 19.546875 -20.308594 19.367188 -19.050781 C 19.320312 -18.828125 19.5 -18.601562 19.726562 -18.558594 C 19.972656 -18.535156 20.195312 -18.691406 20.21875 -18.9375 C 20.488281 -20.847656 19.320312 -21.40625 18.601562 -21.585938 C 14.519531 -22.507812 2.960938 -15.574219 1.300781 -10.324219 C 0.695312 -8.347656 1.546875 -6.753906 3.726562 -5.855469 C 4.332031 -5.609375 4.9375 -5.363281 5.519531 -5.140625 C 10.414062 -3.164062 13.417969 -1.863281 14.40625 -0.0898438 C 6.460938 6.125 2.421875 10.570312 3.097656 12.476562 C 3.207031 12.789062 3.546875 13.261719 4.488281 13.261719 C 4.554688 13.261719 4.644531 13.261719 4.710938 13.261719 C 7.71875 13.039062 14.273438 8.550781 15.527344 2.199219 C 15.6875 1.457031 15.640625 0.785156 15.460938 0.179688 C 17.367188 -1.277344 19.476562 -2.851562 21.8125 -4.511719 C 22.011719 -4.667969 22.058594 -4.9375 21.902344 -5.117188 Z M 14.675781 2.042969 C 13.464844 8.101562 7.113281 12.207031 4.644531 12.410156 C 4.421875 12.410156 3.996094 12.410156 3.925781 12.183594 C 3.679688 11.511719 4.9375 9.605469 7.136719 7.382812 C 9 5.476562 11.535156 3.253906 14.699219 0.761719 C 14.789062 1.167969 14.765625 1.570312 14.675781 2.042969 Z M 14.675781 2.042969"/></g><g id="i"><path d="M 9.378906 -4.980469 C 9.179688 -5.070312 8.910156 -4.980469 8.820312 -4.78125 C 7.113281 -1.300781 5.835938 -0.203125 5.230469 -0.3125 C 4.980469 -0.359375 4.175781 -0.832031 3.972656 -4.757812 C 3.972656 -4.9375 3.835938 -5.09375 3.679688 -5.140625 C 3.5 -5.183594 3.296875 -5.140625 3.207031 -4.980469 C 3.074219 -4.824219 2.941406 -4.644531 2.804688 -4.441406 C 2.242188 -3.679688 1.503906 -2.648438 0.605469 -1.683594 C 0.472656 -1.527344 0.359375 -1.4375 0.292969 -1.390625 C 0.132812 -2.175781 0.964844 -5.183594 2.289062 -6.125 C 2.671875 -6.394531 3.1875 -6.597656 3.882812 -5.789062 C 4.039062 -5.609375 4.308594 -5.585938 4.488281 -5.746094 C 4.667969 -5.878906 4.691406 -6.171875 4.554688 -6.351562 C 3.703125 -7.335938 2.894531 -7.316406 2.355469 -7.136719 C 0.628906 -6.53125 -0.539062 -3.207031 -0.582031 -1.683594 C -0.605469 -1.054688 -0.425781 -0.652344 -0.0664062 -0.515625 C 0.492188 -0.292969 1.054688 -0.898438 1.234375 -1.097656 C 1.996094 -1.929688 2.691406 -2.828125 3.1875 -3.523438 C 3.433594 -0.964844 4.039062 0.3125 5.050781 0.539062 C 5.140625 0.539062 5.230469 0.5625 5.316406 0.5625 C 6.84375 0.5625 8.480469 -2.109375 9.582031 -4.398438 C 9.695312 -4.621094 9.605469 -4.871094 9.378906 -4.980469 Z M 9.378906 -4.980469"/></g><g id="j"><path d="M 9.851562 -5.070312 C 9.625 -5.183594 9.359375 -5.09375 9.269531 -4.871094 C 6.6875 0.5625 4.242188 3.34375 3.703125 3.253906 C 3.65625 3.230469 2.871094 2.46875 5.40625 -5.316406 C 5.476562 -5.519531 5.632812 -5.992188 5.273438 -6.238281 C 4.9375 -6.507812 4.554688 -6.261719 3.925781 -5.835938 C 3.253906 -5.40625 2.332031 -4.800781 1.617188 -4.890625 C 3.90625 -8.839844 3.679688 -9.714844 3.164062 -10.054688 C 2.355469 -10.523438 1.1875 -9.15625 0.652344 -8.371094 C -0.449219 -6.664062 -0.425781 -5.117188 0.742188 -4.332031 C 1.929688 -3.5 3.476562 -4.511719 4.398438 -5.117188 C 4.421875 -5.140625 4.421875 -5.140625 4.441406 -5.160156 C 3.566406 -2.402344 3.007812 -0.222656 2.804688 1.277344 C 2.558594 2.941406 2.738281 3.816406 3.367188 4.0625 C 3.476562 4.085938 3.566406 4.105469 3.679688 4.105469 C 5.476562 4.105469 8.59375 -1.414062 10.054688 -4.488281 C 10.144531 -4.710938 10.054688 -4.980469 9.851562 -5.070312 Z M 0.785156 -6.621094 C 1.097656 -7.832031 2.152344 -8.953125 2.625 -9.222656 C 2.582031 -8.863281 2.332031 -7.855469 0.898438 -5.363281 C 0.742188 -5.609375 0.628906 -5.992188 0.785156 -6.621094 Z M 0.785156 -6.621094"/></g><g id="k"><path d="M 10.613281 -5.117188 C 10.414062 -5.25 10.144531 -5.183594 10.03125 -4.980469 C 6.84375 0.15625 5.722656 0.0429688 5.609375 0.0234375 C 5.386719 -0.0429688 5.140625 -0.492188 5.070312 -1.59375 C 5.050781 -2.085938 4.9375 -3.566406 3.949219 -3.703125 C 2.804688 -3.859375 1.4375 -1.863281 0.203125 0.71875 C 0.964844 -2.691406 2.066406 -7.382812 2.871094 -10.703125 C 5.878906 -16.113281 7.40625 -20.171875 6.777344 -21.046875 C 6.640625 -21.25 6.417969 -21.316406 6.195312 -21.273438 C 5.230469 -21.09375 3.726562 -17.816406 2.714844 -13.664062 C 2.671875 -13.507812 -1.347656 2.894531 -1.480469 4.914062 C -1.480469 5.140625 -1.347656 5.316406 -1.121094 5.363281 C -1.097656 5.363281 -1.078125 5.363281 -1.054688 5.363281 C -0.875 5.363281 -0.695312 5.25 -0.628906 5.09375 C 1.324219 -0.515625 3.230469 -2.851562 3.792969 -2.851562 C 3.816406 -2.851562 3.816406 -2.851562 3.816406 -2.851562 C 3.90625 -2.851562 4.152344 -2.582031 4.21875 -1.546875 C 4.242188 -1.011719 4.351562 0.582031 5.386719 0.851562 C 5.835938 0.964844 7.160156 1.300781 10.75 -4.53125 C 10.882812 -4.734375 10.816406 -5.003906 10.613281 -5.117188 Z M 6.035156 -20.039062 C 5.855469 -19.140625 5.230469 -17.210938 3.726562 -14.183594 C 4.578125 -17.414062 5.496094 -19.277344 6.035156 -20.039062 Z M 6.035156 -20.039062"/></g><g id="l"><path d="M 5.140625 -12.050781 C 4.890625 -12.117188 4.667969 -11.984375 4.601562 -11.757812 C 3.65625 -8.4375 3.1875 -6.28125 2.691406 -4.015625 C 2.402344 -2.648438 2.085938 -1.257812 1.683594 0.449219 C 1.617188 0.671875 1.75 0.921875 1.996094 0.964844 C 2.019531 0.988281 2.066406 0.988281 2.085938 0.988281 C 2.289062 0.988281 2.46875 0.851562 2.511719 0.652344 C 2.941406 -1.054688 3.253906 -2.46875 3.546875 -3.835938 C 4.015625 -6.082031 4.488281 -8.214844 5.429688 -11.511719 C 5.496094 -11.757812 5.363281 -11.984375 5.140625 -12.050781 Z M 1.546875 2.132812 C 1.144531 2.265625 0.851562 2.960938 1.4375 3.007812 C 2.421875 3.074219 2.355469 1.863281 1.546875 2.132812 Z M 1.546875 2.132812"/></g><g id="m"><path d="M 29.015625 -25.941406 C 28.949219 -26.164062 28.699219 -26.300781 28.476562 -26.210938 C 26.90625 -25.714844 24.503906 -25 21.746094 -24.144531 C 17.347656 -22.820312 11.847656 -21.160156 7.585938 -19.746094 C 5.230469 -18.9375 3.476562 -18.3125 2.242188 -17.792969 C 0.222656 -16.941406 -0.132812 -16.539062 -0.113281 -16.089844 C -0.0898438 -15.863281 0.0429688 -15.550781 0.652344 -15.4375 C 0.671875 -15.4375 0.695312 -15.4375 0.71875 -15.4375 C 0.921875 -15.4375 1.097656 -15.574219 1.144531 -15.773438 C 1.1875 -15.953125 1.097656 -16.132812 0.964844 -16.222656 C 1.546875 -16.582031 3.253906 -17.390625 8.324219 -19.074219 C 9.492188 -19.457031 10.726562 -19.859375 11.984375 -20.261719 C 11.265625 -17.300781 10.234375 -12.699219 9.15625 -7.855469 C 7.652344 -1.054688 5.699219 7.742188 4.644531 11.421875 C 4.644531 11.152344 4.691406 10.859375 4.710938 10.5 C 4.734375 10.277344 4.554688 10.054688 4.308594 10.03125 C 4.085938 10.007812 3.882812 10.1875 3.859375 10.433594 C 3.589844 13.328125 3.703125 13.800781 4.195312 13.867188 C 4.242188 13.867188 4.261719 13.890625 4.308594 13.890625 C 4.710938 13.890625 4.960938 13.417969 5.453125 11.714844 C 5.765625 10.570312 6.195312 8.953125 6.730469 6.753906 C 7.695312 2.691406 8.863281 -2.558594 10.007812 -7.675781 C 11.152344 -12.789062 12.230469 -17.660156 12.949219 -20.554688 C 16.023438 -21.519531 19.230469 -22.484375 21.992188 -23.316406 C 24.773438 -24.167969 27.152344 -24.886719 28.746094 -25.402344 C 28.96875 -25.46875 29.105469 -25.714844 29.015625 -25.941406 Z M 29.015625 -25.941406"/></g><g id="n"><path d="M 9.019531 -5.003906 C 8.820312 -5.117188 8.550781 -5.050781 8.4375 -4.824219 C 7.898438 -3.90625 6.484375 -1.414062 5.675781 -1.503906 C 5.519531 -1.527344 5.070312 -1.75 4.621094 -3.320312 C 4.308594 -4.421875 3.882812 -5.453125 3.050781 -5.496094 C 2.445312 -5.542969 1.773438 -5.070312 0.742188 -3.140625 C 1.011719 -4.105469 1.300781 -5.070312 1.527344 -5.855469 C 1.617188 -6.148438 1.683594 -6.394531 1.75 -6.640625 C 1.816406 -6.867188 1.683594 -7.113281 1.457031 -7.179688 C 1.234375 -7.25 0.988281 -7.113281 0.921875 -6.867188 C 0.851562 -6.640625 0.785156 -6.371094 0.695312 -6.105469 C 0.113281 -4.105469 -0.761719 -1.078125 -0.988281 0.761719 C -1.011719 0.964844 -0.875 1.167969 -0.671875 1.210938 C -0.628906 1.234375 -0.605469 1.234375 -0.5625 1.234375 C -0.382812 1.234375 -0.222656 1.121094 -0.15625 0.964844 C 1.953125 -4.285156 2.804688 -4.644531 3.007812 -4.644531 C 3.050781 -4.644531 3.367188 -4.554688 3.792969 -3.074219 C 4.242188 -1.527344 4.824219 -0.742188 5.585938 -0.652344 C 6.730469 -0.515625 7.765625 -1.929688 9.179688 -4.398438 C 9.3125 -4.621094 9.222656 -4.871094 9.019531 -5.003906 Z M 9.019531 -5.003906"/></g><g id="o"><path d="M 9.648438 -5.050781 C 9.445312 -5.160156 9.179688 -5.09375 9.066406 -4.890625 C 7.160156 -1.839844 3.726562 0.742188 2.445312 0.492188 C 2.242188 0.472656 1.976562 0.359375 1.839844 -0.15625 C 1.90625 -0.246094 2.019531 -0.335938 2.132812 -0.425781 C 2.492188 -0.742188 3.007812 -1.1875 3.457031 -1.75 C 4.175781 -2.691406 4.488281 -3.835938 4.21875 -4.488281 C 4.085938 -4.757812 3.859375 -4.9375 3.566406 -4.960938 C 2.941406 -5.003906 2.222656 -4.375 1.367188 -3.050781 C 0.964844 -2.421875 0.582031 -1.726562 0.246094 -0.988281 C 0.941406 -4.105469 1.796875 -7.855469 2.445312 -10.660156 C 5.453125 -16.042969 6.957031 -20.082031 6.328125 -20.957031 C 6.195312 -21.136719 5.96875 -21.226562 5.746094 -21.183594 C 4.78125 -21.003906 3.277344 -17.726562 2.265625 -13.578125 C 2.109375 -12.949219 1.886719 -12.027344 1.636719 -10.949219 C 1.617188 -10.929688 1.617188 -10.882812 1.617188 -10.839844 C 0.335938 -5.429688 -1.816406 4.128906 -1.839844 4.871094 C -1.839844 5.09375 -1.683594 5.273438 -1.480469 5.296875 C -1.457031 5.316406 -1.4375 5.316406 -1.390625 5.316406 C -1.210938 5.316406 -1.054688 5.183594 -0.988281 5.003906 L -0.898438 4.691406 C -0.15625 2.355469 0.785156 -0.582031 2.085938 -2.582031 C 2.851562 -3.769531 3.296875 -4.039062 3.433594 -4.085938 C 3.5 -3.835938 3.386719 -3.074219 2.761719 -2.265625 C 2.378906 -1.796875 1.90625 -1.367188 1.546875 -1.078125 C 1.097656 -0.671875 0.898438 -0.492188 0.941406 -0.179688 C 1.167969 0.921875 1.796875 1.257812 2.289062 1.347656 C 2.402344 1.367188 2.511719 1.367188 2.625 1.367188 C 4.78125 1.367188 8.28125 -2.019531 9.785156 -4.441406 C 9.917969 -4.644531 9.851562 -4.914062 9.648438 -5.050781 Z M 5.585938 -19.949219 C 5.429688 -19.027344 4.78125 -17.121094 3.277344 -14.070312 C 4.152344 -17.324219 5.070312 -19.1875 5.585938 -19.949219 Z M 5.585938 -19.949219"/></g><g id="p"><path d="M 9.984375 -5.140625 C 9.804688 -5.296875 9.535156 -5.273438 9.378906 -5.09375 C 7.605469 -3.050781 4.824219 0.203125 4.375 0.785156 C 4.242188 0.941406 4.105469 1.121094 3.972656 1.300781 C 3.792969 0.851562 3.566406 0.425781 3.277344 -0.0234375 C 2.199219 -1.683594 1.234375 -3.253906 1.277344 -4.351562 C 1.324219 -5.230469 1.773438 -5.992188 2.511719 -6.441406 C 3.121094 -6.800781 3.792969 -6.867188 4.308594 -6.621094 C 4.511719 -6.53125 4.78125 -6.621094 4.871094 -6.84375 C 4.980469 -7.046875 4.890625 -7.316406 4.667969 -7.40625 C 3.90625 -7.765625 2.917969 -7.675781 2.066406 -7.179688 C 1.078125 -6.574219 0.492188 -5.566406 0.425781 -4.398438 C 0.359375 -3.03125 1.347656 -1.390625 2.558594 0.449219 C 2.941406 1.03125 3.1875 1.59375 3.34375 2.132812 C 1.59375 4.511719 -0.292969 7.5625 0.671875 8.503906 C 0.832031 8.660156 1.03125 8.730469 1.234375 8.730469 C 1.59375 8.730469 1.996094 8.550781 2.421875 8.214844 C 3.636719 7.203125 4.890625 4.914062 4.285156 2.3125 C 4.53125 1.996094 4.78125 1.660156 5.050781 1.324219 C 5.496094 0.761719 8.28125 -2.492188 10.03125 -4.53125 C 10.1875 -4.710938 10.164062 -4.980469 9.984375 -5.140625 Z M 2.691406 6.597656 C 2.085938 7.496094 1.480469 7.855469 1.277344 7.875 C 1.1875 7.5625 1.480469 6.261719 3.566406 3.296875 C 3.65625 4.914062 2.984375 6.148438 2.691406 6.597656 Z M 2.691406 6.597656"/></g><g id="q"><path d="M 4.554688 -5.925781 C 3.546875 -5.8125 2.738281 -5.699219 1.816406 -5.609375 C 1.90625 -5.992188 1.996094 -6.351562 2.085938 -6.710938 C 2.109375 -6.710938 2.109375 -6.730469 2.132812 -6.753906 C 4.421875 -10.390625 6.351562 -14.808594 5.609375 -15.953125 C 5.453125 -16.15625 5.230469 -16.246094 5.003906 -16.203125 C 3.726562 -16 2.378906 -11.21875 1.976562 -9.761719 C 1.636719 -8.480469 1.277344 -7.070312 0.921875 -5.542969 C 0.3125 -5.476562 -0.359375 -5.429688 -1.167969 -5.363281 C -1.390625 -5.339844 -1.570312 -5.140625 -1.546875 -4.890625 C -1.546875 -4.667969 -1.347656 -4.511719 -1.121094 -4.511719 C -1.121094 -4.511719 -1.097656 -4.511719 -1.097656 -4.511719 C -0.402344 -4.554688 0.179688 -4.601562 0.695312 -4.644531 C -0.113281 -1.257812 -0.964844 2.535156 -1.707031 6.082031 C -2.242188 8.640625 -2.671875 10.816406 -2.917969 12.410156 C -3.367188 15.058594 -3.320312 15.371094 -2.894531 15.507812 C -2.851562 15.507812 -2.78125 15.527344 -2.738281 15.527344 C -2.355469 15.527344 -2.152344 14.96875 -1.953125 14.40625 C -1.863281 14.183594 -1.996094 13.933594 -2.222656 13.84375 C -2.242188 13.84375 -2.265625 13.824219 -2.289062 13.824219 C -1.863281 10.859375 -0.179688 2.691406 1.617188 -4.734375 C 2.671875 -4.824219 3.546875 -4.9375 4.667969 -5.070312 C 4.890625 -5.117188 5.070312 -5.316406 5.027344 -5.566406 C 5.003906 -5.789062 4.78125 -5.96875 4.554688 -5.925781 Z M 4.871094 -15.011719 C 4.78125 -14.203125 4.285156 -12.410156 2.871094 -9.738281 C 3.726562 -12.878906 4.464844 -14.40625 4.871094 -15.011719 Z M 4.871094 -15.011719"/></g><g id="r"><path d="M 8.125 -4.871094 C 7.921875 -5.027344 7.652344 -4.980469 7.515625 -4.800781 C 6.574219 -3.589844 5.027344 -2.582031 3.835938 -2.804688 C 3.859375 -2.960938 3.882812 -3.121094 3.882812 -3.277344 C 4.039062 -5.8125 3.253906 -6.328125 2.78125 -6.417969 C 2.242188 -6.53125 1.683594 -6.125 1.414062 -5.453125 C 1.300781 -5.496094 1.167969 -5.496094 1.054688 -5.40625 C 0.15625 -4.847656 -0.582031 -3.410156 -0.179688 -1.863281 C 0.0898438 -0.941406 0.71875 -0.359375 1.546875 -0.359375 C 2.332031 -0.359375 3.164062 -0.941406 3.589844 -1.976562 C 5.160156 -1.636719 7.046875 -2.804688 8.191406 -4.261719 C 8.347656 -4.464844 8.304688 -4.734375 8.125 -4.871094 Z M 1.570312 -1.210938 C 1.546875 -1.210938 1.546875 -1.210938 1.546875 -1.210938 C 0.988281 -1.234375 0.742188 -1.773438 0.671875 -2.085938 C 0.449219 -2.851562 0.628906 -3.90625 1.257812 -4.488281 C 1.300781 -3.726562 1.726562 -2.894531 2.804688 -2.3125 C 2.492188 -1.59375 1.953125 -1.210938 1.570312 -1.210938 Z M 3.03125 -3.320312 C 3.007812 -3.277344 3.007812 -3.230469 3.007812 -3.1875 C 2.152344 -3.746094 2.019531 -4.464844 2.175781 -5.027344 C 2.289062 -5.386719 2.511719 -5.566406 2.625 -5.566406 C 2.738281 -5.542969 3.121094 -5.117188 3.03125 -3.320312 Z M 3.03125 -3.320312"/></g><g id="s"><path d="M 18.9375 -13.238281 C 18.648438 -13.644531 17.347656 -13.890625 3.410156 -13.578125 C 3.859375 -15.394531 4.261719 -17.03125 4.621094 -18.355469 C 4.691406 -18.601562 4.554688 -18.828125 4.332031 -18.894531 C 4.105469 -18.960938 3.859375 -18.828125 3.792969 -18.601562 C 3.410156 -17.1875 2.984375 -15.484375 2.511719 -13.554688 C 1.277344 -13.53125 -0.0664062 -13.507812 -1.527344 -13.464844 C -3.523438 -13.417969 -5.09375 -13.375 -5.699219 -13.375 C -5.945312 -13.375 -6.148438 -13.171875 -6.148438 -12.949219 C -6.148438 -12.699219 -5.945312 -12.5 -5.699219 -12.5 C -5.070312 -12.523438 -3.5 -12.542969 -1.503906 -12.609375 C -0.449219 -12.632812 0.851562 -12.65625 2.3125 -12.699219 C 1.347656 -8.617188 0.246094 -3.726562 -0.742188 1.054688 C -1.457031 4.554688 -2.042969 7.585938 -2.421875 9.804688 C -2.625 10.972656 -2.761719 11.894531 -2.828125 12.523438 C -2.917969 13.375 -2.960938 13.867188 -2.535156 14.023438 C -2.46875 14.023438 -2.421875 14.046875 -2.355469 14.046875 C -1.976562 14.046875 -1.773438 13.507812 -1.59375 13.015625 C -1.503906 12.789062 -1.617188 12.542969 -1.839844 12.453125 C -1.886719 12.453125 -1.90625 12.433594 -1.953125 12.433594 C -1.726562 10.679688 -1.054688 6.753906 0.246094 0.5625 C 1.210938 -4.128906 2.265625 -8.820312 3.207031 -12.722656 C 9.378906 -12.859375 17.390625 -12.96875 18.3125 -12.65625 C 18.46875 -12.523438 18.671875 -12.523438 18.847656 -12.632812 C 19.027344 -12.769531 19.074219 -13.039062 18.9375 -13.238281 Z M 18.9375 -13.238281"/></g><g id="t"><path d="M 4.800781 -8.324219 C 4.21875 -8.503906 2.691406 -8.390625 1.097656 -3.746094 C 1.996094 -8.820312 2.152344 -9.714844 2.132812 -9.875 C 2.132812 -10.097656 1.929688 -10.300781 1.683594 -10.277344 C 1.457031 -10.253906 1.277344 -10.074219 1.277344 -9.851562 C 1.257812 -9.535156 0.695312 -6.507812 0.0898438 -3.007812 C -0.0429688 -2.242188 -0.203125 -1.457031 -0.335938 -0.652344 C -0.652344 -0.539062 -0.964844 -0.425781 -1.277344 -0.335938 C -1.503906 -0.269531 -1.636719 -0.0429688 -1.570312 0.203125 C -1.503906 0.425781 -1.277344 0.5625 -1.054688 0.492188 C -0.875 0.449219 -0.695312 0.382812 -0.515625 0.335938 C -1.480469 5.8125 -2.582031 12.074219 -3.097656 15.507812 C -3.121094 15.730469 -2.960938 15.953125 -2.738281 15.976562 C -2.714844 15.976562 -2.691406 16 -2.671875 16 C -2.46875 16 -2.265625 15.84375 -2.242188 15.640625 C -1.683594 12.320312 -0.132812 4.441406 1.03125 -0.335938 C 1.726562 -0.695312 2.378906 -1.097656 2.984375 -1.570312 C 3.949219 -2.355469 5.183594 -3.613281 5.609375 -5.25 C 6.035156 -6.753906 5.675781 -8.054688 4.800781 -8.324219 Z M 4.78125 -5.476562 C 4.351562 -3.882812 2.941406 -2.46875 1.324219 -1.480469 C 1.527344 -2.242188 1.707031 -2.894531 1.863281 -3.367188 C 3.03125 -6.800781 4.105469 -7.496094 4.488281 -7.496094 C 4.511719 -7.496094 4.53125 -7.496094 4.554688 -7.496094 C 4.847656 -7.40625 5.09375 -6.621094 4.78125 -5.476562 Z M 4.78125 -5.476562"/></g><g id="u"><path d="M 10.277344 -4.960938 C 10.144531 -5.160156 9.875 -5.207031 9.695312 -5.09375 C 8.125 -4.085938 6.105469 -2.761719 4.015625 -1.054688 C 4.242188 -2.601562 4.464844 -4.242188 4.691406 -5.992188 C 4.710938 -6.214844 4.578125 -6.394531 4.398438 -6.460938 C 4.195312 -6.53125 3.972656 -6.441406 3.882812 -6.261719 C 3.5 -5.632812 2.445312 -4.015625 1.570312 -2.851562 C 1.210938 -2.402344 1.011719 -2.222656 0.898438 -2.152344 C 0.671875 -2.871094 1.367188 -6.082031 2.78125 -7.335938 C 3.34375 -7.855469 3.859375 -7.855469 4.421875 -7.359375 C 4.601562 -7.203125 4.871094 -7.203125 5.027344 -7.382812 C 5.183594 -7.5625 5.160156 -7.832031 5.003906 -7.988281 C 4.105469 -8.796875 3.296875 -8.660156 2.78125 -8.390625 C 0.964844 -7.496094 -0.132812 -3.769531 0.0234375 -2.265625 C 0.0664062 -1.59375 0.382812 -1.347656 0.628906 -1.277344 C 1.234375 -1.121094 1.816406 -1.75 2.242188 -2.332031 C 2.691406 -2.917969 3.164062 -3.589844 3.589844 -4.195312 C 3.410156 -2.78125 3.207031 -1.457031 3.007812 -0.203125 C 0.605469 1.886719 -1.796875 4.511719 -3.613281 7.832031 C -4.980469 10.300781 -5.429688 12.386719 -5.566406 13.6875 C -5.746094 15.394531 -5.496094 16.808594 -4.871094 17.570312 C -4.53125 17.996094 -4.105469 18.222656 -3.636719 18.222656 C -3.5 18.222656 -3.34375 18.199219 -3.1875 18.152344 C -1.03125 17.546875 1.796875 12.433594 3.792969 0.246094 C 6.125 -1.75 8.414062 -3.230469 10.144531 -4.351562 C 10.34375 -4.488281 10.414062 -4.757812 10.277344 -4.960938 Z M -3.410156 17.324219 C -3.726562 17.414062 -3.972656 17.324219 -4.195312 17.03125 C -5.050781 15.976562 -5.183594 12.453125 -2.871094 8.257812 C -1.300781 5.40625 0.71875 3.074219 2.761719 1.167969 C 0.71875 12.925781 -1.976562 16.917969 -3.410156 17.324219 Z M -3.410156 17.324219"/></g><g id="v"><path d="M 9.46875 -5.027344 C 9.269531 -5.140625 9 -5.070312 8.863281 -4.871094 C 7.675781 -2.941406 5.8125 -1.210938 3.566406 0.113281 C 4.53125 -1.210938 5.003906 -2.714844 4.980469 -3.636719 C 4.960938 -4.488281 4.554688 -4.734375 4.308594 -4.800781 C 3.613281 -5.027344 2.691406 -4.332031 1.527344 -2.671875 C 1.121094 -2.132812 0.71875 -1.414062 0.292969 -0.5625 C 0.964844 -3.636719 1.886719 -7.652344 2.582031 -10.660156 C 5.566406 -16.023438 7.089844 -20.0625 6.460938 -20.9375 C 6.328125 -21.136719 6.105469 -21.207031 5.878906 -21.160156 C 4.914062 -20.980469 3.410156 -17.707031 2.402344 -13.554688 C 2.222656 -12.925781 2.019531 -12.003906 1.773438 -10.949219 C 1.75 -10.90625 1.75 -10.859375 1.726562 -10.816406 C 0.515625 -5.609375 -1.457031 3.1875 -1.480469 3.925781 C -1.503906 4.152344 -1.347656 4.332031 -1.121094 4.375 C -1.097656 4.375 -1.078125 4.375 -1.054688 4.375 C -0.875 4.375 -0.695312 4.261719 -0.652344 4.0625 C -0.449219 3.476562 -0.246094 2.894531 -0.0234375 2.3125 C 0.0898438 2.46875 0.292969 2.558594 0.492188 2.492188 C 2.804688 1.660156 7.070312 -0.3125 9.605469 -4.421875 C 9.714844 -4.621094 9.671875 -4.890625 9.46875 -5.027344 Z M 5.722656 -19.925781 C 5.542969 -19.027344 4.914062 -17.097656 3.410156 -14.070312 C 4.261719 -17.324219 5.183594 -19.164062 5.722656 -19.925781 Z M 0.222656 1.660156 C 0.875 0.113281 1.59375 -1.300781 2.222656 -2.175781 C 3.433594 -3.882812 3.972656 -3.972656 4.039062 -3.972656 C 4.085938 -3.925781 4.195312 -3.636719 4.0625 -2.960938 C 3.769531 -1.570312 2.535156 0.808594 0.222656 1.660156 Z M 0.222656 1.660156"/></g><g id="w"><path d="M 10.972656 -4.9375 C 10.839844 -5.140625 10.570312 -5.183594 10.367188 -5.050781 C 8.4375 -3.792969 6.460938 -2.402344 4.578125 -0.652344 C 4.847656 -2.3125 5.117188 -4.085938 5.363281 -5.945312 C 5.40625 -6.148438 5.273438 -6.351562 5.070312 -6.417969 C 4.890625 -6.484375 4.667969 -6.394531 4.578125 -6.214844 C 4.128906 -5.453125 3.140625 -3.882812 2.265625 -2.828125 C 1.953125 -2.445312 1.636719 -2.242188 1.480469 -2.355469 C 1.097656 -2.582031 0.832031 -4.128906 1.707031 -6.261719 C 1.796875 -6.484375 1.683594 -6.730469 1.480469 -6.820312 C 1.257812 -6.910156 1.011719 -6.800781 0.921875 -6.574219 C 0 -4.332031 0.0429688 -2.199219 1.054688 -1.617188 C 1.300781 -1.4375 2.019531 -1.1875 2.917969 -2.265625 C 3.386719 -2.828125 3.835938 -3.457031 4.242188 -4.0625 C 4.015625 -2.511719 3.792969 -1.03125 3.546875 0.382812 C 1.660156 2.3125 -0.113281 4.644531 -1.636719 7.605469 C -4.195312 12.523438 -4.667969 17.972656 -3.386719 19.546875 C -3.140625 19.859375 -2.828125 20.015625 -2.492188 20.015625 C -2.378906 20.015625 -2.289062 19.992188 -2.175781 19.972656 C -0.71875 19.546875 0.582031 16.3125 1.4375 13.664062 C 2.492188 10.367188 3.457031 6.058594 4.351562 0.785156 C 6.441406 -1.300781 8.660156 -2.917969 10.839844 -4.332031 C 11.039062 -4.464844 11.109375 -4.734375 10.972656 -4.9375 Z M 0.605469 13.398438 C -1.011719 18.511719 -2.175781 19.074219 -2.402344 19.140625 C -2.492188 19.164062 -2.582031 19.164062 -2.714844 19.007812 C -3.523438 18.019531 -3.589844 13.238281 -0.875 7.988281 C 0.382812 5.585938 1.773438 3.613281 3.277344 1.929688 C 2.46875 6.574219 1.570312 10.414062 0.605469 13.398438 Z M 0.605469 13.398438"/></g></defs><g fill="#B58F65"><use x="12.358" y="43.18" xmlns:xlink="http://www.w3.org/1999/xlink" xlink:href="#a" xlink:type="simple" xlink:actuate="onLoad" xlink:show="embed"/></g><g fill="#B58F65"><use x="31.446" y="43.18" xmlns:xlink="http://www.w3.org/1999/xlink" xlink:href="#b" xlink:type="simple" xlink:actuate="onLoad" xlink:show="embed"/></g><g fill="#B58F65"><use x="37.121" y="43.18" xmlns:xlink="http://www.w3.org/1999/xlink" xlink:href="#c" xlink:type="simple" xlink:actuate="onLoad" xlink:show="embed"/></g><g fill="#B58F65"><use x="40.844" y="43.18" xmlns:xlink="http://www.w3.org/1999/xlink" xlink:href="#d" xlink:type="simple" xlink:actuate="onLoad" xlink:show="embed"/></g><g fill="#B58F65"><use x="47.73" y="43.18" xmlns:xlink="http://www.w3.org/1999/xlink" xlink:href="#e" xlink:type="simple" xlink:actuate="onLoad" xlink:show="embed"/></g><g fill="#B58F65"><use x="59.237" y="43.18" xmlns:xlink="http://www.w3.org/1999/xlink" xlink:href="#f" xlink:type="simple" xlink:actuate="onLoad" xlink:show="embed"/></g><g fill="#B58F65"><use x="63.79" y="43.18" xmlns:xlink="http://www.w3.org/1999/xlink" xlink:href="#g" xlink:type="simple" xlink:actuate="onLoad" xlink:show="embed"/></g><g fill="#B58F65"><use x="75.476" y="43.18" xmlns:xlink="http://www.w3.org/1999/xlink" xlink:href="#d" xlink:type="simple" xlink:actuate="onLoad" xlink:show="embed"/></g><g fill="#B58F65"><use x="82.362" y="43.18" xmlns:xlink="http://www.w3.org/1999/xlink" xlink:href="#h" xlink:type="simple" xlink:actuate="onLoad" xlink:show="embed"/></g><g fill="#B58F65"><use x="103.401" y="43.18" xmlns:xlink="http://www.w3.org/1999/xlink" xlink:href="#i" xlink:type="simple" xlink:actuate="onLoad" xlink:show="embed"/></g><g fill="#B58F65"><use x="111.744" y="43.18" xmlns:xlink="http://www.w3.org/1999/xlink" xlink:href="#j" xlink:type="simple" xlink:actuate="onLoad" xlink:show="embed"/></g><g fill="#B58F65"><use x="120.694" y="43.18" xmlns:xlink="http://www.w3.org/1999/xlink" xlink:href="#i" xlink:type="simple" xlink:actuate="onLoad" xlink:show="embed"/></g><g fill="#B58F65"><use x="129.038" y="43.18" xmlns:xlink="http://www.w3.org/1999/xlink" xlink:href="#k" xlink:type="simple" xlink:actuate="onLoad" xlink:show="embed"/></g><g fill="#B58F65"><use x="138.705" y="43.18" xmlns:xlink="http://www.w3.org/1999/xlink" xlink:href="#l" xlink:type="simple" xlink:actuate="onLoad" xlink:show="embed"/></g><g fill="#B58F65"><use x="145.277" y="43.18" xmlns:xlink="http://www.w3.org/1999/xlink" xlink:href="#d" xlink:type="simple" xlink:actuate="onLoad" xlink:show="embed"/></g><g fill="#B58F65"><use x="152.163" y="43.18" xmlns:xlink="http://www.w3.org/1999/xlink" xlink:href="#m" xlink:type="simple" xlink:actuate="onLoad" xlink:show="embed"/></g><g fill="#B58F65"><use x="164.32" y="43.18" xmlns:xlink="http://www.w3.org/1999/xlink" xlink:href="#k" xlink:type="simple" xlink:actuate="onLoad" xlink:show="embed"/></g><g fill="#B58F65"><use x="173.987" y="43.18" xmlns:xlink="http://www.w3.org/1999/xlink" xlink:href="#i" xlink:type="simple" xlink:actuate="onLoad" xlink:show="embed"/></g><g fill="#B58F65"><use x="182.331" y="43.18" xmlns:xlink="http://www.w3.org/1999/xlink" xlink:href="#n" xlink:type="simple" xlink:actuate="onLoad" xlink:show="embed"/></g><g fill="#B58F65"><use x="190.338" y="43.18" xmlns:xlink="http://www.w3.org/1999/xlink" xlink:href="#o" xlink:type="simple" xlink:actuate="onLoad" xlink:show="embed"/></g><g fill="#B58F65"><use x="199.086" y="43.18" xmlns:xlink="http://www.w3.org/1999/xlink" xlink:href="#p" xlink:type="simple" xlink:actuate="onLoad" xlink:show="embed"/></g><g fill="#B58F65"><use x="208.125" y="43.18" xmlns:xlink="http://www.w3.org/1999/xlink" xlink:href="#d" xlink:type="simple" xlink:actuate="onLoad" xlink:show="embed"/></g><g fill="#B58F65"><use x="215.011" y="43.18" xmlns:xlink="http://www.w3.org/1999/xlink" xlink:href="#q" xlink:type="simple" xlink:actuate="onLoad" xlink:show="embed"/></g><g fill="#B58F65"><use x="220.102" y="43.18" xmlns:xlink="http://www.w3.org/1999/xlink" xlink:href="#r" xlink:type="simple" xlink:actuate="onLoad" xlink:show="embed"/></g><g fill="#B58F65"><use x="227.28" y="43.18" xmlns:xlink="http://www.w3.org/1999/xlink" xlink:href="#j" xlink:type="simple" xlink:actuate="onLoad" xlink:show="embed"/></g><g fill="#B58F65"><use x="236.229" y="43.18" xmlns:xlink="http://www.w3.org/1999/xlink" xlink:href="#d" xlink:type="simple" xlink:actuate="onLoad" xlink:show="embed"/></g><g fill="#B58F65"><use x="243.115" y="43.18" xmlns:xlink="http://www.w3.org/1999/xlink" xlink:href="#p" xlink:type="simple" xlink:actuate="onLoad" xlink:show="embed"/></g><g fill="#B58F65"><use x="252.154" y="43.18" xmlns:xlink="http://www.w3.org/1999/xlink" xlink:href="#s" xlink:type="simple" xlink:actuate="onLoad" xlink:show="embed"/></g><g fill="#B58F65"><use x="255.138" y="43.18" xmlns:xlink="http://www.w3.org/1999/xlink" xlink:href="#r" xlink:type="simple" xlink:actuate="onLoad" xlink:show="embed"/></g><g fill="#B58F65"><use x="262.315" y="43.18" xmlns:xlink="http://www.w3.org/1999/xlink" xlink:href="#t" xlink:type="simple" xlink:actuate="onLoad" xlink:show="embed"/></g><g fill="#B58F65"><use x="269.089" y="43.18" xmlns:xlink="http://www.w3.org/1999/xlink" xlink:href="#t" xlink:type="simple" xlink:actuate="onLoad" xlink:show="embed"/></g><g fill="#B58F65"><use x="275.863" y="43.18" xmlns:xlink="http://www.w3.org/1999/xlink" xlink:href="#b" xlink:type="simple" xlink:actuate="onLoad" xlink:show="embed"/></g><g fill="#B58F65"><use x="281.537" y="43.18" xmlns:xlink="http://www.w3.org/1999/xlink" xlink:href="#n" xlink:type="simple" xlink:actuate="onLoad" xlink:show="embed"/></g><g fill="#B58F65"><use x="289.545" y="43.18" xmlns:xlink="http://www.w3.org/1999/xlink" xlink:href="#u" xlink:type="simple" xlink:actuate="onLoad" xlink:show="embed"/></g><g fill="#B58F65"><use x="298.786" y="43.18" xmlns:xlink="http://www.w3.org/1999/xlink" xlink:href="#d" xlink:type="simple" xlink:actuate="onLoad" xlink:show="embed"/></g><g fill="#B58F65"><use x="305.672" y="43.18" xmlns:xlink="http://www.w3.org/1999/xlink" xlink:href="#v" xlink:type="simple" xlink:actuate="onLoad" xlink:show="embed"/></g><g fill="#B58F65"><use x="314.105" y="43.18" xmlns:xlink="http://www.w3.org/1999/xlink" xlink:href="#w" xlink:type="simple" xlink:actuate="onLoad" xlink:show="embed"/></g><g fill="#B58F65"><use x="324.042" y="43.18" xmlns:xlink="http://www.w3.org/1999/xlink" xlink:href="#l" xlink:type="simple" xlink:actuate="onLoad" xlink:show="embed"/></g></svg>